<?xml version="1.0" standalone="no"?>
<!DOCTYPE svg PUBLIC "-//W3C//DTD SVG 1.1//EN" "http://www.w3.org/Graphics/SVG/1.1/DTD/svg11.dtd" >
<svg xmlns="http://www.w3.org/2000/svg">
<metadata>
Created by FontPrep 20130207 at Mon Jun 26 14:45:23 2017
 By Chris Byrne
Copyright (c) 2016 by FontfabricLLC. All rights reserved.
</metadata>
<defs>
<font id="0df71b6bfd65ea71958fb5918d97da2b" horiz-adv-x='1024' >
  <font-face 
    font-family="UniNeueBook-Italic"
    font-weight="400"
    font-style="italic"
    font-stretch="normal"
    units-per-em="2048"
    panose-1="0 0 0 0 0 0 0 0 0 0"
    ascent="1536"
    descent="-512"
    x-height="1053"
    cap-height="1464"
    bbox="-442 -481 2159.88 1950"
    underline-thickness="102"
    underline-position="-153"
    slope="-10"
    unicode-range="U+0020-25CA"
  />
<missing-glyph horiz-adv-x="462" 
 />
    <glyph glyph-name=".notdef" horiz-adv-x="462" 
 />
    <glyph glyph-name=".null" horiz-adv-x="0" 
 />
    <glyph glyph-name="nonmarkingreturn" horiz-adv-x="681" 
 />
    <glyph glyph-name="space" unicode=" " horiz-adv-x="462" 
 />
    <glyph glyph-name="exclam" unicode="!" horiz-adv-x="452" 
d="M136 -12q-36 0 -55 26t-13 62q12 76 86 76q37 0 57 -26t14 -62q-5 -36 -29 -56t-60 -20zM225 330h-67q-18 0 -15 16l123 723l68 379q2 16 18 16h80q16 0 14 -18l-200 -1102q-5 -14 -21 -14z" />
    <glyph glyph-name="quotedbl" unicode="&#x22;" horiz-adv-x="575" 
d="M508 1047h-55q-18 0 -17 18l82 385q2 14 17 14h79q19 0 15 -20l-105 -383q-2 -14 -16 -14zM285 1047h-54q-18 0 -16 18l80 385q6 14 18 14h80q19 0 15 -20l-105 -383q-2 -14 -18 -14z" />
    <glyph glyph-name="numbersign" unicode="#" horiz-adv-x="1388" 
d="M649 932l-176 -397h344l174 397h-342zM219 0h-63q-18 0 -13 20l191 424h-268q-23 0 -15 19l29 59q4 12 18 13h277l172 397h-268q-23 0 -13 20l27 58q6 14 18 14h279l190 428q8 12 21 12h63q18 0 13 -20l-189 -420h344l193 428q4 12 18 12h66q20 0 10 -20l-186 -420h262
q22 0 12 -20l-25 -60q-8 -12 -20 -12h-270l-174 -397h264q20 0 12 -19l-27 -59q-6 -12 -20 -13h-270l-193 -432q-8 -12 -20 -12h-64q-18 0 -12 20l190 424h-346l-192 -432q-9 -12 -21 -12z" />
    <glyph glyph-name="dollar" unicode="$" horiz-adv-x="1148" 
d="M700 1382q-150 0 -253 -61t-126 -199t67 -208q90 -69 211 -104q122 -34 194 -68q73 -34 137 -85q135 -106 101 -294q-34 -187 -172 -283t-343 -103l-29 -161q0 -16 -18 -17h-61q-18 0 -17 19l31 166q-199 16 -379 190q-12 12 -2 27l47 51q10 12 25 0q176 -170 391 -170
q162 0 278 79t138 213t-68 203t-274 123q-420 125 -365 449q31 164 159 248t314 88l27 151q0 16 18 17h62q20 0 14 -19l-27 -151q193 -14 365 -164q12 -8 2 -23l-51 -55q-8 -12 -23 -2q-164 143 -373 143z" />
    <glyph glyph-name="percent" unicode="%" horiz-adv-x="1525" 
d="M1103 59q71 1 125 49t68 123l47 258q14 78 -22 125q-37 48 -110 48t-127 -50t-68 -131l-45 -258q-15 -76 23 -120t109 -44zM1376 225q-18 -111 -99 -177t-184 -66t-162 71q-58 72 -40 180l47 256q18 115 100 182t184 67t161 -74q58 -72 38 -183zM392 797q70 0 125 47
q54 47 69 125l47 258q14 78 -23 124q-38 46 -110 46t-126 -49t-69 -129l-45 -261q-14 -74 24 -118t108 -43zM188 0h-59q-25 0 -10 20l1245 1430q6 8 20 8h58q27 0 10 -20l-1243 -1428q-5 -10 -21 -10zM512 1473q104 0 162 -72t37 -184l-45 -256q-18 -109 -100 -176t-184 -67
q-103 0 -162 73q-58 72 -40 178l45 258q19 113 101 179t186 67z" />
    <glyph glyph-name="ampersand" unicode="&#x26;" horiz-adv-x="1144" 
d="M674 1389q-100 0 -170 -67q-70 -68 -87 -176t85 -298q240 140 300 226q28 40 39 104t-28 138q-39 73 -139 73zM406 84q180 0 329 182q-172 262 -272 441q-127 -82 -203 -162q-76 -81 -94 -189t46 -190t194 -82zM686 1487q144 1 211 -105q66 -106 44 -230t-142 -223
q-80 -66 -248 -171q94 -168 256 -408q76 113 133 221q6 12 23 7l57 -31q16 -10 6 -23q-84 -156 -164 -260q70 -115 158 -244q10 -20 -12 -20h-88q-12 0 -19 10q-47 76 -113 166q-172 -197 -399 -196q-168 0 -262 118q-93 118 -67 264t115 242t235 191q-122 236 -96 374
t127 228t245 90z" />
    <glyph glyph-name="quotesingle" unicode="'" horiz-adv-x="352" 
d="M287 1047h-56q-18 0 -16 18l80 385q2 14 18 14h80q19 0 13 -20l-103 -383q-2 -14 -16 -14z" />
    <glyph glyph-name="parenleft" unicode="(" horiz-adv-x="524" 
d="M336 -240h-76q-12 0 -20 15q-366 972 335 1911q8 10 21 10h80q10 0 13 -6t-3 -15q-534 -713 -454 -1436q28 -245 116 -458q6 -21 -12 -21z" />
    <glyph glyph-name="parenright" unicode=")" horiz-adv-x="524" 
d="M260 1698h76q12 0 20 -15q367 -974 -336 -1910q-8 -10 -20 -11h-80q-10 0 -13 6t3 15q534 713 454 1437q-28 245 -116 457q-6 21 12 21z" />
    <glyph glyph-name="asterisk" unicode="*" horiz-adv-x="888" 
d="M575 1464h64q20 0 16 -18l-53 -287l279 86q18 8 18 -12l10 -59q0 -16 -12 -21l-287 -92l125 -232q6 -14 -6 -22l-55 -41q-14 -10 -23 6l-123 236l-202 -240q-13 -14 -25 -2l-49 39q-12 8 -2 22l201 240l-236 88q-14 6 -8 23l26 59q6 16 21 8l248 -88l55 291q4 16 18 16z
" />
    <glyph glyph-name="plus" unicode="+" horiz-adv-x="1150" 
d="M1018 733q18 0 14 -18l-10 -68q-4 -14 -18 -14h-357l-67 -381q0 -16 -19 -16h-72q-18 0 -14 18l68 379h-355q-18 0 -14 16l12 68q0 16 19 16h354l68 379q4 16 18 16h72q16 0 14 -18l-67 -377h354z" />
    <glyph glyph-name="comma" unicode="," horiz-adv-x="376" 
d="M-2 -229h-61q-18 0 -13 20l160 373q6 12 20 12h82q21 0 13 -18l-181 -375q-8 -12 -20 -12z" />
    <glyph glyph-name="hyphen" unicode="-" horiz-adv-x="802" 
d="M655 571h-489q-18 0 -14 17l12 71q0 16 18 17h490q14 0 14 -19l-12 -71q-5 -15 -19 -15z" />
    <glyph glyph-name="period" unicode="." horiz-adv-x="374" 
d="M106 -6q-37 0 -57 26t-14 61q6 36 30 56q25 21 61 21t56 -24t13 -64q-12 -76 -89 -76z" />
    <glyph glyph-name="slash" unicode="/" horiz-adv-x="823" 
d="M68 0h-78q-23 0 -13 20l836 1434q6 10 18 10h76q23 0 13 -20l-834 -1434q-6 -10 -18 -10z" />
    <glyph glyph-name="zero" unicode="0" horiz-adv-x="1193" 
d="M516 88q156 0 270 94t146 269l100 561q31 180 -46 272q-76 92 -234 92t-272 -94t-146 -276l-98 -560q-31 -176 47 -267q77 -91 233 -91zM507 -23q-199 0 -309 127t-69 355l98 559q41 227 189 348t347 121q201 0 309 -126t69 -355l-101 -560q-41 -225 -187 -347t-346 -122
z" />
    <glyph glyph-name="one" unicode="1" horiz-adv-x="659" 
d="M367 0h-74q-20 0 -14 18l231 1307l-299 -182q-16 -10 -25 8l-26 59q-2 12 8 21l371 227q12 6 20 6h64q20 0 16 -18l-254 -1430q0 -16 -18 -16z" />
    <glyph glyph-name="two" unicode="2" horiz-adv-x="1067" 
d="M872 0h-864q-14 0 -14 18l8 52q2 10 12 20l412 385q232 218 328 325t134 176q107 194 11 326q-57 79 -205 78q-201 0 -395 -198q-14 -14 -23 4l-36 61q-8 12 2 23q213 217 458 217q190 0 282 -109t65 -266q-27 -156 -145 -302t-386 -400q-231 -213 -336 -306h709
q18 0 14 -18l-12 -70q-1 -16 -19 -16z" />
    <glyph glyph-name="three" unicode="3" horiz-adv-x="1081" 
d="M460 86q142 0 253 97t139 259t-52 251q-81 89 -249 89q-72 0 -115 -10q-18 0 -20 12l-15 43q-4 12 7 23l356 346q88 88 178 164h-657q-14 0 -15 18l13 70q0 16 18 16h797q16 0 16 -18l-10 -49q-2 -10 -8 -21l-533 -510l21 2q205 0 307 -118t67 -322q-35 -203 -178 -326
t-346 -122q-147 0 -240 57t-169 172q-8 14 4 22l49 50q12 8 24 -5q66 -96 141 -143t217 -47z" />
    <glyph glyph-name="four" unicode="4" horiz-adv-x="1069" 
d="M741 0h-73q-20 0 -15 18l62 357h-666q-14 0 -14 16l10 58l6 18l719 987q6 10 21 10h88q10 0 13 -6t-3 -14l-701 -965h545l62 338q0 16 18 17h72q20 0 16 -19l-59 -336h143q20 0 14 -18l-12 -72q-4 -14 -18 -14h-146l-63 -359q-1 -16 -19 -16z" />
    <glyph glyph-name="five" unicode="5" horiz-adv-x="1110" 
d="M465 -18q-256 0 -391 223q-12 14 2 24l51 50q14 10 23 -5q115 -184 323 -184q164 0 275 106q112 106 144 290q32 182 -38 270t-240 88t-338 -139q-10 -10 -22 -5l-64 25q-18 4 -10 20l150 705q6 14 18 14h739q18 0 17 -18l-14 -74q-2 -14 -19 -14h-651l-115 -527
q157 119 347 119t288 -123t59 -351t-183 -361t-351 -133z" />
    <glyph glyph-name="six" unicode="6" horiz-adv-x="1140" 
d="M512 86q156 0 266 101t142 276q61 352 -273 352q-141 0 -261 -87t-146 -255l-4 -31q-27 -168 46 -262q74 -94 230 -94zM500 -23q-201 -1 -304 133t-69 343l102 575q37 215 185 337t336 122q223 0 370 -154q8 -14 0 -24l-49 -56q-10 -10 -24 0q-113 127 -304 127
q-147 0 -263 -97t-142 -259l-51 -287q131 184 375 185q207 0 305 -125t59 -344t-182 -347t-344 -129z" />
    <glyph glyph-name="seven" unicode="7" horiz-adv-x="995" 
d="M207 0h-90q-23 0 -13 20l850 1340h-747q-14 0 -14 16l12 72q0 16 18 16h873q18 0 14 -18l-8 -47q-2 -10 -8 -19l-867 -1370q-6 -10 -20 -10z" />
    <glyph glyph-name="eight" unicode="8" horiz-adv-x="1177" 
d="M638 817q158 0 259 81t121 209t-52 201q-72 72 -222 72t-254 -75q-103 -76 -128 -207q-20 -127 49 -204t227 -77zM624 715q-166 0 -280 -86q-116 -86 -140 -225q-24 -140 54 -230t249 -90t287 95t140 233t-60 221q-84 82 -250 82zM498 -23q-215 0 -325 124t-75 323
q20 121 108 216t220 132q-104 43 -147 134t-23 210q29 160 165 265t332 105t300 -113q104 -114 73 -277q-18 -115 -92 -201t-196 -129q116 -37 170 -137t34 -223q-35 -195 -182 -312t-362 -117z" />
    <glyph glyph-name="nine" unicode="9" horiz-adv-x="1144" 
d="M708 1380q-156 0 -266 -99t-141 -274t38 -267t219 -91q150 0 271 88t148 252l4 29q29 174 -44 268t-229 94zM467 -23q-227 0 -373 220q-8 14 0 24l51 51q14 10 25 -2q121 -184 307 -184q145 0 260 97t144 257l51 287q-133 -184 -377 -184q-205 0 -303 128t-59 344
t183 344t346 128t303 -133t65 -348l-101 -570q-37 -217 -182 -338t-340 -121z" />
    <glyph glyph-name="colon" unicode=":" horiz-adv-x="434" 
d="M289 885q-37 0 -58 25q-20 26 -12 63q12 76 86 76q37 1 57 -25t13 -63q-12 -76 -86 -76zM128 -6q-36 0 -54 26t-14 61q4 36 29 56q23 21 59 21t56 -24t13 -62q-6 -38 -30 -58q-23 -20 -59 -20z" />
    <glyph glyph-name="semicolon" unicode=";" horiz-adv-x="477" 
d="M334 1051q38 -1 58 -25t14 -61t-30 -57t-60 -21t-55 25t-13 65q14 74 86 74zM43 -229h-61q-23 0 -13 20l160 381q6 12 21 12h86q20 0 12 -18l-185 -381q-6 -14 -20 -14z" />
    <glyph glyph-name="less" unicode="&#x3c;" horiz-adv-x="1150" 
d="M934 315l-14 -88q-6 -20 -23 -10l-741 412q-10 6 -11 20l11 64q0 10 14 20l891 412q8 4 14 0t4 -15l-14 -88q-2 -10 -14 -18l-768 -344l641 -344q10 -7 10 -21z" />
    <glyph glyph-name="equal" unicode="=" horiz-adv-x="1150" 
d="M967 451h-813q-20 0 -17 16l15 70q2 14 18 14h813q20 0 14 -19l-12 -67q-2 -14 -18 -14zM1032 815h-813q-20 0 -14 19l12 67q2 14 19 14h813q20 0 14 -18l-12 -68q-5 -14 -19 -14z" />
    <glyph glyph-name="greater" unicode="&#x3e;" horiz-adv-x="1150" 
d="M1036 629l-889 -412q-8 -4 -15 0t-5 14l16 88q0 10 13 19l768 344l-641 344q-10 8 -11 21l15 88q6 20 22 10l742 -412q10 -4 10 -20l-10 -64q-1 -14 -15 -20z" />
    <glyph glyph-name="question" unicode="?" horiz-adv-x="931" 
d="M358 158q38 0 58 -24t14 -62t-30 -58t-60 -20t-54 26q-19 26 -14 64q14 74 86 74zM428 330h-72q-20 0 -16 16l25 135q16 86 67 152q50 67 112 109t125 86q145 103 177 268q20 121 -38 207t-225 86t-337 -146q-12 -12 -23 4l-28 53q-6 14 4 25q188 162 411 162
q180 0 274 -115t62 -291q-18 -102 -69 -179t-113 -123t-124 -88q-150 -104 -173 -236l-21 -111q0 -14 -18 -14z" />
    <glyph glyph-name="at" unicode="@" horiz-adv-x="1822" 
d="M852 252q102 0 181 53t106 135l84 498q-25 14 -94 26t-128 13q-131 0 -215 -74t-106 -203l-29 -165q-23 -131 39 -207q60 -76 162 -76zM709 -221q-338 0 -490 211t-92 549l39 223q64 350 284 537t597 188q498 0 733 -357q6 -12 4 -22l-103 -604q-29 -168 -111 -254
t-202 -86q-80 0 -135 41t-72 114q-51 -77 -133 -117t-174 -40q-154 0 -240 112t-57 269l31 166q29 166 138 262q110 96 285 96t306 -66q8 -4 8 -20l-88 -518q-16 -97 23 -155t122 -56q164 2 205 248l109 602q-203 301 -656 301q-346 0 -535 -165t-247 -482l-41 -226
q-53 -307 78 -486t424 -179q111 0 239 32t220 80q12 8 20 -10l12 -51q4 -16 -8 -18q-96 -51 -234 -85t-259 -34z" />
    <glyph glyph-name="A" unicode="A" horiz-adv-x="1167" 
d="M731 1335h-4l-410 -805h545zM1044 0h-79q-16 0 -21 16l-65 412h-611l-215 -416q-4 -12 -20 -12h-88q-23 0 -13 20l744 1432q6 12 20 12h101q18 0 18 -16l246 -1430q3 -18 -17 -18z" />
    <glyph glyph-name="B" unicode="B" horiz-adv-x="1232" 
d="M723 825q133 0 224 73t112 198q47 266 -264 266h-346l-95 -537h369zM559 102q186 0 298 83q113 83 139 233t-45 227q-71 78 -238 78h-377l-109 -621h332zM543 0h-430q-18 0 -15 18l254 1430q0 16 19 16h446q213 0 298 -108t56 -275q-43 -233 -264 -303q123 -35 174 -129
t27 -237q-67 -412 -565 -412z" />
    <glyph glyph-name="C" unicode="C" horiz-adv-x="1132" 
d="M526 -23q-216 -1 -326 141t-69 369l92 521q39 225 191 352t378 127t388 -150q12 -8 2 -22l-52 -60q-12 -12 -24 -2q-140 129 -326 129t-301 -105t-145 -284l-90 -514q-31 -179 48 -287t259 -108q219 0 405 149q14 14 25 -4l33 -63q10 -17 -4 -23q-219 -166 -484 -166z
" />
    <glyph glyph-name="D" unicode="D" horiz-adv-x="1302" 
d="M592 102q182 0 302 106t155 302l75 442q35 201 -44 305t-261 105h-373l-219 -1260h365zM584 0h-471q-18 0 -15 18l252 1430q0 16 19 16h465q226 0 336 -142t69 -380l-78 -444q-41 -240 -189 -369t-388 -129z" />
    <glyph glyph-name="E" unicode="E" horiz-adv-x="1112" 
d="M1122 1362h-676l-98 -563h637q18 0 14 -17l-12 -69q0 -16 -18 -17h-637l-105 -592h695q14 0 14 -18l-10 -70q-4 -16 -21 -16h-792q-18 0 -15 18l252 1430q0 16 19 16h770q14 0 14 -18l-12 -68q0 -16 -19 -16z" />
    <glyph glyph-name="F" unicode="F" horiz-adv-x="1073" 
d="M1135 1362h-684l-105 -594h615q18 0 16 -18l-12 -70q-4 -16 -19 -16h-618l-115 -648q-4 -16 -20 -16h-80q-18 0 -15 18l252 1432q4 16 19 16h784q14 0 14 -18l-14 -70q-4 -16 -18 -16z" />
    <glyph glyph-name="G" unicode="G" horiz-adv-x="1253" 
d="M786 1487q266 0 437 -158q10 -12 0 -24l-52 -56q-8 -12 -24 -2q-152 135 -375 135q-174 0 -291 -108t-149 -289l-90 -512q-29 -171 50 -279t257 -108q227 4 414 139l79 447h-380q-18 0 -13 18l13 70q4 14 18 14h475q20 0 16 -16l-100 -565q-2 -5 -10 -19
q-233 -193 -524 -192q-221 0 -333 142t-75 359l92 512q39 227 193 359t372 133z" />
    <glyph glyph-name="H" unicode="H" horiz-adv-x="1329" 
d="M1212 1464h80q18 0 15 -18l-252 -1430q-4 -16 -21 -16h-78q-18 0 -14 18l121 676h-731l-121 -678q0 -16 -18 -16h-80q-18 0 -15 18l252 1430q4 16 21 16h78q18 0 14 -18l-115 -649h731l115 651q0 16 18 16z" />
    <glyph glyph-name="I" unicode="I" horiz-adv-x="485" 
d="M193 0h-80q-18 0 -15 18l252 1430q4 16 21 16h78q18 0 14 -18l-252 -1430q0 -16 -18 -16z" />
    <glyph glyph-name="J" unicode="J" horiz-adv-x="976" 
d="M338 80q270 0 328 332l186 1036q0 16 18 16h78q18 0 15 -18l-183 -1043q-74 -426 -468 -426q-198 0 -341 166q-12 12 0 25l43 53q12 12 25 0q129 -141 299 -141z" />
    <glyph glyph-name="K" unicode="K" horiz-adv-x="1185" 
d="M1178 1464h108q10 0 13 -6t-5 -14l-704 -643l489 -781q12 -20 -10 -20h-94q-12 0 -19 10l-450 717l-201 -176l-94 -535q-4 -16 -18 -16h-80q-18 0 -15 18l250 1430q4 16 19 16h79q16 0 15 -18l-129 -739l823 749q13 8 23 8z" />
    <glyph glyph-name="L" unicode="L" horiz-adv-x="976" 
d="M868 102q14 0 15 -16l-13 -70q0 -16 -18 -16h-739q-18 0 -15 18l252 1430q4 16 21 16h78q18 0 16 -18l-238 -1344h641z" />
    <glyph glyph-name="M" unicode="M" horiz-adv-x="1624" 
d="M193 0h-80q-18 0 -15 18l252 1430q0 16 19 16h96q12 0 18 -14l234 -688l84 -277h2q31 43 99 149t89 134l475 686q8 10 21 10h98q20 0 17 -18l-252 -1430q-4 -16 -19 -16h-80q-18 0 -14 18l123 707q63 365 100 549h-4q-106 -170 -207 -313l-413 -603q-8 -12 -21 -12h-63
q-12 0 -17 14l-209 621q-18 55 -50 155t-44 138h-2q-39 -238 -100 -576l-119 -682q0 -16 -18 -16z" />
    <glyph glyph-name="N" unicode="N" horiz-adv-x="1380" 
d="M193 0h-80q-18 0 -15 18l252 1430q0 16 19 16h92q14 0 20 -12l541 -1282h4q74 467 92 565l125 713q4 16 21 16h77q18 0 15 -18l-250 -1430q-4 -16 -21 -16h-92q-12 0 -18 12l-395 906q-68 156 -148 364h-4q-33 -225 -88 -526l-129 -740q0 -16 -18 -16z" />
    <glyph glyph-name="O" unicode="O" horiz-adv-x="1320" 
d="M582 82q186 0 319 112t164 287l86 492q31 180 -60 295q-91 114 -281 114t-320 -112t-160 -295l-86 -486q-31 -175 61 -291q91 -116 277 -116zM826 1487q242 -1 359 -149q118 -148 79 -375l-86 -490q-37 -221 -203 -358t-407 -137q-242 0 -358 146q-116 148 -77 378
l82 483q41 227 205 365t406 137z" />
    <glyph glyph-name="P" unicode="P" horiz-adv-x="1210" 
d="M641 649q399 0 461 344q31 181 -52 275t-270 94h-329l-127 -713h317zM371 1464h426q229 0 343 -132t74 -349q-78 -434 -583 -434h-324l-94 -533q-4 -16 -18 -16h-82q-18 0 -15 18l254 1430q1 16 19 16z" />
    <glyph glyph-name="Q" unicode="Q" horiz-adv-x="1329" 
d="M564 82q166 0 284 80l-170 227q-12 12 2 23l53 45q12 12 23 0l172 -232q111 104 139 256l86 492q31 180 -59 295q-90 114 -280 114t-320 -112t-162 -295l-86 -486q-31 -175 61 -291q91 -116 257 -116zM826 1487q240 0 361 -151q120 -151 81 -373l-84 -490
q-37 -209 -189 -340l101 -133q10 -11 -4 -23l-52 -45q-12 -12 -24 2l-103 140q-162 -96 -344 -97q-239 0 -357 151t-81 374l84 483q41 227 206 365t405 137z" />
    <glyph glyph-name="R" unicode="R" horiz-adv-x="1212" 
d="M657 702q180 0 291 81q110 81 138 242t-51 249t-259 88h-330l-114 -660h325zM193 0h-80q-18 0 -15 18l252 1430q0 16 19 16h422q225 0 333 -127t76 -317q-33 -190 -157 -296t-318 -120l328 -584q10 -20 -13 -20h-90q-14 0 -20 10l-322 590h-295l-102 -584q0 -16 -18 -16z
" />
    <glyph glyph-name="S" unicode="S" horiz-adv-x="1153" 
d="M512 84q164 0 279 78t139 215t-88 212q-91 61 -216 98q-124 38 -190 72t-126 86q-129 112 -91 308q31 168 168 251t336 83q131 0 230 -40t202 -126q16 -10 4 -23l-49 -55q-10 -12 -25 -2q-168 139 -376 139q-147 0 -251 -61t-128 -186q-24 -146 66 -216q89 -70 211 -108
q122 -37 193 -70q72 -33 138 -84q138 -106 102 -297q-35 -190 -181 -285t-357 -96q-142 1 -246 47t-211 148q-12 12 0 25l45 53q14 10 25 0q178 -166 397 -166z" />
    <glyph glyph-name="T" unicode="T" horiz-adv-x="1058" 
d="M201 1464h985q14 0 14 -18l-12 -68q0 -16 -19 -16h-440l-237 -1346q0 -16 -19 -16h-80q-18 0 -12 18l235 1344h-432q-14 0 -14 16l12 70q1 16 19 16z" />
    <glyph glyph-name="U" unicode="U" horiz-adv-x="1335" 
d="M356 1464h82q16 0 15 -18l-172 -967q-31 -177 55 -287t256 -110t293 108t153 281l170 977q4 16 19 16h80q20 0 16 -18l-174 -987q-37 -213 -194 -347t-376 -134t-333 146t-76 368l168 956q4 16 18 16z" />
    <glyph glyph-name="V" unicode="V" horiz-adv-x="1167" 
d="M547 0h-107q-18 0 -18 16l-242 1430q-4 18 15 18h79q16 0 21 -16l213 -1315h8l236 457l438 862q6 12 20 12h88q23 0 13 -20l-744 -1432q-6 -12 -20 -12z" />
    <glyph glyph-name="W" unicode="W" horiz-adv-x="1822" 
d="M438 0h-96q-16 0 -18 16l-136 1430q-4 18 15 18h84q16 0 16 -16l78 -883q6 -81 16 -233t15 -195h4q10 23 80 188t110 253l395 854q8 12 21 12h96q18 0 19 -17l98 -858q8 -71 21 -221t20 -211h4q115 299 182 453l375 862q6 12 18 12h89q18 0 12 -20l-635 -1432
q-8 -12 -21 -12h-96q-16 0 -18 16l-94 813q-43 406 -48 447h-4q-88 -211 -196 -445l-385 -819q-9 -12 -21 -12z" />
    <glyph glyph-name="X" unicode="X" horiz-adv-x="1144" 
d="M1141 1464h96q25 0 10 -20l-569 -709l334 -715q6 -20 -15 -20h-88q-12 0 -18 12l-291 635l-510 -637q-6 -10 -20 -10h-101q-25 0 -10 20l584 719l-324 705q-6 20 14 20h86q14 0 21 -12l278 -625l502 627q7 10 21 10z" />
    <glyph glyph-name="Y" unicode="Y" horiz-adv-x="1064" 
d="M481 0h-80q-20 0 -14 18l96 549l-311 877q-6 20 12 20h86q14 0 17 -14l268 -778h2l530 782q6 10 19 10h94q25 0 12 -20l-612 -877l-100 -551q-1 -16 -19 -16z" />
    <glyph glyph-name="Z" unicode="Z" horiz-adv-x="1107" 
d="M932 0h-938q-18 0 -17 18l11 52q0 8 8 20l1026 1272h-762q-18 0 -14 16l12 72q4 14 21 14h892q20 0 17 -18l-8 -49q0 -4 -9 -21l-1024 -1272h801q18 0 17 -18l-15 -72q-4 -14 -18 -14z" />
    <glyph glyph-name="bracketleft" unicode="[" horiz-adv-x="520" 
d="M326 -135q18 0 14 -19l-10 -69q-4 -16 -21 -17h-254q-18 0 -14 19l336 1900q0 16 18 17h254q18 0 15 -19l-13 -69q-4 -16 -18 -17h-166l-303 -1726h162z" />
    <glyph glyph-name="backslash" unicode="\" horiz-adv-x="796" 
d="M643 0h-61q-12 0 -19 14l-354 1432q-6 18 16 18h62q12 0 18 -14l354 -1430q7 -20 -16 -20z" />
    <glyph glyph-name="bracketright" unicode="]" horiz-adv-x="522" 
d="M268 1593q-18 0 -14 19l10 69q4 16 21 17h254q18 0 14 -19l-336 -1900q0 -16 -18 -17h-254q-18 0 -15 19l13 69q4 16 18 17h166l303 1726h-162z" />
    <glyph glyph-name="asciicircum" unicode="^" horiz-adv-x="1150" 
d="M356 1174h-102q-10 0 -14 6t4 14l479 479q6 10 20 10h76q16 0 21 -10l311 -479q10 -20 -10 -20h-94q-14 0 -21 10l-256 399l-391 -399q-9 -10 -23 -10z" />
    <glyph glyph-name="underscore" unicode="_" horiz-adv-x="1177" 
d="M956 -127h-952q-18 0 -14 16l12 72q0 16 18 16h951q16 0 16 -16l-12 -72q-4 -16 -19 -16z" />
    <glyph glyph-name="grave" unicode="`" horiz-adv-x="329" 
d="M403 1225h-55q-12 0 -20 12l-127 272q-10 20 12 21h76q14 0 20 -12l107 -273q8 -20 -13 -20z" />
    <glyph glyph-name="a" unicode="a" horiz-adv-x="1009" 
d="M482 539q-138 -1 -228 -55t-112 -164q-20 -110 52 -177t219 -67q148 0 285 51l68 377q-146 35 -284 35zM400 -23q-185 -1 -289 99q-105 100 -75 254t151 230q122 75 289 75t306 -35l19 111q51 270 -240 270q-168 0 -317 -88q-16 -12 -21 6l-24 55q-6 12 4 23
q165 100 365 100t286 -103t55 -272l-110 -630q-3 -11 -15 -19q-199 -76 -384 -76z" />
    <glyph glyph-name="b" unicode="b" horiz-adv-x="1073" 
d="M615 981q-155 0 -300 -96l-133 -756q127 -51 264 -51q327 -4 390 332l43 239q31 164 -39 248t-225 84zM652 1077q176 0 274 -119t61 -321l-43 -234q-41 -215 -174 -320t-337 -102t-357 80q-10 2 -10 21l243 1366q4 16 19 16h73q16 0 15 -18l-80 -455q139 86 316 86z" />
    <glyph glyph-name="c" unicode="c" horiz-adv-x="917" 
d="M433 -23q-193 0 -287 113q-93 113 -62 291l61 336q29 162 151 261t297 99t316 -108q12 -8 2 -23l-39 -51q-10 -12 -24 -4q-113 90 -253 90t-230 -75t-113 -195l-59 -338q-25 -135 41 -217t212 -82q148 0 295 108q12 10 23 -4l31 -57q5 -15 -7 -23q-162 -121 -355 -121z
" />
    <glyph glyph-name="d" unicode="d" horiz-adv-x="1073" 
d="M610 979q-313 0 -370 -326l-43 -252q-59 -328 266 -327q168 0 289 57l135 764q-121 84 -277 84zM456 -23q-216 0 -309 117q-92 117 -59 318l43 250q35 200 163 308t318 107q152 0 291 -84l80 455q4 16 18 16h76q16 0 15 -18l-242 -1374q-2 -11 -14 -19q-164 -76 -380 -76
z" />
    <glyph glyph-name="e" unicode="e" horiz-adv-x="1028" 
d="M604 981q-137 0 -232 -77t-120 -212l-25 -125h604l25 127q27 137 -44 212t-208 75zM616 1077q180 0 280 -104t65 -287l-37 -197q-4 -16 -19 -16h-694l-23 -119q-28 -131 48 -206t208 -74q180 0 349 137q14 8 24 -4l33 -51q10 -16 -2 -23q-184 -156 -416 -156
q-172 -1 -278 103t-72 278l61 342q33 178 163 278t310 99z" />
    <glyph glyph-name="f" unicode="f" horiz-adv-x="593" 
d="M637 1049q18 0 16 -17l-10 -63q-4 -16 -20 -17h-291l-166 -936q-4 -16 -19 -16h-75q-18 0 -15 18l201 1129q29 162 128 251t245 89q39 0 104 -8q18 -2 15 -19l-13 -63q-4 -17 -22 -13q-61 4 -88 5q-106 0 -173 -65t-89 -185l-15 -90h287z" />
    <glyph glyph-name="g" unicode="g" horiz-adv-x="1052" 
d="M614 979q-319 0 -372 -309l-39 -211q-57 -319 254 -320q158 0 291 74l120 698q-102 68 -254 68zM356 -309q156 0 244 82t113 231l18 100q-137 -66 -285 -65q-202 0 -294 111t-56 317l37 211q37 205 166 302t327 97t351 -102q8 -6 8 -23l-168 -960q-33 -188 -147 -294
q-115 -106 -318 -106t-342 146q-10 12 0 22l39 52q10 14 25 0q126 -121 282 -121z" />
    <glyph glyph-name="h" unicode="h" horiz-adv-x="1097" 
d="M658 1077q176 1 269 -113t52 -339l-109 -609q0 -16 -18 -16h-74q-20 0 -16 18l110 623q35 174 -32 257q-68 83 -220 83t-301 -92l-153 -873q0 -16 -19 -16h-73q-16 0 -15 18l250 1430q4 16 21 16h73q18 0 15 -18l-80 -453q144 84 320 84z" />
    <glyph glyph-name="i" unicode="i" horiz-adv-x="401" 
d="M334 1272q-32 0 -50 24q-19 24 -14 56q12 66 78 65q36 1 54 -23t13 -55t-27 -49t-54 -18zM145 0h-73q-20 0 -15 18l183 1020q0 16 18 17h74q20 0 14 -19l-182 -1020q-1 -16 -19 -16z" />
    <glyph glyph-name="j" unicode="j" horiz-adv-x="415" 
d="M432 1337q-14 -66 -78 -65q-33 0 -52 24t-13 56q10 66 78 65q35 1 53 -23t12 -57zM-152 -307q166 0 213 264l191 1081q4 16 20 17h74q18 0 14 -19l-192 -1087q-66 -356 -328 -357q-96 0 -96 27l12 66q4 16 19 14q39 -6 73 -6z" />
    <glyph glyph-name="k" unicode="k" horiz-adv-x="948" 
d="M889 1055h100q15 0 13 -12q-1 -5 -7 -9l-520 -434l365 -580q10 -20 -11 -20h-90q-14 0 -18 10l-326 518l-159 -131l-68 -381q-4 -16 -18 -16h-76q-16 0 -15 18l252 1430q4 16 21 16h74q16 0 14 -18l-158 -899l606 500q9 8 21 8z" />
    <glyph glyph-name="l" unicode="l" horiz-adv-x="522" 
d="M317 1464h74q18 0 15 -18l-193 -1108q-45 -260 117 -260q56 0 72 3t21 -1t3 -14l-10 -66q-1 -12 -19 -16l-86 -7q-127 1 -182 93t-23 274l193 1104q0 16 18 16z" />
    <glyph glyph-name="m" unicode="m" horiz-adv-x="1630" 
d="M1382 0h-71q-20 0 -17 18l115 648q31 160 -35 238t-213 76q-147 -3 -272 -75q39 -90 14 -227l-119 -662q0 -16 -18 -16h-74q-16 0 -14 18l119 668q51 295 -215 295q-121 0 -256 -53l-164 -912q-4 -16 -21 -16h-71q-20 0 -15 18l172 965q2 12 17 21q170 74 341 74t255 -91
q156 86 325 90q201 1 294 -111t59 -309l-115 -641q-4 -16 -21 -16z" />
    <glyph glyph-name="n" unicode="n" horiz-adv-x="1093" 
d="M141 0h-73q-18 0 -15 18l174 965q0 12 15 18q190 76 388 76q198 1 293 -113t56 -323l-113 -625q0 -16 -18 -16h-72q-18 0 -16 18l112 631q61 332 -260 332q-141 0 -286 -53l-166 -912q-1 -16 -19 -16z" />
    <glyph glyph-name="o" unicode="o" 
d="M442 76q148 0 243 83t120 216l55 307q24 129 -40 214t-210 85t-243 -83q-96 -83 -121 -212l-53 -305q-25 -137 38 -221t211 -84zM434 -23q-192 0 -287 119q-94 119 -63 293l55 307q31 168 160 274t321 107q192 0 286 -118q93 -118 63 -287l-56 -305q-33 -174 -161 -282
q-126 -108 -318 -108z" />
    <glyph glyph-name="p" unicode="p" horiz-adv-x="1052" 
d="M608 981q-151 0 -284 -59l-136 -762q116 -86 264 -86t242 82t123 245l43 250q29 172 -36 251t-216 79zM612 1077q208 -1 298 -117q91 -116 57 -317l-43 -250q-35 -199 -160 -307t-300 -109q-175 0 -292 84l-78 -434q-4 -16 -20 -16h-74q-16 0 -14 18l239 1348q3 10 15 16
q164 84 372 84z" />
    <glyph glyph-name="q" unicode="q" horiz-adv-x="1069" 
d="M458 74q153 0 296 96l135 766q-121 45 -269 45t-248 -81q-99 -81 -130 -241l-45 -239q-33 -172 37 -259t224 -87zM748 -389h-76q-16 0 -15 18l76 434q-141 -86 -314 -86t-272 122q-98 122 -59 331l45 236q39 203 172 308t333 102t357 -72q10 -2 11 -21l-240 -1356
q-4 -16 -18 -16z" />
    <glyph glyph-name="r" unicode="r" horiz-adv-x="722" 
d="M145 0h-73q-18 0 -15 18l166 967q2 10 17 21q166 72 338 71q84 0 190 -18q16 -4 14 -19l-10 -63q-4 -16 -20 -14q-86 16 -201 16t-229 -49l-156 -914q-5 -16 -21 -16z" />
    <glyph glyph-name="s" unicode="s" horiz-adv-x="942" 
d="M387 -23q-221 0 -375 136q-12 12 -2 24l35 49q12 14 25 4q135 -117 325 -116q131 0 217 51t104 145t-45 138q-62 44 -206 79q-365 98 -324 332q23 125 141 192t292 67t329 -101q14 -10 2 -23l-39 -55q-12 -8 -24 -4q-119 86 -291 86q-121 0 -205 -47t-99 -139t74 -143
q72 -43 213 -78q140 -35 227 -110t62 -208t-143 -206t-293 -73z" />
    <glyph glyph-name="t" unicode="t" horiz-adv-x="579" 
d="M590 952h-266l-113 -635q-41 -244 166 -243q25 0 82 4q20 0 16 -17l-10 -61q-3 -16 -29 -19t-69 -4q-145 -1 -219 91t-44 260l172 975q4 14 19 14h61q16 0 15 -17l-33 -251h268q18 0 15 -17l-11 -63q-4 -17 -20 -17z" />
    <glyph glyph-name="u" unicode="u" horiz-adv-x="1083" 
d="M942 1055h76q18 0 14 -19l-174 -964q-2 -12 -14 -19q-188 -76 -383 -76t-289 116t-55 321l112 624q0 16 19 17h74q20 0 14 -19l-113 -630q-59 -332 252 -332q133 0 285 53l164 911q4 17 18 17z" />
    <glyph glyph-name="v" unicode="v" horiz-adv-x="964" 
d="M436 0h-90q-14 0 -18 14l-203 1022q-2 18 16 19h76q16 0 19 -15l124 -669q16 -84 46 -252h4l129 252l364 671q6 12 21 13h84q23 0 12 -21l-563 -1024q-7 -10 -21 -10z" />
    <glyph glyph-name="w" unicode="w" horiz-adv-x="1462" 
d="M274 -2q-18 0 -18 16l-127 1022q0 16 16 17h74q18 0 19 -17l71 -598q23 -229 29 -311h2q37 96 127 295l291 598q6 12 18 12h84q18 0 19 -14l75 -606q20 -164 27 -285h2q92 219 139 322l281 591q6 12 20 13h78q23 0 12 -19l-487 -1022q-6 -14 -20 -14h-88q-16 0 -19 18
l-76 629q-12 113 -22 258h-2q-63 -156 -111 -258l-305 -633q-6 -14 -21 -14h-88z" />
    <glyph glyph-name="x" unicode="x" horiz-adv-x="940" 
d="M868 1055h90q25 0 11 -21l-430 -497l272 -517q10 -20 -12 -20h-84q-14 0 -19 12l-233 449l-391 -451q-8 -10 -21 -10h-94q-25 0 -8 20l457 521l-256 493q-10 20 14 21h80q14 0 20 -13l217 -426l367 428q10 11 20 11z" />
    <glyph glyph-name="y" unicode="y" horiz-adv-x="1087" 
d="M1016 1055q20 0 16 -19l-186 -1044q-35 -188 -152 -294q-116 -106 -326 -106t-345 146q-10 14 0 24l43 52q12 12 24 0q121 -125 284 -125t252 85t113 228l19 100q-150 -61 -291 -61q-188 0 -284 109q-95 109 -58 307l104 581q4 16 21 17h72q18 0 16 -19l-107 -590
q-57 -309 252 -309q158 0 291 74l148 827q4 16 20 17h74z" />
    <glyph glyph-name="z" unicode="z" horiz-adv-x="892" 
d="M723 0h-733q-18 0 -17 18l7 41q2 8 10 21l758 878h-560q-18 0 -14 19l10 61q4 16 19 17h690q16 0 16 -19l-6 -35q-2 -8 -10 -20l-758 -885h602q20 0 17 -16l-13 -66q-4 -14 -18 -14z" />
    <glyph glyph-name="braceleft" unicode="{" horiz-adv-x="530" 
d="M315 -240h-30q-109 0 -149 60t-19 188l80 453q18 100 3 150t-77 63q-16 4 -14 18l10 76q0 12 16 16q66 12 104 66t56 156l78 452q23 127 80 183t165 57h35q14 0 15 -19l-13 -69q0 -16 -16 -17h-27q-113 0 -139 -149l-82 -463q-37 -213 -182 -254q59 -18 85 -87t7 -173
l-82 -463q-14 -78 6 -108t78 -31h29q16 0 12 -19l-12 -71q-1 -15 -17 -15z" />
    <glyph glyph-name="bar" unicode="|" horiz-adv-x="448" 
d="M117 -285h-70q-18 0 -14 19l356 2013q0 16 19 16h69q18 0 15 -18l-357 -2013q0 -17 -18 -17z" />
    <glyph glyph-name="braceright" unicode="}" horiz-adv-x="528" 
d="M287 1700h30q109 0 149 -60t19 -188l-79 -453q-18 -100 -4 -150t77 -63q16 -4 15 -18l-11 -76q0 -12 -16 -16q-65 -12 -103 -66t-57 -155l-78 -453q-23 -127 -79 -183t-166 -57h-35q-14 0 -15 19l13 69q0 16 16 17h27q113 0 139 149l82 463q37 213 182 254q-59 18 -85 87
t-7 173l82 463q14 78 -6 109t-78 30h-29q-16 0 -12 19l12 72q1 14 17 14z" />
    <glyph glyph-name="asciitilde" unicode="~" horiz-adv-x="1150" 
d="M788 610q-70 0 -194 43t-194 43t-142 -61q-14 -8 -25 2l-30 45q-8 12 2 23q96 86 213 86q78 0 198 -43t170 -43q94 0 166 59q12 10 23 -2l33 -43q8 -11 0 -23q-100 -86 -220 -86z" />
    <glyph glyph-name="exclamdown" unicode="&#xa1;" horiz-adv-x="432" 
d="M290 918q-36 0 -56 25q-19 26 -13 65q14 74 88 73q37 0 56 -24q18 -25 13 -62t-29 -57q-23 -20 -59 -20zM94 -395h-80q-18 0 -14 18l201 1102q4 16 18 16h68q20 0 16 -18l-190 -1102q-5 -16 -19 -16z" />
    <glyph glyph-name="cent" unicode="&#xa2;" horiz-adv-x="976" 
d="M418 -180h-45q-16 0 -15 18l25 148q-158 16 -235 126t-48 271l60 334q29 152 140 251q112 99 275 107l27 156q4 14 19 14h45q16 0 14 -16l-27 -154q150 -12 273 -106q12 -8 2 -23l-39 -51q-10 -10 -23 -2q-115 88 -256 88t-230 -75t-112 -195l-61 -336q-23 -135 42 -216
t217 -81t290 106q12 12 24 -4l31 -57q6 -14 -6 -23q-158 -115 -344 -118l-25 -146q0 -16 -18 -16z" />
    <glyph glyph-name="sterling" unicode="&#xa3;" horiz-adv-x="1034" 
d="M840 0h-813q-18 0 -15 18l8 56q0 12 19 16q139 25 174 232l70 397h-129q-18 0 -15 16l13 66q2 14 18 14h129l53 305q27 158 143 262q115 104 289 104t281 -126q8 -10 0 -25l-41 -43q-10 -12 -23 0q-88 100 -223 100t-218 -81q-83 -82 -103 -199l-51 -297h391q20 0 14 -16
l-10 -66q-2 -14 -19 -14h-393l-72 -406q-29 -164 -124 -217h661q18 0 14 -18l-10 -62q-4 -16 -18 -16z" />
    <glyph glyph-name="currency" unicode="&#xa4;" horiz-adv-x="1251" 
d="M586 305q166 0 294 114t156 290q29 177 -57 289t-251 112q-166 0 -292 -114t-157 -293q-31 -178 55 -288t252 -110zM576 213q-176 0 -287 106l-119 -104q-12 -12 -23 2l-38 43q-8 12 4 25l120 106q-80 129 -46 321t155 314l-80 98q-12 10 2 25l51 45q12 14 23 0l82 -100
q143 104 323 104t283 -108l121 106q10 14 22 -2l39 -43q8 -12 -4 -25l-121 -108q80 -134 46 -320t-156 -313l82 -98q8 -10 -2 -25l-52 -47q-14 -12 -24 2l-80 102q-145 -106 -321 -106z" />
    <glyph glyph-name="yen" unicode="&#xa5;" horiz-adv-x="1148" 
d="M518 0h-78q-18 0 -12 18l49 285h-250q-20 0 -16 16l10 58q2 14 19 14h254l28 158h-252q-20 0 -16 18l10 58q4 14 19 14h215l-287 805q-6 20 12 20h84q14 0 17 -14l268 -786h2l536 790q6 10 19 10h90q10 0 13 -6t-3 -14l-561 -805h211q18 0 14 -18l-10 -56q-4 -16 -18 -16
h-250l-29 -158h250q18 0 14 -16l-10 -58q-2 -14 -18 -14h-252l-51 -287q-5 -16 -21 -16z" />
    <glyph glyph-name="brokenbar" unicode="&#xa6;" horiz-adv-x="454" 
d="M121 -285h-70q-18 0 -14 19l147 839q4 16 19 17h69q18 0 15 -19l-148 -839q0 -17 -18 -17zM328 889h-70q-20 0 -14 18l147 840q4 16 19 16h69q20 0 15 -18l-148 -840q-4 -16 -18 -16z" />
    <glyph glyph-name="section" unicode="&#xa7;" horiz-adv-x="970" 
d="M221 604q-17 -119 51 -175t271 -130q83 9 149 71t78 132t0 115q-12 44 -55 82t-85 62t-128 66q-106 -8 -187 -69q-80 -62 -94 -154zM340 -377q-209 0 -330 182q-6 14 4 25l47 49q12 12 25 -2q100 -150 262 -149q111 0 192 64t100 187q19 122 -92 192q-50 32 -163 80
t-173 95q-123 96 -93 268q18 106 97 180t196 97q-174 117 -142 313q20 127 129 205t253 78t274 -96q14 -10 2 -23l-43 -51q-8 -10 -23 -4q-96 73 -210 73t-190 -57q-75 -57 -86 -133q-12 -76 14 -129t74 -88t158 -93t166 -111q117 -108 84 -273q-16 -92 -79 -161t-160 -101
q137 -100 106 -293q-23 -145 -131 -235q-109 -89 -268 -89z" />
    <glyph glyph-name="dieresis" unicode="&#xa8;" horiz-adv-x="503" 
d="M569 1276q-72 0 -59 76q4 31 26 48t54 17q32 1 47 -21q16 -22 10 -57q-14 -63 -78 -63zM204 1276q-32 0 -48 20t-10 54t27 50q21 17 53 17q32 1 48 -21t11 -54q-6 -32 -28 -49q-21 -17 -53 -17z" />
    <glyph glyph-name="copyright" unicode="&#xa9;" horiz-adv-x="1640" 
d="M803 391q90 0 223 88q12 10 23 -6l18 -39q4 -16 -4 -22q-113 -102 -272 -103q-121 2 -189 79t-47 196l49 280q20 117 112 190t208 72q143 2 227 -104q8 -12 -2 -25l-33 -34q-14 -14 -24 2q-64 84 -164 82q-100 -1 -162 -55t-78 -136l-49 -278q-14 -80 30 -134t134 -53z
M977 1423q-277 0 -493 -187t-271 -513t97 -504t428 -178q275 0 490 181q214 181 269 497q55 338 -94 521q-150 183 -426 183zM732 -23q-302 0 -473 203t-109 547q57 350 292 555q236 205 539 205t471 -210t110 -558t-292 -545q-236 -197 -538 -197z" />
    <glyph glyph-name="guillemotleft" unicode="&#xab;" horiz-adv-x="993" 
d="M823 145h-82q-12 0 -20 13l-201 428q-8 12 2 22l352 428q6 10 21 11h84q10 -1 13 -7t-3 -14l-358 -432l205 -428q5 -21 -13 -21zM401 145h-82q-12 0 -20 13l-201 428q-8 12 2 22l353 428q6 10 20 11h84q10 -1 13 -7t-3 -14l-358 -432l205 -428q5 -21 -13 -21z" />
    <glyph glyph-name="logicalnot" unicode="&#xac;" horiz-adv-x="1150" 
d="M956 412h-69q-18 0 -15 18l54 303h-727q-18 0 -15 17l13 67q0 16 18 17h813q20 0 14 -19l-67 -387q-1 -16 -19 -16z" />
    <glyph glyph-name="registered" unicode="&#xae;" horiz-adv-x="1030" 
d="M627 1073q96 0 106 78q12 78 -74 78h-104l-27 -156h99zM479 864h-22q-14 0 -13 15l68 385q4 14 14 14h138q63 0 96 -36q34 -36 24 -93q-19 -112 -137 -121l86 -151q6 -12 -8 -13h-33q-8 0 -14 8l-86 154h-74l-24 -149q-1 -13 -15 -13zM544 684q156 0 274 101t149 279
t-53 274q-84 98 -238 98q-156 0 -274 -100t-150 -275q-31 -177 53 -277t239 -100zM679 1487q173 -1 273 -119t64 -314q-35 -196 -169 -308q-133 -112 -309 -112t-274 121q-98 120 -64 312t170 306t309 114z" />
    <glyph glyph-name="macron" unicode="&#xaf;" horiz-adv-x="526" 
d="M172 1362h479q20 0 15 -19l-11 -57q-2 -14 -18 -14h-479q-19 0 -15 16l11 58q4 16 18 16z" />
    <glyph glyph-name="degree" unicode="&#xb0;" horiz-adv-x="669" 
d="M425 1059q73 0 127 46t67 131t-22 130q-36 45 -108 45t-127 -46t-70 -131q-16 -85 22 -130t111 -45zM498 1487q106 -1 162 -73t37 -186t-97 -180t-185 -65q-107 0 -164 73q-56 74 -36 188t98 178q79 64 185 65z" />
    <glyph glyph-name="plusminus" unicode="&#xb1;" horiz-adv-x="1150" 
d="M918 129h-816q-14 0 -14 16l12 68q4 16 19 16h815q14 0 14 -18l-12 -68q0 -14 -18 -14zM582 369h-70q-20 0 -16 16l63 363h-350q-20 0 -14 16l12 70q2 14 18 14h353l63 362q4 16 21 17h69q18 0 14 -17l-63 -362h352q18 0 17 -19l-13 -67q-2 -14 -18 -14h-354l-66 -365
q-4 -14 -18 -14z" />
    <glyph glyph-name="two.sups" unicode="&#xb2;" horiz-adv-x="620" 
d="M600 838h-467q-18 0 -16 18l6 39q2 8 12 18l217 197q145 131 206 200q60 69 70 131t-25 96q-33 34 -117 34t-191 -94q-14 -12 -25 4l-18 35q-6 12 4 22q123 106 242 106t169 -62q51 -64 37 -146t-82 -165t-219 -218l-157 -142h366q18 0 17 -18l-8 -39q-5 -16 -21 -16z
" />
    <glyph glyph-name="three.sups" unicode="&#xb3;" horiz-adv-x="630" 
d="M369 829q-164 0 -238 115q-4 12 4 25l27 26q12 10 24 -2q63 -90 191 -90q78 0 137 55q58 56 72 132t-24 122t-118 45q-35 0 -65 -4t-31 13l-4 24q0 10 8 19l183 174q39 37 92 78h-346q-18 0 -15 18l8 39q4 16 21 16h436q18 0 14 -16l-4 -25q-2 -4 -12 -20l-287 -260
q31 0 50 -2q88 -4 138 -69q50 -64 32 -168t-100 -174t-193 -71z" />
    <glyph glyph-name="acute" unicode="&#xb4;" horiz-adv-x="374" 
d="M215 1225h-57q-10 0 -14 6q-3 6 3 14l213 275q4 10 21 10h82q25 0 8 -21l-235 -274q-7 -10 -21 -10z" />
    <glyph glyph-name="paragraph" unicode="&#xb6;" horiz-adv-x="1218" 
d="M393 -285h-69q-16 0 -15 19l162 913q-180 0 -266 121t-53 293q29 172 157 288q129 116 320 115h551q16 0 14 -18l-299 -1714q-4 -16 -18 -17h-70q-16 0 -14 19l282 1624h-379l-284 -1626q-1 -17 -19 -17z" />
    <glyph glyph-name="periodcentered" unicode="&#xb7;" horiz-adv-x="425" 
d="M309 618q-12 -76 -88 -75q-37 -1 -57 25t-14 62q12 75 88 77q39 0 59 -25t12 -64z" />
    <glyph glyph-name="cedilla" unicode="&#xb8;" horiz-adv-x="339" 
d="M-25 -418q-61 0 -118 21q-12 4 -13 18l4 37q0 16 19 12q47 -16 103 -16t100 27q43 27 50 73t-23 64q-29 20 -75 21t-52 9t3 21l68 125q4 12 20 12h39q23 0 13 -20l-60 -99q80 -1 123 -41t31 -108q-29 -156 -232 -156z" />
    <glyph glyph-name="one.sups" unicode="&#xb9;" horiz-adv-x="393" 
d="M319 840h-40q-16 0 -15 18l121 682l-137 -86q-12 -10 -23 4l-16 33q-10 16 6 25l180 112q12 6 21 6h45q18 0 14 -18l-135 -760q-5 -16 -21 -16z" />
    <glyph glyph-name="guillemotright" unicode="&#xbb;" horiz-adv-x="983" 
d="M614 1047h82q12 0 21 -13l201 -428q8 -12 -3 -22l-352 -428q-6 -10 -20 -11h-84q-9 1 -13 7t3 14l358 432l-205 428q-6 21 12 21zM193 1047h81q12 0 21 -13l201 -428q8 -12 -2 -22l-353 -428q-6 -10 -20 -11h-84q-10 1 -13 7t3 14l358 432l-205 428q-5 21 13 21z" />
    <glyph glyph-name="onequarter" unicode="&#xbc;" horiz-adv-x="1640" 
d="M1522 262q18 0 14 -18l-8 -39q-2 -16 -21 -17h-57l-33 -172q0 -16 -18 -16h-43q-16 0 -15 18l31 170h-350q-16 0 -16 19l4 31l10 20l369 526q4 10 20 11h51q10 -1 14 -7t-4 -14l-358 -512h274l31 178q0 16 19 17h43q16 0 14 -19l-29 -176h58zM147 0h-49q-10 0 -13 6t3 14
l1233 1434q6 10 20 10h48q10 0 13 -6t-3 -14l-1231 -1434q-8 -10 -21 -10zM315 670h-41q-16 0 -14 18l119 682l-135 -86q-12 -10 -23 4l-16 33q-10 16 6 25l180 112q10 6 21 6h45q18 0 14 -18l-135 -760q-5 -16 -21 -16z" />
    <glyph glyph-name="onehalf" unicode="&#xbd;" horiz-adv-x="1648" 
d="M1464 -2h-469q-16 0 -14 18l6 39q2 12 12 19l218 196q143 129 203 199t70 132t-23 96t-119 34t-189 -94q-14 -12 -24 4l-19 35q-6 14 4 22q123 106 242 106t169 -62q50 -64 37 -146t-82 -164t-220 -219l-156 -141h365q23 0 16 -19l-8 -39q-5 -16 -19 -16zM150 0h-50
q-10 0 -13 6t3 14l1233 1434q4 10 20 10h48q10 0 13 -6t-3 -14l-1231 -1434q-8 -10 -20 -10zM313 670h-41q-18 0 -14 18l119 682l-135 -86q-12 -10 -23 4l-16 33q-10 16 6 25l180 112q8 6 21 6h45q16 0 14 -18l-135 -760q-5 -16 -21 -16z" />
    <glyph glyph-name="threequarters" unicode="&#xbe;" horiz-adv-x="1810" 
d="M1692 262q18 0 14 -18l-8 -39q-2 -16 -21 -17h-57l-33 -172q0 -16 -18 -16h-43q-18 0 -15 18l31 170h-350q-16 0 -16 19l4 31l10 20l369 526q6 10 20 11h51q10 -1 14 -7t-4 -14l-358 -512h274l31 178q0 16 19 17h43q18 0 14 -19l-29 -176h58zM348 0h-49q-10 0 -13 6t3 14
l1233 1434q6 10 20 10h47q10 0 14 -6q2 -6 -4 -14l-1230 -1434q-8 -10 -21 -10zM360 659q-162 0 -239 117q-6 12 4 23l27 26q12 12 24 -2q66 -88 191 -88q80 1 138 55q57 54 71 130t-23 122t-101 48q-64 0 -88 -6t-26 12l-2 24q-4 12 6 19l184 174q37 35 90 80h-344
q-20 0 -14 16l8 41q2 14 19 14h436q20 0 14 -16l-4 -25q-2 -12 -12 -18l-285 -262q23 4 47 0q90 -6 140 -71q50 -66 31 -168t-99 -174t-193 -71z" />
    <glyph glyph-name="questiondown" unicode="&#xbf;" horiz-adv-x="921" 
d="M569 911q-37 1 -57 25t-14 63q13 76 89 76q36 1 55 -25t13 -65q-14 -74 -86 -74zM500 739h71q20 0 17 -16l-25 -135q-16 -86 -67 -152q-50 -66 -112 -108t-124 -87q-148 -104 -178 -268q-20 -121 38 -207t225 -85q167 0 337 145q12 12 23 -4l28 -53q6 -14 -4 -25
q-188 -162 -412 -162q-180 0 -274 115t-61 291q18 102 69 179t113 123t124 88q148 103 173 236l20 111q1 14 19 14z" />
    <glyph glyph-name="Agrave" unicode="&#xc0;" horiz-adv-x="1167" 
d="M838 1612h-60q-14 0 -20 10l-170 274q-10 20 10 21h84q14 0 20 -12l148 -273q11 -20 -12 -20zM731 1335h-4l-410 -805h545zM1044 0h-79q-16 0 -21 16l-65 412h-611l-215 -416q-4 -12 -20 -12h-88q-23 0 -13 20l744 1432q6 12 20 12h101q18 0 18 -16l246 -1430
q3 -18 -17 -18z" />
    <glyph glyph-name="Aacute" unicode="&#xc1;" horiz-adv-x="1167" 
d="M774 1612h-65q-10 0 -14 6q-3 6 5 14l263 277q8 8 22 8h92q11 0 15 -6t-5 -15l-290 -276q-9 -8 -23 -8zM731 1335h-4l-410 -805h545zM1044 0h-79q-16 0 -21 16l-65 412h-611l-215 -416q-4 -12 -20 -12h-88q-23 0 -13 20l744 1432q6 12 20 12h101q18 0 18 -16l246 -1430
q3 -18 -17 -18z" />
    <glyph glyph-name="Acircumflex" unicode="&#xc2;" horiz-adv-x="1167" 
d="M557 1612h-80q-10 0 -13 6t5 14l291 277q6 8 20 8h70q14 0 20 -10l199 -275q12 -20 -10 -20h-76q-14 0 -20 10l-156 217l-227 -219q-9 -8 -23 -8zM731 1335h-4l-410 -805h545zM1044 0h-79q-16 0 -21 16l-65 412h-611l-215 -416q-4 -12 -20 -12h-88q-23 0 -13 20l744 1432
q6 12 20 12h101q18 0 18 -16l246 -1430q3 -18 -17 -18z" />
    <glyph glyph-name="Atilde" unicode="&#xc3;" horiz-adv-x="1167" 
d="M927 1659q-52 0 -136 43t-119 43q-59 0 -97 -66q-10 -16 -22 -6l-39 25q-14 10 -4 22q25 49 69 82t98 33t135 -43t118 -43q57 0 94 66q8 12 25 4l36 -25q17 -8 7 -20q-25 -47 -69 -81t-96 -34zM731 1335h-4l-410 -805h545zM1044 0h-79q-16 0 -21 16l-65 412h-611
l-215 -416q-4 -12 -20 -12h-88q-23 0 -13 20l744 1432q6 12 20 12h101q18 0 18 -16l246 -1430q3 -18 -17 -18z" />
    <glyph glyph-name="Adieresis" unicode="&#xc4;" horiz-adv-x="1167" 
d="M1006 1800q33 0 49 -22t10 -54q-10 -70 -78 -69q-35 1 -50 23t-11 53t25 50q22 19 55 19zM680 1724q-10 -70 -78 -69q-35 1 -51 23t-12 53q14 70 79 69q71 0 62 -76zM731 1335h-4l-410 -805h545zM1044 0h-79q-16 0 -21 16l-65 412h-611l-215 -416q-4 -12 -20 -12h-88
q-23 0 -13 20l744 1432q6 12 20 12h101q18 0 18 -16l246 -1430q3 -18 -17 -18z" />
    <glyph glyph-name="Aring" unicode="&#xc5;" horiz-adv-x="1167" 
d="M773 1622q58 0 100 36t53 93q10 57 -18 92t-87 35t-103 -36t-54 -94t20 -92t89 -34zM672 1896q66 54 156 54t138 -58t33 -148q-16 -89 -79 -140q-62 -52 -152 -52t-140 58t-36 145q14 88 80 141zM731 1335h-4l-410 -805h545zM1044 0h-79q-16 0 -21 16l-65 412h-611
l-215 -416q-4 -12 -20 -12h-88q-23 0 -13 20l744 1432q6 12 20 12h101q18 0 18 -16l246 -1430q3 -18 -17 -18z" />
    <glyph glyph-name="AE" unicode="&#xc6;" horiz-adv-x="1705" 
d="M406 528h425l148 832h-4zM1718 1364h-628l-99 -567h592q14 0 14 -19l-12 -67q0 -16 -18 -17h-594l-103 -592h641q16 0 17 -18l-12 -68q-4 -16 -19 -16h-741q-20 0 -15 18l72 408h-475l-287 -416q-6 -10 -18 -10h-96q-25 0 -13 20l998 1434q4 10 20 10h793q14 0 14 -18
l-12 -68q0 -14 -19 -14z" />
    <glyph glyph-name="Ccedilla" unicode="&#xc7;" horiz-adv-x="1132" 
d="M444 -420q-68 0 -116 21q-16 4 -13 18l4 37q0 18 19 14q47 -16 96 -16q139 0 156 96q10 46 -20 66t-109 22q-14 0 -21 10q-4 8 2 19l60 110q-205 9 -307 151t-64 359l92 521q39 225 191 352t378 127t388 -150q12 -8 2 -22l-52 -60q-12 -12 -24 -2q-140 129 -326 129
t-301 -105t-145 -284l-90 -514q-31 -179 48 -287t259 -108q219 0 405 149q14 14 25 -4l33 -63q10 -17 -4 -23q-195 -150 -430 -163l-54 -95q80 -2 123 -42t31 -109q-25 -154 -236 -154z" />
    <glyph glyph-name="Egrave" unicode="&#xc8;" horiz-adv-x="1112" 
d="M825 1612h-59q-14 0 -21 10l-170 274q-10 20 11 21h84q14 0 20 -12l148 -273q10 -20 -13 -20zM1122 1362h-676l-98 -563h637q18 0 14 -17l-12 -69q0 -16 -18 -17h-637l-105 -592h695q14 0 14 -18l-10 -70q-4 -16 -21 -16h-792q-18 0 -15 18l252 1430q0 16 19 16h770
q14 0 14 -18l-12 -68q0 -16 -19 -16z" />
    <glyph glyph-name="Eacute" unicode="&#xc9;" horiz-adv-x="1112" 
d="M741 1612h-65q-10 0 -13 6t5 14l262 277q8 8 22 8h92q10 0 14 -6t-3 -15l-291 -276q-9 -8 -23 -8zM1122 1362h-676l-98 -563h637q18 0 14 -17l-12 -69q0 -16 -18 -17h-637l-105 -592h695q14 0 14 -18l-10 -70q-4 -16 -21 -16h-792q-18 0 -15 18l252 1430q0 16 19 16h770
q14 0 14 -18l-12 -68q0 -16 -19 -16z" />
    <glyph glyph-name="Ecircumflex" unicode="&#xca;" horiz-adv-x="1112" 
d="M563 1612h-80q-10 0 -13 6t5 14l291 277q6 8 20 8h70q14 0 21 -10l198 -275q12 -20 -10 -20h-76q-14 0 -20 10l-156 217l-227 -219q-9 -8 -23 -8zM1122 1362h-676l-98 -563h637q18 0 14 -17l-12 -69q0 -16 -18 -17h-637l-105 -592h695q14 0 14 -18l-10 -70
q-4 -16 -21 -16h-792q-18 0 -15 18l252 1430q0 16 19 16h770q14 0 14 -18l-12 -68q0 -16 -19 -16z" />
    <glyph glyph-name="Edieresis" unicode="&#xcb;" horiz-adv-x="1112" 
d="M1006 1800q33 0 49 -22t10 -54q-10 -70 -78 -69q-35 1 -50 23t-11 53t25 50q22 19 55 19zM680 1724q-10 -70 -78 -69q-35 1 -51 23t-12 53q14 70 79 69q71 0 62 -76zM1122 1362h-676l-98 -563h637q18 0 14 -17l-12 -69q0 -16 -18 -17h-637l-105 -592h695q14 0 14 -18
l-10 -70q-4 -16 -21 -16h-792q-18 0 -15 18l252 1430q0 16 19 16h770q14 0 14 -18l-12 -68q0 -16 -19 -16z" />
    <glyph glyph-name="Igrave" unicode="&#xcc;" horiz-adv-x="485" 
d="M498 1612h-60q-14 0 -20 10l-170 274q-10 20 10 21h84q14 0 20 -12l148 -273q11 -20 -12 -20zM193 0h-80q-18 0 -15 18l252 1430q4 16 21 16h78q18 0 14 -18l-252 -1430q0 -16 -18 -16z" />
    <glyph glyph-name="Iacute" unicode="&#xcd;" horiz-adv-x="485" 
d="M434 1612h-65q-10 0 -14 6q-3 6 5 14l263 277q8 8 22 8h92q11 0 15 -6t-4 -15l-291 -276q-9 -8 -23 -8zM193 0h-80q-18 0 -15 18l252 1430q4 16 21 16h78q18 0 14 -18l-252 -1430q0 -16 -18 -16z" />
    <glyph glyph-name="Icircumflex" unicode="&#xce;" horiz-adv-x="485" 
d="M193 0h-80q-18 0 -15 18l252 1430q4 16 21 16h78q18 0 14 -18l-252 -1430q0 -16 -18 -16zM225 1612h-75q-10 0 -14 6q-3 6 3 14l293 293q8 8 23 8h67q14 0 21 -10l188 -291q12 -20 -12 -20h-76q-14 0 -20 12l-146 227l-229 -231q-9 -8 -23 -8z" />
    <glyph glyph-name="Idieresis" unicode="&#xcf;" horiz-adv-x="483" 
d="M618 1675q-35 0 -51 23q-16 24 -11 54t27 49q21 19 53 19t48 -20q16 -22 12 -55q-10 -70 -78 -70zM287 1675q-35 0 -51 23q-16 24 -12 54t25 49t55 19t50 -20q16 -22 11 -55q-10 -70 -78 -70zM190 0h-77q-18 0 -15 18l252 1430q0 16 19 16h77q21 0 17 -18l-254 -1430
q0 -16 -19 -16z" />
    <glyph glyph-name="Eth" unicode="&#xd0;" horiz-adv-x="1310" 
d="M723 807q16 0 12 -19l-8 -49q0 -16 -18 -16h-365l-108 -621h366q182 0 302 106t153 302l78 442q33 201 -46 305t-260 105h-372l-99 -555h365zM377 1464h465q227 0 338 -141t67 -381l-78 -444q-41 -240 -189 -369t-388 -129h-469q-20 0 -14 18l122 705h-153q-18 0 -15 18
l9 50q4 16 18 16h156l112 641q1 16 19 16z" />
    <glyph glyph-name="Ntilde" unicode="&#xd1;" horiz-adv-x="1380" 
d="M1021 1659q-52 0 -136 43t-119 43q-59 0 -96 -66q-10 -16 -23 -6l-39 25q-14 10 -4 22q25 49 69 82t98 33t134 -43t128 -43t85 66q8 12 25 4l37 -25q16 -8 6 -20q-25 -47 -69 -81t-96 -34zM193 0h-80q-18 0 -15 18l252 1430q0 16 19 16h92q14 0 20 -12l541 -1282h4
q74 467 92 565l125 713q4 16 21 16h77q18 0 15 -18l-250 -1430q-4 -16 -21 -16h-92q-12 0 -18 12l-395 906q-68 156 -148 364h-4q-33 -225 -88 -526l-129 -740q0 -16 -18 -16z" />
    <glyph glyph-name="Ograve" unicode="&#xd2;" horiz-adv-x="1320" 
d="M922 1612h-60q-14 0 -20 10l-170 274q-10 20 10 21h84q14 0 20 -12l148 -273q11 -20 -12 -20zM582 82q186 0 319 112t164 287l86 492q31 180 -60 295q-91 114 -281 114t-320 -112t-160 -295l-86 -486q-31 -175 61 -291q91 -116 277 -116zM826 1487q242 -1 359 -149
q118 -148 79 -375l-86 -490q-37 -221 -203 -358t-407 -137q-242 0 -358 146q-116 148 -77 378l82 483q41 227 205 365t406 137z" />
    <glyph glyph-name="Oacute" unicode="&#xd3;" horiz-adv-x="1320" 
d="M825 1612h-65q-10 0 -14 6q-3 6 6 14l262 277q8 8 22 8h92q10 0 14 -6t-3 -15l-291 -276q-9 -8 -23 -8zM582 82q186 0 319 112t164 287l86 492q31 180 -60 295q-91 114 -281 114t-320 -112t-160 -295l-86 -486q-31 -175 61 -291q91 -116 277 -116zM826 1487
q242 -1 359 -149q118 -148 79 -375l-86 -490q-37 -221 -203 -358t-407 -137q-242 0 -358 146q-116 148 -77 378l82 483q41 227 205 365t406 137z" />
    <glyph glyph-name="Ocircumflex" unicode="&#xd4;" horiz-adv-x="1320" 
d="M635 1612h-80q-10 0 -13 6t5 14l291 277q6 8 20 8h70q14 0 20 -10l199 -275q12 -20 -10 -20h-76q-14 0 -21 10l-155 217l-228 -219q-8 -8 -22 -8zM582 82q186 0 319 112t164 287l86 492q31 180 -60 295q-91 114 -281 114t-320 -112t-160 -295l-86 -486q-31 -175 61 -291
q91 -116 277 -116zM826 1487q242 -1 359 -149q118 -148 79 -375l-86 -490q-37 -221 -203 -358t-407 -137q-242 0 -358 146q-116 148 -77 378l82 483q41 227 205 365t406 137z" />
    <glyph glyph-name="Otilde" unicode="&#xd5;" horiz-adv-x="1320" 
d="M1005 1659q-53 0 -137 43t-118 43q-59 0 -97 -66q-10 -16 -22 -6l-39 25q-14 10 -4 22q25 49 68 82q44 33 98 33t135 -43q80 -43 128 -43t85 66q8 12 24 4l37 -25q16 -8 6 -20q-25 -47 -69 -81t-95 -34zM582 82q186 0 319 112t164 287l86 492q31 180 -60 295
q-91 114 -281 114t-320 -112t-160 -295l-86 -486q-31 -175 61 -291q91 -116 277 -116zM826 1487q242 -1 359 -149q118 -148 79 -375l-86 -490q-37 -221 -203 -358t-407 -137q-242 0 -358 146q-116 148 -77 378l82 483q41 227 205 365t406 137z" />
    <glyph glyph-name="Odieresis" unicode="&#xd6;" horiz-adv-x="1320" 
d="M1084 1800q32 0 49 -22q16 -23 10 -54q-10 -70 -78 -69q-35 1 -50 23t-11 53t25 50q23 19 55 19zM758 1724q-10 -70 -78 -69q-35 1 -51 23t-13 53q14 70 80 69q34 0 50 -22t12 -54zM582 82q186 0 319 112t164 287l86 492q31 180 -60 295q-91 114 -281 114t-320 -112
t-160 -295l-86 -486q-31 -175 61 -291q91 -116 277 -116zM826 1487q242 -1 359 -149q118 -148 79 -375l-86 -490q-37 -221 -203 -358t-407 -137q-242 0 -358 146q-116 148 -77 378l82 483q41 227 205 365t406 137z" />
    <glyph glyph-name="multiply" unicode="&#xd7;" horiz-adv-x="1150" 
d="M1026 1104l45 -49q8 -14 -2 -25l-397 -354l272 -344q8 -14 -2 -25l-53 -45q-12 -14 -23 0l-272 346l-393 -350q-14 -10 -25 2l-45 49q-8 10 2 25l397 352l-272 346q-8 14 2 25l53 45q14 12 25 0l270 -346l393 350q15 10 25 -2z" />
    <glyph glyph-name="Oslash" unicode="&#xd8;" horiz-adv-x="1323" 
d="M815 1382q-193 0 -323 -112t-162 -295l-84 -486q-29 -160 45 -270l747 1100q-88 63 -223 63zM580 82q190 0 323 112t162 287l88 492q29 170 -51 280l-750 -1101q92 -70 228 -70zM166 -104h-70q-25 0 -10 20l135 199q-129 147 -88 387l84 483q41 227 205 365t405 137
q166 0 275 -74l98 146q10 10 21 10h71q10 0 14 -6t-3 -15l-132 -192q135 -150 93 -393l-84 -490q-37 -221 -204 -358t-409 -138q-168 0 -280 78l-101 -149q-6 -10 -20 -10z" />
    <glyph glyph-name="Ugrave" unicode="&#xd9;" horiz-adv-x="1335" 
d="M922 1612h-60q-14 0 -20 10l-170 274q-10 20 10 21h84q14 0 20 -12l148 -273q11 -20 -12 -20zM356 1464h82q16 0 15 -18l-172 -967q-31 -177 55 -287t256 -110t293 108t153 281l170 977q4 16 19 16h80q20 0 16 -18l-174 -987q-37 -213 -194 -347t-376 -134t-333 146
t-76 368l168 956q4 16 18 16z" />
    <glyph glyph-name="Uacute" unicode="&#xda;" horiz-adv-x="1335" 
d="M834 1612h-66q-10 0 -13 6t5 14l262 277q8 8 22 8h93q10 0 14 -6t-4 -15l-291 -276q-8 -8 -22 -8zM356 1464h82q16 0 15 -18l-172 -967q-31 -177 55 -287t256 -110t293 108t153 281l170 977q4 16 19 16h80q20 0 16 -18l-174 -987q-37 -213 -194 -347t-376 -134t-333 146
t-76 368l168 956q4 16 18 16z" />
    <glyph glyph-name="Ucircumflex" unicode="&#xdb;" horiz-adv-x="1335" 
d="M641 1612h-80q-10 0 -13 6t5 14l291 277q6 8 20 8h70q14 0 20 -10l199 -275q12 -20 -10 -20h-76q-14 0 -20 10l-156 217l-227 -219q-9 -8 -23 -8zM356 1464h82q16 0 15 -18l-172 -967q-31 -177 55 -287t256 -110t293 108t153 281l170 977q4 16 19 16h80q20 0 16 -18
l-174 -987q-37 -213 -194 -347t-376 -134t-333 146t-76 368l168 956q4 16 18 16z" />
    <glyph glyph-name="Udieresis" unicode="&#xdc;" horiz-adv-x="1335" 
d="M1090 1800q32 0 49 -22q16 -23 10 -54q-10 -70 -78 -69q-35 1 -50 23t-11 53t25 50q23 19 55 19zM764 1724q-10 -70 -78 -69q-35 1 -51 23t-12 53q14 70 79 69q71 0 62 -76zM356 1464h82q16 0 15 -18l-172 -967q-31 -177 55 -287t256 -110t293 108t153 281l170 977
q4 16 19 16h80q20 0 16 -18l-174 -987q-37 -213 -194 -347t-376 -134t-333 146t-76 368l168 956q4 16 18 16z" />
    <glyph glyph-name="Yacute" unicode="&#xdd;" horiz-adv-x="1064" 
d="M698 1612h-65q-10 0 -13 6t5 14l262 277q8 8 22 8h92q11 0 15 -6t-4 -15l-291 -276q-9 -8 -23 -8zM481 0h-80q-20 0 -14 18l96 549l-311 877q-6 20 12 20h86q14 0 17 -14l268 -778h2l530 782q6 10 19 10h94q25 0 12 -20l-612 -877l-100 -551q-1 -16 -19 -16z" />
    <glyph glyph-name="Thorn" unicode="&#xde;" horiz-adv-x="1202" 
d="M567 408q397 0 457 348q31 176 -48 268t-267 92h-306l-122 -708h286zM727 1219q233 1 341 -131t71 -343q-80 -440 -584 -440h-293l-51 -289q-4 -16 -18 -16h-80q-18 0 -15 18l252 1430q0 16 19 16h77q20 0 17 -18l-41 -227h305z" />
    <glyph glyph-name="germandbls" unicode="&#xdf;" horiz-adv-x="1083" 
d="M702 1487q182 0 272 -113t56 -307q-39 -227 -244 -301q117 -37 162 -136t19 -235q-35 -195 -166 -300t-322 -105q-111 0 -205 41q-10 2 -10 20l10 60q4 18 21 12q94 -37 180 -37q156 0 258 84t127 230q26 146 -32 229q-58 84 -214 84h-196q-16 0 -15 18l11 62q0 16 18 16
h191q131 0 207 80q76 79 100 209q22 130 -38 210t-196 81q-289 0 -348 -340l-182 -1033q-4 -16 -21 -16h-73q-18 0 -15 18l185 1041q38 209 158 319t302 109z" />
    <glyph glyph-name="agrave" unicode="&#xe0;" horiz-adv-x="1009" 
d="M659 1225h-55q-12 0 -20 12l-127 272q-10 20 12 21h76q14 0 20 -12l107 -273q8 -20 -13 -20zM482 539q-138 -1 -228 -55t-112 -164q-20 -110 52 -177t219 -67q148 0 285 51l68 377q-146 35 -284 35zM400 -23q-185 -1 -289 99q-105 100 -75 254t151 230q122 75 289 75
t306 -35l19 111q51 270 -240 270q-168 0 -317 -88q-16 -12 -21 6l-24 55q-6 12 4 23q165 100 365 100t286 -103t55 -272l-110 -630q-3 -11 -15 -19q-199 -76 -384 -76z" />
    <glyph glyph-name="aacute" unicode="&#xe1;" horiz-adv-x="1009" 
d="M584 1225h-58q-10 0 -13 6t3 14l213 275q4 10 21 10h81q25 0 9 -21l-236 -274q-6 -10 -20 -10zM482 539q-138 -1 -228 -55t-112 -164q-20 -110 52 -177t219 -67q148 0 285 51l68 377q-146 35 -284 35zM400 -23q-185 -1 -289 99q-105 100 -75 254t151 230q122 75 289 75
t306 -35l19 111q51 270 -240 270q-168 0 -317 -88q-16 -12 -21 6l-24 55q-6 12 4 23q165 100 365 100t286 -103t55 -272l-110 -630q-3 -11 -15 -19q-199 -76 -384 -76z" />
    <glyph glyph-name="acircumflex" unicode="&#xe2;" horiz-adv-x="1009" 
d="M887 1225h-68q-14 0 -20 12l-140 221l-223 -223q-10 -10 -22 -10h-74q-10 0 -13 6t5 14l280 277q6 8 21 8h67q13 0 21 -10l176 -275q10 -20 -10 -20zM482 539q-138 -1 -228 -55t-112 -164q-20 -110 52 -177t219 -67q148 0 285 51l68 377q-146 35 -284 35zM400 -23
q-185 -1 -289 99q-105 100 -75 254t151 230q122 75 289 75t306 -35l19 111q51 270 -240 270q-168 0 -317 -88q-16 -12 -21 6l-24 55q-6 12 4 23q165 100 365 100t286 -103t55 -272l-110 -630q-3 -11 -15 -19q-199 -76 -384 -76z" />
    <glyph glyph-name="atilde" unicode="&#xe3;" horiz-adv-x="1009" 
d="M756 1231q-53 0 -132 42t-118 42q-61 0 -98 -66q-8 -14 -23 -4l-39 25q-16 6 -6 22q68 113 170 113q55 0 134 -43t123 -43t87 65q10 14 25 7l36 -25q15 -10 9 -20q-68 -115 -168 -115zM482 539q-138 -1 -228 -55t-112 -164q-20 -110 52 -177t219 -67q148 0 285 51l68 377
q-146 35 -284 35zM400 -23q-185 -1 -289 99q-105 100 -75 254t151 230q122 75 289 75t306 -35l19 111q51 270 -240 270q-168 0 -317 -88q-16 -12 -21 6l-24 55q-6 12 4 23q165 100 365 100t286 -103t55 -272l-110 -630q-3 -11 -15 -19q-199 -76 -384 -76z" />
    <glyph glyph-name="adieresis" unicode="&#xe4;" horiz-adv-x="1009" 
d="M809 1276q-72 0 -59 76q8 65 78 65q32 0 49 -21q16 -22 10 -57q-14 -63 -78 -63zM443 1276q-32 0 -48 20t-10 56q13 65 81 65q32 1 48 -21t10 -54t-28 -49t-53 -17zM482 539q-138 -1 -228 -55t-112 -164q-20 -110 52 -177t219 -67q148 0 285 51l68 377q-146 35 -284 35z
M400 -23q-185 -1 -289 99q-105 100 -75 254t151 230q122 75 289 75t306 -35l19 111q51 270 -240 270q-168 0 -317 -88q-16 -12 -21 6l-24 55q-6 12 4 23q165 100 365 100t286 -103t55 -272l-110 -630q-3 -11 -15 -19q-199 -76 -384 -76z" />
    <glyph glyph-name="aring" unicode="&#xe5;" horiz-adv-x="1009" 
d="M665 1528q-59 0 -103 -37t-53 -94t23 -93t88 -36t98 36t52 93t-18 94q-29 37 -87 37zM610 1198q-86 0 -137 58t-36 146t80 141q65 52 153 52t137 -59t35 -146q-14 -88 -80 -140t-152 -52zM482 539q-138 -1 -228 -55t-112 -164q-20 -110 52 -177t219 -67q148 0 285 51
l68 377q-146 35 -284 35zM400 -23q-185 -1 -289 99q-105 100 -75 254t151 230q122 75 289 75t306 -35l19 111q51 270 -240 270q-168 0 -317 -88q-16 -12 -21 6l-24 55q-6 12 4 23q165 100 365 100t286 -103t55 -272l-110 -630q-3 -11 -15 -19q-199 -76 -384 -76z" />
    <glyph glyph-name="ae" unicode="&#xe6;" horiz-adv-x="1658" 
d="M1242 979q-136 0 -232 -83t-119 -214l-19 -98h603l16 90q29 143 -42 224t-207 81zM508 530q-326 0 -366 -210q-20 -110 52 -178q72 -67 214 -66q184 0 329 145q-18 76 -4 160l21 119q-123 31 -246 30zM406 -23q-195 -1 -296 101t-69 268q27 135 153 206t290 71t286 -31
l21 127q43 260 -230 260q-182 0 -325 -86q-16 -12 -23 6l-27 57q-6 14 9 23q172 98 374 98q268 0 305 -207q60 96 160 152t213 55q180 0 282 -112q101 -113 66 -293l-32 -166q-4 -16 -19 -17h-688l-18 -110q-23 -145 42 -224t199 -79q184 0 348 135q14 12 25 -4l29 -49
q6 -14 -4 -23q-82 -72 -192 -115t-214 -43q-193 0 -285 156q-86 -74 -173 -115t-207 -41z" />
    <glyph glyph-name="ccedilla" unicode="&#xe7;" horiz-adv-x="917" 
d="M324 -418q-61 0 -119 21q-12 4 -12 18l4 37q0 16 18 12q47 -16 103 -16t100 27q43 27 50 73t-23 64q-29 20 -75 21t-52 9t4 21l59 113q-164 14 -246 124t-51 275l61 336q29 162 151 261t297 99t316 -108q12 -8 2 -23l-39 -51q-10 -12 -24 -4q-113 90 -253 90t-230 -75
t-113 -195l-59 -338q-25 -135 41 -217t212 -82q148 0 295 108q12 10 23 -4l31 -57q5 -15 -7 -23q-147 -111 -333 -121l-54 -90q80 -2 123 -42t31 -107q-29 -156 -231 -156z" />
    <glyph glyph-name="egrave" unicode="&#xe8;" horiz-adv-x="1028" 
d="M682 1225h-55q-12 0 -21 12l-127 272q-10 20 13 21h75q15 0 21 -12l106 -273q8 -20 -12 -20zM604 981q-137 0 -232 -77t-120 -212l-25 -125h604l25 127q27 137 -44 212t-208 75zM616 1077q180 0 280 -104t65 -287l-37 -197q-4 -16 -19 -16h-694l-23 -119
q-28 -131 48 -206t208 -74q180 0 349 137q14 8 24 -4l33 -51q10 -16 -2 -23q-184 -156 -416 -156q-172 -1 -278 103t-72 278l61 342q33 178 163 278t310 99z" />
    <glyph glyph-name="eacute" unicode="&#xe9;" horiz-adv-x="1028" 
d="M621 1225h-58q-10 0 -13 6t3 14l213 275q4 10 20 10h82q25 0 9 -21l-236 -274q-6 -10 -20 -10zM604 981q-137 0 -232 -77t-120 -212l-25 -125h604l25 127q27 137 -44 212t-208 75zM616 1077q180 0 280 -104t65 -287l-37 -197q-4 -16 -19 -16h-694l-23 -119
q-28 -131 48 -206t208 -74q180 0 349 137q14 8 24 -4l33 -51q10 -16 -2 -23q-184 -156 -416 -156q-172 -1 -278 103t-72 278l61 342q33 178 163 278t310 99z" />
    <glyph glyph-name="ecircumflex" unicode="&#xea;" horiz-adv-x="1028" 
d="M924 1225h-68q-14 0 -20 12l-140 221l-223 -223q-10 -10 -22 -10h-74q-10 0 -13 6t5 14l280 277q6 8 21 8h67q13 0 21 -10l176 -275q10 -20 -10 -20zM604 981q-137 0 -232 -77t-120 -212l-25 -125h604l25 127q27 137 -44 212t-208 75zM616 1077q180 0 280 -104t65 -287
l-37 -197q-4 -16 -19 -16h-694l-23 -119q-28 -131 48 -206t208 -74q180 0 349 137q14 8 24 -4l33 -51q10 -16 -2 -23q-184 -156 -416 -156q-172 -1 -278 103t-72 278l61 342q33 178 163 278t310 99z" />
    <glyph glyph-name="edieresis" unicode="&#xeb;" horiz-adv-x="1028" 
d="M846 1276q-72 0 -60 76q4 31 26 48t54 17q32 1 48 -21t10 -57q-14 -63 -78 -63zM504 1417q32 1 47 -21q16 -22 10 -54q-5 -32 -27 -49t-54 -17t-48 20t-10 56q13 65 82 65zM604 981q-137 0 -232 -77t-120 -212l-25 -125h604l25 127q27 137 -44 212t-208 75zM616 1077
q180 0 280 -104t65 -287l-37 -197q-4 -16 -19 -16h-694l-23 -119q-28 -131 48 -206t208 -74q180 0 349 137q14 8 24 -4l33 -51q10 -16 -2 -23q-184 -156 -416 -156q-172 -1 -278 103t-72 278l61 342q33 178 163 278t310 99z" />
    <glyph glyph-name="igrave" unicode="&#xec;" horiz-adv-x="401" 
d="M358 1225h-55q-12 0 -20 12l-127 272q-10 20 12 21h76q14 0 20 -12l107 -273q8 -20 -13 -20zM145 0h-73q-18 0 -15 18l183 1020q0 16 18 17h74q16 0 14 -19l-182 -1020q-1 -16 -19 -16z" />
    <glyph glyph-name="iacute" unicode="&#xed;" horiz-adv-x="401" 
d="M317 1225h-57q-10 0 -13 6t3 14l213 275q4 10 20 10h82q25 0 8 -21l-235 -274q-7 -10 -21 -10zM145 0h-73q-18 0 -15 18l183 1020q0 16 18 17h74q16 0 14 -19l-182 -1020q-1 -16 -19 -16z" />
    <glyph glyph-name="icircumflex" unicode="&#xee;" horiz-adv-x="401" 
d="M141 1225h-69q-10 0 -14 6q-3 6 5 14l261 277q6 8 20 8h66q16 0 18 -10l160 -275q10 -20 -13 -20h-69q-14 0 -21 12l-120 219l-201 -221q-11 -10 -23 -10zM145 0h-73q-18 0 -15 18l183 1020q0 16 18 17h74q16 0 14 -19l-182 -1020q-1 -16 -19 -16z" />
    <glyph glyph-name="idieresis" unicode="&#xef;" horiz-adv-x="401" 
d="M496 1276q-72 0 -60 76q4 31 26 48t54 17q32 1 47 -21q16 -22 10 -57q-14 -63 -77 -63zM206 1417q30 1 46 -21t11 -54t-27 -49t-53 -17q-32 0 -48 20t-10 56q13 65 81 65zM145 0h-73q-18 0 -15 18l183 1020q0 16 18 17h74q16 0 14 -19l-182 -1020q-1 -16 -19 -16z" />
    <glyph glyph-name="eth" unicode="&#xf0;" horiz-adv-x="1075" 
d="M442 74q150 0 246 82t121 215l43 239q27 134 -39 224q-67 90 -215 90t-241 -82t-119 -217l-50 -263q-24 -132 40 -210t214 -78zM434 -23q-197 0 -290 112t-64 286l49 258q33 174 157 279t306 106q112 0 190 -46t115 -122q25 258 -113 399l-237 -159q-12 -8 -21 8l-16 30
q-12 16 0 25l215 145q-94 66 -248 101q-27 0 -18 22l12 62q4 12 16 10q207 -39 328 -133l191 129q10 6 22 -10l16 -31q8 -19 -2 -25l-172 -114q178 -195 111 -580l-63 -362q-31 -174 -159 -282t-325 -108z" />
    <glyph glyph-name="ntilde" unicode="&#xf1;" horiz-adv-x="1093" 
d="M801 1231q-53 0 -132 42t-118 42q-61 0 -98 -66q-8 -14 -23 -4l-39 25q-16 6 -6 22q68 113 170 113q55 0 134 -43t123 -43t87 65q10 14 25 7l37 -25q14 -10 8 -20q-68 -115 -168 -115zM141 0h-73q-18 0 -15 18l174 965q0 12 15 18q190 76 388 76q198 1 293 -113t56 -323
l-113 -625q0 -16 -18 -16h-72q-18 0 -16 18l112 631q61 332 -260 332q-141 0 -286 -53l-166 -912q-1 -16 -19 -16z" />
    <glyph glyph-name="ograve" unicode="&#xf2;" 
d="M698 1225h-55q-12 0 -20 12l-127 272q-10 20 12 21h76q14 0 20 -12l107 -273q8 -20 -13 -20zM442 76q148 0 243 83t120 216l55 307q24 129 -40 214t-210 85t-243 -83q-96 -83 -121 -212l-53 -305q-25 -137 38 -221t211 -84zM434 -23q-192 0 -287 119q-94 119 -63 293
l55 307q31 168 160 274t321 107q192 0 286 -118q93 -118 63 -287l-56 -305q-33 -174 -161 -282q-126 -108 -318 -108z" />
    <glyph glyph-name="oacute" unicode="&#xf3;" 
d="M627 1225h-58q-10 0 -13 6t3 14l213 275q6 10 21 10h81q25 0 9 -21l-236 -274q-6 -10 -20 -10zM442 76q148 0 243 83t120 216l55 307q24 129 -40 214t-210 85t-243 -83q-96 -83 -121 -212l-53 -305q-25 -137 38 -221t211 -84zM434 -23q-192 0 -287 119q-94 119 -63 293
l55 307q31 168 160 274t321 107q192 0 286 -118q93 -118 63 -287l-56 -305q-33 -174 -161 -282q-126 -108 -318 -108z" />
    <glyph glyph-name="ocircumflex" unicode="&#xf4;" 
d="M924 1225h-68q-14 0 -20 12l-140 221l-223 -223q-10 -10 -22 -10h-74q-10 0 -13 6t5 14l280 277q6 8 21 8h67q13 0 21 -10l176 -275q10 -20 -10 -20zM442 76q148 0 243 83t120 216l55 307q24 129 -40 214t-210 85t-243 -83q-96 -83 -121 -212l-53 -305q-25 -137 38 -221
t211 -84zM434 -23q-192 0 -287 119q-94 119 -63 293l55 307q31 168 160 274t321 107q192 0 286 -118q93 -118 63 -287l-56 -305q-33 -174 -161 -282q-126 -108 -318 -108z" />
    <glyph glyph-name="otilde" unicode="&#xf5;" 
d="M793 1231q-53 0 -133 42t-117 42q-61 0 -99 -66q-8 -14 -22 -4l-39 25q-16 6 -6 22q68 113 170 113q55 0 134 -43t123 -43t87 65q10 14 24 7l37 -25q15 -10 9 -20q-68 -115 -168 -115zM442 76q148 0 243 83t120 216l55 307q24 129 -40 214t-210 85t-243 -83
q-96 -83 -121 -212l-53 -305q-25 -137 38 -221t211 -84zM434 -23q-192 0 -287 119q-94 119 -63 293l55 307q31 168 160 274t321 107q192 0 286 -118q93 -118 63 -287l-56 -305q-33 -174 -161 -282q-126 -108 -318 -108z" />
    <glyph glyph-name="odieresis" unicode="&#xf6;" 
d="M846 1276q-72 0 -60 76q4 31 26 48t54 17q32 1 48 -21t10 -57q-14 -63 -78 -63zM504 1417q32 1 47 -21q16 -22 10 -54q-5 -32 -27 -49t-54 -17t-48 20t-10 56q13 65 82 65zM442 76q148 0 243 83t120 216l55 307q24 129 -40 214t-210 85t-243 -83q-96 -83 -121 -212
l-53 -305q-25 -137 38 -221t211 -84zM434 -23q-192 0 -287 119q-94 119 -63 293l55 307q31 168 160 274t321 107q192 0 286 -118q93 -118 63 -287l-56 -305q-33 -174 -161 -282q-126 -108 -318 -108z" />
    <glyph glyph-name="divide" unicode="&#xf7;" horiz-adv-x="1150" 
d="M653 946q-37 0 -56 25t-13 61q14 74 86 74q37 0 57 -24t12 -64q-14 -72 -86 -72zM549 406q37 0 56 -25t13 -62q-14 -74 -86 -73q-37 0 -57 24t-12 64q14 72 86 72zM1001 633h-815q-18 0 -14 16l12 68q4 16 21 16h811q20 0 16 -18l-12 -68q-3 -14 -19 -14z" />
    <glyph glyph-name="oslash" unicode="&#xf8;" 
d="M608 981q-145 0 -241 -83t-121 -212l-53 -305q-23 -123 22 -199l555 758q-68 41 -162 41zM440 76q150 0 245 83t120 216l55 307q20 121 -31 199l-557 -760q63 -45 168 -45zM432 -23q-129 0 -221 60l-102 -139q-6 -10 -21 -11h-63q-23 0 -11 21l136 184q-100 117 -66 297
l55 307q31 168 159 274t320 107q125 0 213 -55l115 156q10 10 21 10h63q10 0 13 -6t-3 -15l-145 -196q106 -117 74 -299l-56 -305q-33 -174 -161 -282t-320 -108z" />
    <glyph glyph-name="ugrave" unicode="&#xf9;" horiz-adv-x="1083" 
d="M690 1225h-55q-12 0 -21 12l-127 272q-10 20 13 21h75q15 0 21 -12l106 -273q8 -20 -12 -20zM942 1055h76q18 0 14 -19l-174 -964q-2 -12 -14 -19q-188 -76 -383 -76t-289 116t-55 321l112 624q0 16 19 17h74q20 0 14 -19l-113 -630q-59 -332 252 -332q133 0 285 53
l164 911q4 17 18 17z" />
    <glyph glyph-name="uacute" unicode="&#xfa;" horiz-adv-x="1083" 
d="M625 1225h-58q-10 0 -13 6t3 14l213 275q4 10 21 10h81q25 0 9 -21l-236 -274q-6 -10 -20 -10zM942 1055h76q18 0 14 -19l-174 -964q-2 -12 -14 -19q-188 -76 -383 -76t-289 116t-55 321l112 624q0 16 19 17h74q20 0 14 -19l-113 -630q-59 -332 252 -332q133 0 285 53
l164 911q4 17 18 17z" />
    <glyph glyph-name="ucircumflex" unicode="&#xfb;" horiz-adv-x="1083" 
d="M932 1225h-68q-14 0 -20 12l-139 221l-224 -223q-10 -10 -22 -10h-74q-10 0 -13 6t5 14l280 277q6 8 21 8h67q13 0 21 -10l176 -275q10 -20 -10 -20zM942 1055h76q18 0 14 -19l-174 -964q-2 -12 -14 -19q-188 -76 -383 -76t-289 116t-55 321l112 624q0 16 19 17h74
q20 0 14 -19l-113 -630q-59 -332 252 -332q133 0 285 53l164 911q4 17 18 17z" />
    <glyph glyph-name="udieresis" unicode="&#xfc;" horiz-adv-x="1083" 
d="M854 1276q-72 0 -59 76q9 65 79 65q32 0 48 -21q16 -22 10 -57q-14 -63 -78 -63zM488 1276q-32 0 -48 20t-10 56q14 65 82 65q32 1 47 -21q16 -22 10 -54q-5 -32 -27 -49t-54 -17zM942 1055h76q18 0 14 -19l-174 -964q-2 -12 -14 -19q-188 -76 -383 -76t-289 116t-55 321
l112 624q0 16 19 17h74q20 0 14 -19l-113 -630q-59 -332 252 -332q133 0 285 53l164 911q4 17 18 17z" />
    <glyph glyph-name="yacute" unicode="&#xfd;" horiz-adv-x="1087" 
d="M637 1225h-57q-10 0 -14 6q-3 6 3 14l213 275q4 10 21 10h82q25 0 8 -21l-236 -274q-6 -10 -20 -10zM1016 1055q20 0 16 -19l-186 -1044q-35 -188 -152 -294q-116 -106 -326 -106t-345 146q-10 14 0 24l43 52q12 12 24 0q121 -125 284 -125t252 85t113 228l19 100
q-150 -61 -291 -61q-188 0 -284 109q-95 109 -58 307l104 581q4 16 21 17h72q18 0 16 -19l-107 -590q-57 -309 252 -309q158 0 291 74l148 827q4 16 20 17h74z" />
    <glyph glyph-name="thorn" unicode="&#xfe;" horiz-adv-x="1075" 
d="M608 981q-150 0 -286 -92l-129 -727q121 -86 273 -86t248 82q97 82 124 243l43 250q59 330 -273 330zM627 1077q211 0 304 -118t56 -316l-43 -252q-33 -199 -160 -307t-303 -107q-176 0 -305 84l-78 -434q-4 -16 -18 -16h-76q-16 0 -14 18l321 1819q4 16 21 16h74
q16 0 14 -18l-78 -449q145 80 285 80z" />
    <glyph glyph-name="ydieresis" unicode="&#xff;" horiz-adv-x="1087" 
d="M858 1276q-72 0 -59 76q9 65 79 65q32 0 48 -21q16 -22 10 -57q-14 -63 -78 -63zM516 1417q32 1 47 -21q16 -22 10 -54q-5 -32 -27 -49t-54 -17t-48 20t-10 56q13 65 82 65zM1016 1055q20 0 16 -19l-186 -1044q-35 -188 -152 -294q-116 -106 -326 -106t-345 146
q-10 14 0 24l43 52q12 12 24 0q121 -125 284 -125t252 85t113 228l19 100q-150 -61 -291 -61q-188 0 -284 109q-95 109 -58 307l104 581q4 16 21 17h72q18 0 16 -19l-107 -590q-57 -309 252 -309q158 0 291 74l148 827q4 16 20 17h74z" />
    <glyph glyph-name="Amacron" unicode="&#x100;" horiz-adv-x="1167" 
d="M1051 1700h-516q-20 0 -17 16l12 64q2 14 19 14h518q20 0 14 -16l-10 -64q-2 -14 -20 -14zM731 1335h-4l-410 -805h545zM1044 0h-79q-16 0 -21 16l-65 412h-611l-215 -416q-4 -12 -20 -12h-88q-23 0 -13 20l744 1432q6 12 20 12h101q18 0 18 -16l246 -1430q3 -18 -17 -18
z" />
    <glyph glyph-name="amacron" unicode="&#x101;" horiz-adv-x="1009" 
d="M397 1362h480q20 0 14 -19l-10 -57q-2 -14 -19 -14h-479q-18 0 -14 16l10 58q4 16 18 16zM482 539q-138 -1 -228 -55t-112 -164q-20 -110 52 -177t219 -67q148 0 285 51l68 377q-146 35 -284 35zM400 -23q-185 -1 -289 99q-105 100 -75 254t151 230q122 75 289 75
t306 -35l19 111q51 270 -240 270q-168 0 -317 -88q-16 -12 -21 6l-24 55q-6 12 4 23q165 100 365 100t286 -103t55 -272l-110 -630q-3 -11 -15 -19q-199 -76 -384 -76z" />
    <glyph glyph-name="Abreve" unicode="&#x102;" horiz-adv-x="1167" 
d="M772 1593q-133 0 -204 83t-62 210q0 16 16 17l60 14q10 2 15 -3t3 -13q-4 -101 41 -157t139 -56t161 59t97 160q6 14 21 12l57 -16q18 -7 12 -19q-37 -133 -130 -212t-226 -79zM731 1335h-4l-410 -805h545zM1044 0h-79q-16 0 -21 16l-65 412h-611l-215 -416
q-4 -12 -20 -12h-88q-23 0 -13 20l744 1432q6 12 20 12h101q18 0 18 -16l246 -1430q3 -18 -17 -18z" />
    <glyph glyph-name="abreve" unicode="&#x103;" horiz-adv-x="1009" 
d="M618 1298q178 0 242 203q8 16 21 12l55 -10q18 -4 14 -20q-88 -274 -348 -275q-122 0 -186 81t-58 198q0 18 17 18l53 8q16 0 16 -16q-4 -199 174 -199zM482 539q-138 -1 -228 -55t-112 -164q-20 -110 52 -177t219 -67q148 0 285 51l68 377q-146 35 -284 35zM400 -23
q-185 -1 -289 99q-105 100 -75 254t151 230q122 75 289 75t306 -35l19 111q51 270 -240 270q-168 0 -317 -88q-16 -12 -21 6l-24 55q-6 12 4 23q165 100 365 100t286 -103t55 -272l-110 -630q-3 -11 -15 -19q-199 -76 -384 -76z" />
    <glyph glyph-name="Aogonek" unicode="&#x104;" horiz-adv-x="1167" 
d="M727 1335q-39 -75 -184 -363t-226 -442h545l-131 805h-4zM882 -408q-80 0 -118 44q-37 44 -25 115q11 71 71 139t151 114h-3q-14 10 -16 35l-63 389h-611l-215 -416q-4 -12 -20 -12h-88q-18 0 -13 20l746 1432q6 12 20 12h99q16 0 20 -16l244 -1432q0 -16 -10 -18
q-91 -46 -149 -108t-65 -111t9 -69t66 -19q50 0 104 24q16 10 20 -10l8 -55q2 -15 -10 -21q-72 -37 -152 -37z" />
    <glyph glyph-name="aogonek" unicode="&#x105;" horiz-adv-x="1019" 
d="M490 537q-144 -1 -236 -55t-109 -156q-25 -117 49 -185q74 -67 218 -67q143 0 295 49l65 381q-138 33 -282 33zM572 -408q-78 0 -114 46t-26 120q23 139 207 252q-127 -33 -242 -33q-178 1 -284 99t-76 262q29 143 152 219q124 76 291 76t311 -35l18 113q47 270 -236 270
q-176 0 -333 -90q-16 -12 -21 8l-24 53q-6 14 2 21q177 104 379 104t286 -102t53 -273l-110 -632q0 -12 -14 -19q-101 -53 -177 -128t-86 -146q-8 -86 68 -86q63 0 113 24q18 6 20 -10l8 -55q2 -15 -10 -21q-78 -37 -155 -37z" />
    <glyph glyph-name="Cacute" unicode="&#x106;" horiz-adv-x="1132" 
d="M780 1612h-65q-10 0 -14 6q-3 6 6 14l262 277q8 8 22 8h92q11 0 15 -6t-4 -15l-291 -276q-9 -8 -23 -8zM526 -23q-216 -1 -326 141t-69 369l92 521q39 225 191 352t378 127t388 -150q12 -8 2 -22l-52 -60q-12 -12 -24 -2q-140 129 -326 129t-301 -105t-145 -284l-90 -514
q-31 -179 48 -287t259 -108q219 0 405 149q14 14 25 -4l33 -63q10 -17 -4 -23q-219 -166 -484 -166z" />
    <glyph glyph-name="cacute" unicode="&#x107;" horiz-adv-x="917" 
d="M584 1225h-58q-10 0 -13 6t3 14l213 275q4 10 21 10h81q25 0 9 -21l-236 -274q-6 -10 -20 -10zM433 -23q-193 0 -287 113q-93 113 -62 291l61 336q29 162 151 261t297 99t316 -108q12 -8 2 -23l-39 -51q-10 -12 -24 -4q-113 90 -253 90t-230 -75t-113 -195l-59 -338
q-25 -135 41 -217t212 -82q148 0 295 108q12 10 23 -4l31 -57q5 -15 -7 -23q-162 -121 -355 -121z" />
    <glyph glyph-name="Cdotaccent" unicode="&#x10a;" horiz-adv-x="1132" 
d="M899 1720q-10 -76 -88 -75q-39 -1 -56 25t-13 60t29 56t61 20q36 0 55 -25q18 -26 12 -61zM526 -23q-216 -1 -326 141t-69 369l92 521q39 225 191 352t378 127t388 -150q12 -8 2 -22l-52 -60q-12 -12 -24 -2q-140 129 -326 129t-301 -105t-145 -284l-90 -514
q-31 -179 48 -287t259 -108q219 0 405 149q14 14 25 -4l33 -63q10 -17 -4 -23q-219 -166 -484 -166z" />
    <glyph glyph-name="cdotaccent" unicode="&#x10b;" horiz-adv-x="917" 
d="M632 1272q-32 0 -51 24t-15 56q4 33 28 51t56 18q32 1 52 -23t14 -57q-5 -33 -29 -51q-23 -18 -55 -18zM433 -23q-193 0 -287 113q-93 113 -62 291l61 336q29 162 151 261t297 99t316 -108q12 -8 2 -23l-39 -51q-10 -12 -24 -4q-113 90 -253 90t-230 -75t-113 -195
l-59 -338q-25 -135 41 -217t212 -82q148 0 295 108q12 10 23 -4l31 -57q5 -15 -7 -23q-162 -121 -355 -121z" />
    <glyph glyph-name="Ccaron" unicode="&#x10c;" horiz-adv-x="1132" 
d="M1063 1917h80q10 0 13 -6t-5 -15l-291 -276q-6 -8 -20 -8h-70q-14 0 -20 10l-199 274q-12 20 10 21h76q14 0 20 -10l156 -217l227 219q9 8 23 8zM526 -23q-216 -1 -326 141t-69 369l92 521q39 225 191 352t378 127t388 -150q12 -8 2 -22l-52 -60q-12 -12 -24 -2
q-140 129 -326 129t-301 -105t-145 -284l-90 -514q-31 -179 48 -287t259 -108q219 0 405 149q14 14 25 -4l33 -63q10 -17 -4 -23q-219 -166 -484 -166z" />
    <glyph glyph-name="ccaron" unicode="&#x10d;" horiz-adv-x="917" 
d="M465 1532q14 0 20 -12l140 -222l223 224q10 10 22 10h74q10 0 13 -6t-5 -15l-280 -276q-6 -8 -21 -8h-67q-13 0 -21 10l-176 274q-10 20 10 21h68zM433 -23q-193 0 -287 113q-93 113 -62 291l61 336q29 162 151 261t297 99t316 -108q12 -8 2 -23l-39 -51q-10 -12 -24 -4
q-113 90 -253 90t-230 -75t-113 -195l-59 -338q-25 -135 41 -217t212 -82q148 0 295 108q12 10 23 -4l31 -57q5 -15 -7 -23q-162 -121 -355 -121z" />
    <glyph glyph-name="Dcaron" unicode="&#x10e;" horiz-adv-x="1302" 
d="M1057 1917h80q10 0 13 -6t-5 -15l-291 -276q-6 -8 -20 -8h-70q-14 0 -21 10l-198 274q-12 20 10 21h76q14 0 20 -10l156 -217l227 219q9 8 23 8zM592 102q182 0 302 106t155 302l75 442q35 201 -44 305t-261 105h-373l-219 -1260h365zM584 0h-471q-18 0 -15 18l252 1430
q0 16 19 16h465q226 0 336 -142t69 -380l-78 -444q-41 -240 -189 -369t-388 -129z" />
    <glyph glyph-name="dcaron" unicode="&#x10f;" horiz-adv-x="1089" 
d="M1176 1135h-48q-18 0 -12 20l127 297q6 12 19 12h67q20 0 10 -20l-143 -297q-6 -12 -20 -12zM600 979q-146 0 -240 -82t-122 -244l-43 -252q-55 -328 256 -327q154 0 276 53l133 766q-113 86 -260 86zM443 -23q-210 0 -300 117t-55 318l43 250q33 200 158 308t295 108
t295 -85l79 455q0 16 19 16h74q18 0 14 -18l-240 -1378q-4 -13 -16 -19q-156 -72 -366 -72z" />
    <glyph glyph-name="Dcroat" unicode="&#x110;" horiz-adv-x="1310" 
d="M723 807q16 0 12 -19l-8 -49q0 -16 -18 -16h-365l-108 -621h366q182 0 302 106t153 302l78 442q33 201 -46 305t-260 105h-372l-99 -555h365zM377 1464h465q227 0 338 -141t67 -381l-78 -444q-41 -240 -189 -369t-388 -129h-469q-20 0 -14 18l122 705h-153q-18 0 -15 18
l9 50q4 16 18 16h156l112 641q1 16 19 16z" />
    <glyph glyph-name="dcroat" unicode="&#x111;" horiz-adv-x="1052" 
d="M598 965q-305 0 -360 -322l-43 -242q-59 -328 258 -327q158 0 278 53l133 754q-113 84 -266 84zM444 -23q-211 0 -302 118t-56 317l45 239q35 197 159 305t297 107q173 0 294 -82l43 242h-320q-18 0 -14 18l8 45q2 14 18 14h322l25 148q4 16 18 16h76q18 0 12 -18
l-25 -146h156q18 0 14 -16l-8 -45q0 -16 -18 -16h-156l-203 -1155q0 -11 -14 -19q-160 -72 -371 -72z" />
    <glyph glyph-name="Emacron" unicode="&#x112;" horiz-adv-x="1112" 
d="M1057 1700h-516q-20 0 -17 16l13 64q2 14 18 14h518q20 0 14 -16l-10 -64q-2 -14 -20 -14zM1122 1362h-676l-98 -563h637q18 0 14 -17l-12 -69q0 -16 -18 -17h-637l-105 -592h695q14 0 14 -18l-10 -70q-4 -16 -21 -16h-792q-18 0 -15 18l252 1430q0 16 19 16h770
q14 0 14 -18l-12 -68q0 -16 -19 -16z" />
    <glyph glyph-name="emacron" unicode="&#x113;" horiz-adv-x="1028" 
d="M438 1362h480q20 0 14 -19l-10 -57q-2 -14 -19 -14h-479q-18 0 -14 16l10 58q4 16 18 16zM604 981q-137 0 -232 -77t-120 -212l-25 -125h604l25 127q27 137 -44 212t-208 75zM616 1077q180 0 280 -104t65 -287l-37 -197q-4 -16 -19 -16h-694l-23 -119q-28 -131 48 -206
t208 -74q180 0 349 137q14 8 24 -4l33 -51q10 -16 -2 -23q-184 -156 -416 -156q-172 -1 -278 103t-72 278l61 342q33 178 163 278t310 99z" />
    <glyph glyph-name="Edotaccent" unicode="&#x116;" horiz-adv-x="1112" 
d="M877 1720q-10 -76 -89 -75q-39 -1 -56 25t-12 60t29 56q25 22 61 20q36 0 54 -26t13 -60zM1122 1362h-676l-98 -563h637q18 0 14 -17l-12 -69q0 -16 -18 -17h-637l-105 -592h695q14 0 14 -18l-10 -70q-4 -16 -21 -16h-792q-18 0 -15 18l252 1430q0 16 19 16h770
q14 0 14 -18l-12 -68q0 -16 -19 -16z" />
    <glyph glyph-name="edotaccent" unicode="&#x117;" horiz-adv-x="1028" 
d="M656 1272q-32 0 -51 24t-14 56q10 69 83 69q33 1 52 -23t14 -57q-4 -33 -28 -51t-56 -18zM604 981q-137 0 -232 -77t-120 -212l-25 -125h604l25 127q27 137 -44 212t-208 75zM616 1077q180 0 280 -104t65 -287l-37 -197q-4 -16 -19 -16h-694l-23 -119q-28 -131 48 -206
t208 -74q180 0 349 137q14 8 24 -4l33 -51q10 -16 -2 -23q-184 -156 -416 -156q-172 -1 -278 103t-72 278l61 342q33 178 163 278t310 99z" />
    <glyph glyph-name="Eogonek" unicode="&#x118;" horiz-adv-x="1112" 
d="M1122 1362h-676l-98 -563h637q18 0 14 -17l-12 -69q0 -16 -18 -17h-637l-105 -592h695q14 0 14 -18l-10 -74q-2 -12 -17 -18q-86 -46 -142 -108t-65 -109q-14 -86 66 -86q59 0 113 24q18 8 20 -10l8 -55q2 -14 -10 -21q-78 -37 -155 -37q-78 0 -114 46t-25 114
q11 69 67 135t143 113h-702q-18 0 -15 18l252 1430q0 16 19 16h770q14 0 14 -18l-12 -68q0 -16 -19 -16z" />
    <glyph glyph-name="eogonek" unicode="&#x119;" horiz-adv-x="1013" 
d="M598 981q-133 0 -229 -77t-121 -210l-23 -127h594l23 133q25 133 -43 207t-201 74zM498 -408q-82 0 -119 48t-25 127q23 125 158 219q-33 -8 -78 -9q-174 -1 -279 103t-75 278l61 344q31 178 162 276t308 99q177 0 273 -103t62 -284l-37 -201q-4 -16 -18 -16h-682
l-23 -119q-26 -131 50 -206t210 -74q172 0 334 137q14 8 25 -4l33 -51q10 -16 -4 -25q-68 -55 -162 -104t-154 -116t-67 -126q-14 -94 67 -94q68 0 111 24q18 10 22 -10l8 -55q2 -13 -12 -21q-67 -37 -149 -37z" />
    <glyph glyph-name="Ecaron" unicode="&#x11a;" horiz-adv-x="1112" 
d="M1020 1917h80q10 0 13 -6t-5 -15l-291 -276q-6 -8 -20 -8h-70q-14 0 -20 10l-199 274q-12 20 10 21h76q14 0 20 -10l156 -217l227 219q9 8 23 8zM1122 1362h-676l-98 -563h637q18 0 14 -17l-12 -69q0 -16 -18 -17h-637l-105 -592h695q14 0 14 -18l-10 -70q-4 -16 -21 -16
h-792q-18 0 -15 18l252 1430q0 16 19 16h770q14 0 14 -18l-12 -68q0 -16 -19 -16z" />
    <glyph glyph-name="ecaron" unicode="&#x11b;" horiz-adv-x="1028" 
d="M498 1532q14 0 20 -12l139 -222l224 224q10 10 22 10h74q10 0 13 -6t-5 -15l-280 -276q-6 -8 -21 -8h-68q-12 0 -20 10l-176 274q-10 20 10 21h68zM604 981q-137 0 -232 -77t-120 -212l-25 -125h604l25 127q27 137 -44 212t-208 75zM616 1077q180 0 280 -104t65 -287
l-37 -197q-4 -16 -19 -16h-694l-23 -119q-28 -131 48 -206t208 -74q180 0 349 137q14 8 24 -4l33 -51q10 -16 -2 -23q-184 -156 -416 -156q-172 -1 -278 103t-72 278l61 342q33 178 163 278t310 99z" />
    <glyph glyph-name="Gbreve" unicode="&#x11e;" horiz-adv-x="1253" 
d="M805 1593q-133 0 -204 83t-62 210q0 16 16 17l59 14q10 2 16 -3t3 -13q-4 -101 41 -157t139 -56t161 59t97 160q6 14 21 12l57 -16q18 -7 12 -19q-37 -133 -130 -212t-226 -79zM786 1487q266 0 437 -158q10 -12 0 -24l-52 -56q-8 -12 -24 -2q-152 135 -375 135
q-174 0 -291 -108t-149 -289l-90 -512q-29 -171 50 -279t257 -108q227 4 414 139l79 447h-380q-18 0 -13 18l13 70q4 14 18 14h475q20 0 16 -16l-100 -565q-2 -5 -10 -19q-233 -193 -524 -192q-221 0 -333 142t-75 359l92 512q39 227 193 359t372 133z" />
    <glyph glyph-name="gbreve" unicode="&#x11f;" horiz-adv-x="1052" 
d="M664 1298q178 0 241 203q8 16 21 12l55 -10q18 -4 14 -20q-88 -274 -348 -275q-121 0 -185 81t-59 198q0 18 17 18l53 8q16 0 16 -16q-3 -199 175 -199zM614 979q-319 0 -372 -309l-39 -211q-57 -319 254 -320q158 0 291 74l120 698q-102 68 -254 68zM356 -309
q156 0 244 82t113 231l18 100q-137 -66 -285 -65q-202 0 -294 111t-56 317l37 211q37 205 166 302t327 97t351 -102q8 -6 8 -23l-168 -960q-33 -188 -147 -294q-115 -106 -318 -106t-342 146q-10 12 0 22l39 52q10 14 25 0q126 -121 282 -121z" />
    <glyph glyph-name="Gdotaccent" unicode="&#x120;" horiz-adv-x="1253" 
d="M899 1720q-10 -76 -88 -75q-39 -1 -56 25t-13 60t29 56t61 20q36 0 55 -25q18 -26 12 -61zM786 1487q266 0 437 -158q10 -12 0 -24l-52 -56q-8 -12 -24 -2q-152 135 -375 135q-174 0 -291 -108t-149 -289l-90 -512q-29 -171 50 -279t257 -108q227 4 414 139l79 447h-380
q-18 0 -13 18l13 70q4 14 18 14h475q20 0 16 -16l-100 -565q-2 -5 -10 -19q-233 -193 -524 -192q-221 0 -333 142t-75 359l92 512q39 227 193 359t372 133z" />
    <glyph glyph-name="gdotaccent" unicode="&#x121;" horiz-adv-x="1052" 
d="M676 1421q32 1 52 -23q19 -24 14 -57q-4 -33 -28 -51t-56 -18t-51 24t-14 56q5 33 28 51t55 18zM614 979q-319 0 -372 -309l-39 -211q-57 -319 254 -320q158 0 291 74l120 698q-102 68 -254 68zM356 -309q156 0 244 82t113 231l18 100q-137 -66 -285 -65q-202 0 -294 111
t-56 317l37 211q37 205 166 302t327 97t351 -102q8 -6 8 -23l-168 -960q-33 -188 -147 -294q-115 -106 -318 -106t-342 146q-10 12 0 22l39 52q10 14 25 0q126 -121 282 -121z" />
    <glyph glyph-name="uni0122" unicode="&#x122;" horiz-adv-x="1253" 
d="M420 -481h-55q-18 0 -11 18l135 297q6 12 21 12h76q20 0 12 -18l-160 -297q-6 -12 -18 -12zM786 1487q266 0 437 -158q10 -12 0 -24l-52 -56q-8 -12 -24 -2q-152 135 -375 135q-174 0 -291 -108t-149 -289l-90 -512q-29 -171 50 -279t257 -108q227 4 414 139l79 447h-380
q-18 0 -13 18l13 70q4 14 18 14h475q20 0 16 -16l-100 -565q-2 -5 -10 -19q-233 -193 -524 -192q-221 0 -333 142t-75 359l92 512q39 227 193 359t372 133z" />
    <glyph glyph-name="uni0123" unicode="&#x123;" horiz-adv-x="1052" 
d="M659 1225h-67q-23 0 -10 20l139 277q6 12 20 12h47q20 0 13 -18l-123 -277q-7 -14 -19 -14zM614 979q-319 0 -372 -309l-39 -211q-57 -319 254 -320q158 0 291 74l120 698q-102 68 -254 68zM356 -309q156 0 244 82t113 231l18 100q-137 -66 -285 -65q-202 0 -294 111
t-56 317l37 211q37 205 166 302t327 97t351 -102q8 -6 8 -23l-168 -960q-33 -188 -147 -294q-115 -106 -318 -106t-342 146q-10 12 0 22l39 52q10 14 25 0q126 -121 282 -121z" />
    <glyph glyph-name="Hbar" unicode="&#x126;" horiz-adv-x="1339" 
d="M354 797h731l62 348h-731zM1386 1229q20 0 15 -19l-8 -51q-4 -14 -19 -14h-117l-198 -1129q0 -16 -19 -16h-79q-18 0 -13 18l119 676h-731l-121 -678q0 -16 -18 -16h-78q-16 0 -15 18l199 1127h-145q-18 0 -15 18l9 49q4 16 20 17h145l39 219q0 16 19 16h78q18 0 16 -18
l-39 -217h731l37 219q4 16 21 16h77q18 0 15 -18l-39 -217h114z" />
    <glyph glyph-name="hbar" unicode="&#x127;" horiz-adv-x="1089" 
d="M654 1063q172 0 264 -114t51 -337l-107 -596q0 -16 -18 -16h-74q-16 0 -14 18l106 609q61 340 -246 340q-150 0 -299 -90l-151 -861q0 -16 -19 -16h-73q-16 0 -15 18l211 1205h-153q-18 0 -15 18l9 45q2 14 18 14h156l24 148q4 16 19 16h75q18 0 13 -18l-25 -146h322
q18 0 14 -16l-8 -45q0 -16 -19 -16h-323l-41 -242q147 82 318 82z" />
    <glyph glyph-name="Imacron" unicode="&#x12a;" horiz-adv-x="485" 
d="M193 0h-80q-18 0 -15 18l252 1430q0 16 19 16h80q18 0 16 -18l-254 -1430q0 -16 -18 -16zM674 1673h-455q-18 0 -16 19l12 63q2 14 18 14h455q16 0 14 -18l-10 -61q-4 -17 -18 -17z" />
    <glyph glyph-name="imacron" unicode="&#x12b;" horiz-adv-x="401" 
d="M145 0h-73q-18 0 -15 18l183 1020q4 16 18 17h74q16 0 14 -19l-182 -1020q-1 -16 -19 -16zM530 1307h-383q-18 0 -14 16l10 57q4 16 19 17h381q18 0 16 -19l-12 -57q-3 -14 -17 -14z" />
    <glyph glyph-name="Iogonek" unicode="&#x12e;" horiz-adv-x="487" 
d="M54 -408q-78 0 -114 44t-26 122q25 141 195 242h-3q-12 0 -8 20l252 1428q4 16 19 16h80q18 0 16 -18l-252 -1432q-2 -10 -16 -18q-78 -48 -127 -108t-58 -109q-14 -88 66 -88q61 0 112 24q16 10 21 -10l8 -55q2 -15 -10 -21q-78 -37 -155 -37z" />
    <glyph glyph-name="iogonek" unicode="&#x12f;" horiz-adv-x="401" 
d="M332 1272q-30 0 -50 24q-19 24 -14 56q12 66 80 65q34 1 52 -23t13 -55t-28 -49t-53 -18zM11 -408q-81 0 -117 46t-27 115q10 70 65 139t129 112h-2q-8 0 0 23l181 1011q0 16 18 17h74q16 0 14 -19l-182 -1020q-2 -16 -12 -20q-76 -44 -127 -106t-60 -111q-14 -88 70 -88
q61 0 110 24q16 8 21 -10l10 -53q2 -15 -12 -21q-72 -39 -153 -39z" />
    <glyph glyph-name="Idotaccent" unicode="&#x130;" horiz-adv-x="485" 
d="M528 1720q-10 -76 -88 -75q-39 -1 -56 25t-12 60q4 34 28 56t61 20q37 0 55 -26t12 -60zM193 0h-80q-18 0 -15 18l252 1430q4 16 21 16h78q18 0 14 -18l-252 -1430q0 -16 -18 -16z" />
    <glyph glyph-name="dotlessi" unicode="&#x131;" horiz-adv-x="401" 
d="M145 0h-73q-18 0 -15 18l183 1020q0 16 18 17h74q16 0 14 -19l-182 -1020q-1 -16 -19 -16z" />
    <glyph glyph-name="IJ" unicode="&#x132;" horiz-adv-x="1476" 
d="M838 80q270 0 327 332l187 1036q0 16 18 16h78q18 0 14 -18l-182 -1043q-76 -426 -470 -426q-198 0 -339 166q-12 12 0 25l43 53q12 12 25 0q129 -141 299 -141zM193 0h-80q-18 0 -15 18l252 1430q4 16 21 16h78q18 0 14 -18l-252 -1430q0 -16 -18 -16z" />
    <glyph glyph-name="ij" unicode="&#x133;" horiz-adv-x="948" 
d="M965 1337q-14 -66 -78 -65q-33 0 -52 24t-14 56q10 66 78 65q35 1 53 -23t13 -57zM381 -307q166 0 213 264l190 1081q4 16 21 17h74q18 0 14 -19l-193 -1087q-66 -356 -327 -357q-95 0 -97 27l13 66q4 16 18 14q41 -6 74 -6zM334 1272q-32 0 -50 24q-19 24 -14 56
q12 66 78 65q36 1 54 -23t13 -55t-27 -49t-54 -18zM145 0h-73q-20 0 -15 18l183 1020q0 16 18 17h74q20 0 14 -19l-182 -1020q-1 -16 -19 -16z" />
    <glyph glyph-name="uni0136" unicode="&#x136;" horiz-adv-x="1185" 
d="M410 -481h-56q-18 0 -10 18l135 297q6 12 21 12h75q20 0 13 -18l-160 -297q-6 -12 -18 -12zM1178 1464h108q10 0 13 -6t-5 -14l-704 -643l489 -781q12 -20 -10 -20h-94q-12 0 -19 10l-450 717l-201 -176l-94 -535q-4 -16 -18 -16h-80q-18 0 -15 18l250 1430q4 16 19 16
h79q16 0 15 -18l-129 -739l823 749q13 8 23 8z" />
    <glyph glyph-name="uni0137" unicode="&#x137;" horiz-adv-x="948" 
d="M303 -461h-47q-20 0 -12 19l121 276q4 14 18 14h68q18 0 12 -20l-139 -277q-5 -12 -21 -12zM889 1055h100q15 0 13 -12q-1 -5 -7 -9l-520 -434l365 -580q10 -20 -11 -20h-90q-14 0 -18 10l-326 518l-159 -131l-68 -381q-4 -16 -18 -16h-76q-16 0 -15 18l252 1430
q4 16 21 16h74q16 0 14 -18l-158 -899l606 500q9 8 21 8z" />
    <glyph glyph-name="Lacute" unicode="&#x139;" horiz-adv-x="976" 
d="M457 1612h-66q-10 0 -13 6t5 14l262 277q8 8 23 8h92q10 0 14 -6t-4 -15l-291 -276q-8 -8 -22 -8zM868 102q14 0 15 -16l-13 -70q0 -16 -18 -16h-739q-18 0 -15 18l252 1430q4 16 21 16h78q18 0 16 -18l-238 -1344h641z" />
    <glyph glyph-name="lacute" unicode="&#x13a;" horiz-adv-x="522" 
d="M391 1612h-65q-10 0 -14 6q-3 6 5 14l263 277q8 8 22 8h92q10 0 14 -6t-3 -15l-291 -276q-9 -8 -23 -8zM317 1464h74q18 0 15 -18l-193 -1108q-45 -260 117 -260q56 0 72 3t21 -1t3 -14l-10 -66q-1 -12 -19 -16l-86 -7q-127 1 -182 93t-23 274l193 1104q0 16 18 16z" />
    <glyph glyph-name="uni013B" unicode="&#x13b;" horiz-adv-x="976" 
d="M354 -481h-55q-18 0 -10 18l135 297q6 12 20 12h76q20 0 12 -18l-159 -297q-7 -12 -19 -12zM868 102q14 0 15 -16l-13 -70q0 -16 -18 -16h-739q-18 0 -15 18l252 1430q4 16 21 16h78q18 0 16 -18l-238 -1344h641z" />
    <glyph glyph-name="uni013C" unicode="&#x13c;" horiz-adv-x="522" 
d="M127 -461h-47q-20 0 -12 19l120 276q4 14 19 14h67q18 0 13 -20l-140 -277q-4 -12 -20 -12zM317 1464h74q18 0 15 -18l-193 -1108q-45 -260 117 -260q56 0 72 3t21 -1t3 -14l-10 -66q-1 -12 -19 -16l-86 -7q-127 1 -182 93t-23 274l193 1104q0 16 18 16z" />
    <glyph glyph-name="Lcaron" unicode="&#x13d;" horiz-adv-x="978" 
d="M688 1128h-53q-8 0 -11 6t1 15l135 303q4 14 18 14h74q20 0 12 -20l-157 -305q-9 -13 -19 -13zM852 0h-739q-18 0 -15 18l252 1430q4 16 21 16h78q18 0 16 -18l-238 -1344h641q14 0 15 -16l-13 -70q0 -16 -18 -16z" />
    <glyph glyph-name="lcaron" unicode="&#x13e;" horiz-adv-x="548" 
d="M532 1147h-47q-20 0 -14 20l131 285q4 12 19 12h65q23 0 12 -20l-145 -285q-7 -12 -21 -12zM317 1464h76q16 0 15 -18l-195 -1110q-45 -256 117 -256q37 0 80 6q20 0 16 -16l-10 -68q-3 -14 -19 -18q-41 -6 -84 -7q-131 1 -185 93t-22 276l193 1102q4 16 18 16z" />
    <glyph glyph-name="Ldot" unicode="&#x13f;" horiz-adv-x="978" 
d="M682 635q-37 -1 -57 25q-21 26 -15 62t30 56t60 20t58 -24q20 -24 12 -63q-12 -76 -88 -76zM868 102q14 0 15 -16l-13 -70q0 -16 -18 -16h-739q-18 0 -15 18l252 1430q4 16 21 16h78q18 0 16 -18l-238 -1344h641z" />
    <glyph glyph-name="ldot" unicode="&#x140;" horiz-adv-x="542" 
d="M569 700q-12 -68 -77 -67q-39 0 -56 23q-16 24 -10 59q10 70 80 69q37 0 53 -24t10 -60zM317 1464h74q18 0 15 -18l-193 -1108q-47 -258 117 -258q39 0 80 6q20 0 16 -16l-10 -70q-3 -12 -19 -16q-43 -6 -86 -7q-129 1 -183 93t-22 276l193 1102q0 16 18 16z" />
    <glyph glyph-name="Lslash" unicode="&#x141;" horiz-adv-x="1009" 
d="M901 102q14 0 14 -16l-12 -70q0 -16 -18 -16h-740q-18 0 -14 18l105 584l-203 -125q-8 -6 -15 -2q-6 4 -4 14l13 74q4 14 14 19l215 135l127 731q4 16 20 16h78q18 0 17 -18l-117 -653l334 208q10 7 15 3t3 -15l-12 -74q0 -10 -12 -20l-349 -217l-100 -576h641z" />
    <glyph glyph-name="lslash" unicode="&#x142;" horiz-adv-x="661" 
d="M393 1464h74q20 0 16 -18l-118 -668l284 187q9 6 15 3t4 -16l-13 -71q-2 -13 -14 -21l-295 -194l-57 -328q-47 -260 119 -260q53 0 76 4t18 -16l-10 -66q0 -12 -17 -16q-43 -6 -86 -7q-129 1 -184 93t-23 274l43 242l-159 -105q-10 -8 -17 -4q-6 4 -4 17l14 71
q0 10 13 19l172 112l131 752q0 16 18 16z" />
    <glyph glyph-name="Nacute" unicode="&#x143;" horiz-adv-x="1380" 
d="M866 1612h-65q-10 0 -14 6q-3 6 6 14l262 277q8 8 22 8h92q11 0 15 -6t-4 -15l-291 -276q-9 -8 -23 -8zM193 0h-80q-18 0 -15 18l252 1430q0 16 19 16h92q14 0 20 -12l541 -1282h4q74 467 92 565l125 713q4 16 21 16h77q18 0 15 -18l-250 -1430q-4 -16 -21 -16h-92
q-12 0 -18 12l-395 906q-68 156 -148 364h-4q-33 -225 -88 -526l-129 -740q0 -16 -18 -16z" />
    <glyph glyph-name="nacute" unicode="&#x144;" horiz-adv-x="1093" 
d="M631 1225h-58q-10 0 -13 6t3 14l213 275q6 10 21 10h82q25 0 8 -21l-236 -274q-6 -10 -20 -10zM141 0h-73q-18 0 -15 18l174 965q0 12 15 18q190 76 388 76q198 1 293 -113t56 -323l-113 -625q0 -16 -18 -16h-72q-18 0 -16 18l112 631q61 332 -260 332q-141 0 -286 -53
l-166 -912q-1 -16 -19 -16z" />
    <glyph glyph-name="uni0145" unicode="&#x145;" horiz-adv-x="1380" 
d="M475 -481h-55q-18 0 -10 18l135 297q6 12 20 12h76q20 0 12 -18l-159 -297q-7 -12 -19 -12zM193 0h-80q-18 0 -15 18l252 1430q0 16 19 16h92q14 0 20 -12l541 -1282h4q74 467 92 565l125 713q4 16 21 16h77q18 0 15 -18l-250 -1430q-4 -16 -21 -16h-92q-12 0 -18 12
l-395 906q-68 156 -148 364h-4q-33 -225 -88 -526l-129 -740q0 -16 -18 -16z" />
    <glyph glyph-name="uni0146" unicode="&#x146;" horiz-adv-x="1093" 
d="M328 -461h-47q-20 0 -13 19l121 276q4 14 19 14h67q18 0 12 -20l-139 -277q-4 -12 -20 -12zM141 0h-73q-18 0 -15 18l174 965q0 12 15 18q190 76 388 76q198 1 293 -113t56 -323l-113 -625q0 -16 -18 -16h-72q-18 0 -16 18l112 631q61 332 -260 332q-141 0 -286 -53
l-166 -912q-1 -16 -19 -16z" />
    <glyph glyph-name="Ncaron" unicode="&#x147;" horiz-adv-x="1380" 
d="M1139 1917h80q10 0 13 -6t-5 -15l-291 -276q-6 -8 -21 -8h-69q-14 0 -21 10l-198 274q-12 20 10 21h76q14 0 20 -10l156 -217l227 219q9 8 23 8zM193 0h-80q-18 0 -15 18l252 1430q0 16 19 16h92q14 0 20 -12l541 -1282h4q74 467 92 565l125 713q4 16 21 16h77
q18 0 15 -18l-250 -1430q-4 -16 -21 -16h-92q-12 0 -18 12l-395 906q-68 156 -148 364h-4q-33 -225 -88 -526l-129 -740q0 -16 -18 -16z" />
    <glyph glyph-name="ncaron" unicode="&#x148;" horiz-adv-x="1093" 
d="M496 1532q14 0 20 -12l139 -222l224 224q10 10 22 10h74q10 0 13 -6t-5 -15l-281 -276q-6 -8 -20 -8h-68q-12 0 -20 10l-176 274q-10 20 10 21h68zM141 0h-73q-18 0 -15 18l174 965q0 12 15 18q190 76 388 76q198 1 293 -113t56 -323l-113 -625q0 -16 -18 -16h-72
q-18 0 -16 18l112 631q61 332 -260 332q-141 0 -286 -53l-166 -912q-1 -16 -19 -16z" />
    <glyph glyph-name="Eng" unicode="&#x14a;" horiz-adv-x="1390" 
d="M776 -303q98 0 149 67q50 68 79 226l-486 1059q-59 141 -88 231h-6q-23 -184 -43 -293l-168 -971q-4 -16 -18 -16h-82q-18 0 -15 18l250 1430q4 16 19 16h92q16 0 18 -12l461 -1036l96 -248h4q20 145 54 340l163 940q0 16 19 16h80q18 0 14 -18l-254 -1452
q-37 -215 -113 -308t-219 -94q-8 0 -88 7q-14 2 -14 20l8 68q0 16 19 16q39 -6 69 -6z" />
    <glyph glyph-name="eng" unicode="&#x14b;" horiz-adv-x="1089" 
d="M518 -408q-4 0 -78 7q-14 2 -14 20l12 68q0 16 22 12t68 -4q170 0 222 285l118 669q61 332 -258 332q-143 0 -284 -55l-164 -910q-4 -16 -19 -16h-73q-16 0 -15 18l172 965q2 12 17 18q188 76 382 76t292 -113q96 -114 57 -323l-119 -668q-66 -381 -338 -381z" />
    <glyph glyph-name="Omacron" unicode="&#x14c;" horiz-adv-x="1320" 
d="M1128 1700h-516q-20 0 -16 16l12 64q2 14 19 14h518q20 0 14 -16l-10 -64q-3 -14 -21 -14zM582 82q186 0 319 112t164 287l86 492q31 180 -60 295q-91 114 -281 114t-320 -112t-160 -295l-86 -486q-31 -175 61 -291q91 -116 277 -116zM826 1487q242 -1 359 -149
q118 -148 79 -375l-86 -490q-37 -221 -203 -358t-407 -137q-242 0 -358 146q-116 148 -77 378l82 483q41 227 205 365t406 137z" />
    <glyph glyph-name="omacron" unicode="&#x14d;" 
d="M440 1362h480q20 0 14 -19l-10 -57q-2 -14 -19 -14h-479q-18 0 -14 16l10 58q4 16 18 16zM442 76q148 0 243 83t120 216l55 307q24 129 -40 214t-210 85t-243 -83q-96 -83 -121 -212l-53 -305q-25 -137 38 -221t211 -84zM434 -23q-192 0 -287 119q-94 119 -63 293l55 307
q31 168 160 274t321 107q192 0 286 -118q93 -118 63 -287l-56 -305q-33 -174 -161 -282q-126 -108 -318 -108z" />
    <glyph glyph-name="Ohungarumlaut" unicode="&#x150;" horiz-adv-x="1320" 
d="M985 1612h-63q-10 0 -15 6q-4 6 4 14l271 277q8 8 22 8h90q10 0 14 -6t-5 -15l-295 -276q-9 -8 -23 -8zM668 1612h-68q-10 0 -13 6t5 14l258 277q8 8 20 8h88q10 0 14 -6t-3 -15l-281 -274q-6 -10 -20 -10zM582 82q186 0 319 112t164 287l86 492q31 180 -60 295
q-91 114 -281 114t-320 -112t-160 -295l-86 -486q-31 -175 61 -291q91 -116 277 -116zM826 1487q242 -1 359 -149q118 -148 79 -375l-86 -490q-37 -221 -203 -358t-407 -137q-242 0 -358 146q-116 148 -77 378l82 483q41 227 205 365t406 137z" />
    <glyph glyph-name="ohungarumlaut" unicode="&#x151;" 
d="M770 1225h-47q-23 0 -10 20l213 275q8 10 20 10h68q25 0 8 -21l-231 -274q-7 -10 -21 -10zM508 1225h-47q-10 0 -14 6q-3 6 4 14l198 275q8 10 21 10h67q9 0 13 -6t-2 -15l-220 -274q-6 -10 -20 -10zM442 76q148 0 243 83t120 216l55 307q24 129 -40 214t-210 85
t-243 -83q-96 -83 -121 -212l-53 -305q-25 -137 38 -221t211 -84zM434 -23q-192 0 -287 119q-94 119 -63 293l55 307q31 168 160 274t321 107q192 0 286 -118q93 -118 63 -287l-56 -305q-33 -174 -161 -282q-126 -108 -318 -108z" />
    <glyph glyph-name="OE" unicode="&#x152;" horiz-adv-x="1921" 
d="M544 84q167 0 301 100t161 258l94 551q28 170 -60 279q-88 110 -257 110t-293 -104t-154 -274l-90 -523q-31 -173 50 -285t248 -112zM1931 1360h-653l-98 -561h616q18 0 14 -19l-10 -69q-4 -16 -18 -17h-621l-102 -588h670q20 0 16 -16l-14 -76q-4 -14 -19 -14h-766
q-20 0 -16 18l33 170q-70 -96 -185 -153t-250 -58q-210 -1 -324 147t-73 368l92 520q37 217 197 346t368 129q130 1 224 -61t135 -169l33 191q0 16 18 16h748q16 0 16 -18l-12 -70q-4 -16 -19 -16z" />
    <glyph glyph-name="oe" unicode="&#x153;" horiz-adv-x="1710" 
d="M1294 981q-131 0 -226 -77t-118 -212l-22 -125h583l23 127q27 137 -41 212t-199 75zM428 76q144 0 238 82t118 215l56 311q24 129 -40 213t-206 84t-234 -83t-116 -212l-54 -305q-26 -137 34 -221t204 -84zM416 -23q-182 0 -274 119q-91 119 -60 293l55 307
q31 166 156 274t307 107q127 0 209 -56t111 -155q61 100 162 156t221 55q178 0 273 -104t62 -287l-36 -197q0 -16 -19 -16h-672l-22 -119q-23 -128 50 -204t198 -76q168 0 336 135q14 12 24 -2l33 -51q10 -16 -2 -23q-180 -156 -404 -156q-114 -1 -200 55t-117 156
q-133 -211 -391 -211z" />
    <glyph glyph-name="Racute" unicode="&#x154;" horiz-adv-x="1212" 
d="M762 1612h-66q-10 0 -13 6t5 14l262 277q8 8 23 8h92q10 0 14 -6t-4 -15l-291 -276q-8 -8 -22 -8zM657 702q180 0 291 81q110 81 138 242t-51 249t-259 88h-330l-114 -660h325zM193 0h-80q-18 0 -15 18l252 1430q0 16 19 16h422q225 0 333 -127t76 -317
q-33 -190 -157 -296t-318 -120l328 -584q10 -20 -13 -20h-90q-14 0 -20 10l-322 590h-295l-102 -584q0 -16 -18 -16z" />
    <glyph glyph-name="racute" unicode="&#x155;" horiz-adv-x="722" 
d="M516 1225h-57q-10 0 -14 6q-3 6 4 14l213 275q6 10 20 10h82q25 0 8 -21l-235 -274q-7 -10 -21 -10zM145 0h-73q-18 0 -15 18l166 967q2 10 17 21q166 72 338 71q84 0 190 -18q16 -4 14 -19l-10 -63q-4 -16 -20 -14q-86 16 -201 16t-229 -49l-156 -914q-5 -16 -21 -16z
" />
    <glyph glyph-name="uni0156" unicode="&#x156;" horiz-adv-x="1212" 
d="M416 -481h-56q-18 0 -10 18l135 297q6 12 21 12h76q20 0 12 -18l-160 -297q-6 -12 -18 -12zM657 702q180 0 291 81q110 81 138 242t-51 249t-259 88h-330l-114 -660h325zM193 0h-80q-18 0 -15 18l252 1430q0 16 19 16h422q225 0 333 -127t76 -317q-33 -190 -157 -296
t-318 -120l328 -584q10 -20 -13 -20h-90q-14 0 -20 10l-322 590h-295l-102 -584q0 -16 -18 -16z" />
    <glyph glyph-name="uni0157" unicode="&#x157;" horiz-adv-x="722" 
d="M-16 -461h-47q-20 0 -13 19l121 276q4 14 18 14h68q18 0 12 -20l-139 -277q-4 -12 -20 -12zM143 0h-73q-16 0 -15 18l166 967q2 10 17 21q166 72 337 71q84 0 191 -18q16 -4 14 -19l-10 -63q-4 -16 -20 -14q-86 16 -201 16t-230 -49l-155 -914q-5 -16 -21 -16z" />
    <glyph glyph-name="Rcaron" unicode="&#x158;" horiz-adv-x="1212" 
d="M1026 1917h80q10 0 13 -6t-5 -15l-291 -276q-6 -8 -20 -8h-70q-14 0 -20 10l-199 274q-12 20 10 21h76q14 0 21 -10l155 -217l228 219q8 8 22 8zM657 702q180 0 291 81q110 81 138 242t-51 249t-259 88h-330l-114 -660h325zM193 0h-80q-18 0 -15 18l252 1430q0 16 19 16
h422q225 0 333 -127t76 -317q-33 -190 -157 -296t-318 -120l328 -584q10 -20 -13 -20h-90q-14 0 -20 10l-322 590h-295l-102 -584q0 -16 -18 -16z" />
    <glyph glyph-name="rcaron" unicode="&#x159;" horiz-adv-x="722" 
d="M401 1532q14 0 21 -12l139 -222l223 224q10 10 23 10h74q10 0 13 -6t-5 -15l-281 -276q-6 -8 -20 -8h-68q-12 0 -20 10l-176 274q-10 20 10 21h67zM145 0h-73q-18 0 -15 18l166 967q2 10 17 21q166 72 338 71q84 0 190 -18q16 -4 14 -19l-10 -63q-4 -16 -20 -14
q-86 16 -201 16t-229 -49l-156 -914q-5 -16 -21 -16z" />
    <glyph glyph-name="Sacute" unicode="&#x15a;" horiz-adv-x="1153" 
d="M739 1612h-65q-10 0 -14 6q-3 6 6 14l262 277q8 8 22 8h92q10 0 14 -6t-3 -15l-291 -276q-9 -8 -23 -8zM512 84q164 0 279 78t139 215t-88 212q-91 61 -216 98q-124 38 -190 72t-126 86q-129 112 -91 308q31 168 168 251t336 83q131 0 230 -40t202 -126q16 -10 4 -23
l-49 -55q-10 -12 -25 -2q-168 139 -376 139q-147 0 -251 -61t-128 -186q-24 -146 66 -216q89 -70 211 -108q122 -37 193 -70q72 -33 138 -84q138 -106 102 -297q-35 -190 -181 -285t-357 -96q-142 1 -246 47t-211 148q-12 12 0 25l45 53q14 10 25 0q178 -166 397 -166z" />
    <glyph glyph-name="sacute" unicode="&#x15b;" horiz-adv-x="942" 
d="M582 1225h-58q-10 0 -13 6t3 14l213 275q6 10 21 10h81q25 0 9 -21l-236 -274q-6 -10 -20 -10zM387 -23q-221 0 -375 136q-12 12 -2 24l35 49q12 14 25 4q135 -117 325 -116q131 0 217 51t104 145t-45 138q-62 44 -206 79q-365 98 -324 332q23 125 141 192t292 67
t329 -101q14 -10 2 -23l-39 -55q-12 -8 -24 -4q-119 86 -291 86q-121 0 -205 -47t-99 -139t74 -143q72 -43 213 -78q140 -35 227 -110t62 -208t-143 -206t-293 -73z" />
    <glyph glyph-name="Scedilla" unicode="&#x15e;" horiz-adv-x="1153" 
d="M422 -420q-68 0 -117 21q-16 4 -12 18l4 37q0 18 18 14q47 -16 97 -16q139 0 155 96q10 45 -19 66q-30 20 -110 22q-14 0 -19 9t1 20l59 110q-135 5 -234 51t-200 144q-12 12 0 25l45 53q14 10 25 0q178 -166 397 -166q164 0 279 78t139 215t-88 212q-91 61 -216 98
q-124 38 -190 72t-126 86q-129 112 -91 308q31 168 168 251t336 83q131 0 230 -40t202 -126q16 -10 4 -23l-49 -55q-10 -12 -25 -2q-168 139 -376 139q-147 0 -251 -61t-128 -186q-24 -146 66 -216q89 -70 211 -108q122 -37 193 -70q72 -33 138 -84q138 -106 103 -290
q-33 -183 -163 -278t-321 -107l-53 -95q80 -2 123 -42t30 -109q-27 -154 -235 -154z" />
    <glyph glyph-name="scedilla" unicode="&#x15f;" horiz-adv-x="942" 
d="M293 -418q-61 0 -119 21q-12 4 -12 18l4 37q0 16 18 12q48 -16 104 -16t99 27t50 73t-22 65q-30 19 -75 20t-51 9t2 21l59 111q-199 8 -338 133q-12 12 -2 24l35 49q12 14 25 4q135 -117 325 -116q131 0 217 51t104 145t-45 138q-62 44 -206 79q-365 98 -324 332
q23 125 141 192t292 67t329 -101q14 -10 2 -23l-39 -55q-12 -8 -24 -4q-119 86 -291 86q-121 0 -205 -47t-99 -139t74 -143q72 -43 213 -78q140 -35 227 -110t63 -204t-132 -201t-266 -79l-55 -93q80 -2 123 -42t30 -107q-29 -156 -231 -156z" />
    <glyph glyph-name="Scaron" unicode="&#x160;" horiz-adv-x="1153" 
d="M1010 1917h80q10 0 13 -6t-5 -15l-291 -276q-6 -8 -21 -8h-69q-14 0 -21 10l-198 274q-12 20 10 21h76q14 0 20 -10l156 -217l227 219q9 8 23 8zM512 84q164 0 279 78t139 215t-88 212q-91 61 -216 98q-124 38 -190 72t-126 86q-129 112 -91 308q31 168 168 251t336 83
q131 0 230 -40t202 -126q16 -10 4 -23l-49 -55q-10 -12 -25 -2q-168 139 -376 139q-147 0 -251 -61t-128 -186q-24 -146 66 -216q89 -70 211 -108q122 -37 193 -70q72 -33 138 -84q138 -106 102 -297q-35 -190 -181 -285t-357 -96q-142 1 -246 47t-211 148q-12 12 0 25
l45 53q14 10 25 0q178 -166 397 -166z" />
    <glyph glyph-name="scaron" unicode="&#x161;" horiz-adv-x="942" 
d="M453 1532q14 0 20 -12l139 -222l224 224q10 10 22 10h74q10 0 13 -6t-5 -15l-281 -276q-6 -8 -20 -8h-68q-12 0 -20 10l-176 274q-10 20 10 21h68zM387 -23q-221 0 -375 136q-12 12 -2 24l35 49q12 14 25 4q135 -117 325 -116q131 0 217 51t104 145t-45 138
q-62 44 -206 79q-365 98 -324 332q23 125 141 192t292 67t329 -101q14 -10 2 -23l-39 -55q-12 -8 -24 -4q-119 86 -291 86q-121 0 -205 -47t-99 -139t74 -143q72 -43 213 -78q140 -35 227 -110t62 -208t-143 -206t-293 -73z" />
    <glyph glyph-name="uni0162" unicode="&#x162;" horiz-adv-x="1058" 
d="M201 1464h985q14 0 14 -18l-12 -68q0 -16 -19 -16h-440l-237 -1346q0 -16 -19 -16h-80q-18 0 -12 18l235 1344h-432q-14 0 -14 16l12 70q1 16 19 16zM295 -481h-55q-18 0 -11 18l136 297q6 12 20 12h76q20 0 12 -18l-160 -297q-6 -12 -18 -12z" />
    <glyph glyph-name="uni0163" unicode="&#x163;" horiz-adv-x="579" 
d="M590 952h-266l-113 -635q-41 -244 166 -243q25 0 82 4q20 0 16 -17l-10 -61q-3 -16 -29 -19t-69 -4q-145 -1 -219 91t-44 260l172 975q4 14 19 14h61q16 0 15 -17l-33 -251h268q18 0 15 -17l-11 -63q-4 -17 -20 -17zM160 -461h-47q-20 0 -13 19l121 276q4 14 19 14h67
q18 0 12 -20l-139 -277q-4 -12 -20 -12z" />
    <glyph glyph-name="Tcaron" unicode="&#x164;" horiz-adv-x="1058" 
d="M973 1917h80q10 0 13 -6t-5 -15l-291 -276q-6 -8 -20 -8h-70q-14 0 -21 10l-198 274q-12 20 10 21h76q14 0 20 -10l156 -217l227 219q9 8 23 8zM201 1464h985q14 0 14 -18l-12 -68q0 -16 -19 -16h-440l-237 -1346q0 -16 -19 -16h-80q-18 0 -12 18l235 1344h-432
q-14 0 -14 16l12 70q1 16 19 16z" />
    <glyph glyph-name="tcaron" unicode="&#x165;" horiz-adv-x="579" 
d="M575 1200h-47q-18 0 -10 19l111 276q6 14 20 14h70q18 0 10 -20l-133 -277q-7 -12 -21 -12zM358 1317q20 0 17 -17l-35 -249h268q18 0 15 -19l-11 -61q0 -16 -18 -17h-268l-111 -637q-41 -244 164 -243q41 0 84 6q18 0 14 -17l-10 -63q0 -16 -14 -16q-43 -6 -84 -7
q-143 -1 -217 91t-46 260l173 972q4 16 20 17h59z" />
    <glyph glyph-name="Tbar" unicode="&#x166;" horiz-adv-x="1091" 
d="M1184 1362h-439l-108 -612h266q20 0 15 -17l-9 -51q-2 -14 -18 -14h-268l-115 -652q0 -16 -19 -16h-79q-16 0 -15 18l115 650h-262q-18 0 -15 16l9 49q0 16 18 17h264l109 612h-432q-18 0 -15 16l13 70q0 16 18 16h981q16 0 16 -18l-12 -68q-4 -16 -18 -16z" />
    <glyph glyph-name="tbar" unicode="&#x167;" horiz-adv-x="585" 
d="M53 543q-16 0 -14 18l8 49q4 16 21 17h94l121 673q4 16 18 17h59q16 0 17 -19l-33 -254h270q16 0 15 -18l-11 -61q-4 -16 -18 -17h-272l-56 -321h211q16 0 15 -19l-9 -49q-4 -16 -18 -16h-215l-39 -224q-41 -246 166 -245q25 0 82 4q20 0 16 -17l-10 -63q-5 -14 -31 -17
t-67 -4q-145 -1 -219 91t-43 260l36 215h-94z" />
    <glyph glyph-name="Umacron" unicode="&#x16a;" horiz-adv-x="1335" 
d="M1135 1700h-517q-20 0 -16 16l12 64q2 14 19 14h518q20 0 14 -16l-10 -64q-2 -14 -20 -14zM356 1464h82q16 0 15 -18l-172 -967q-31 -177 55 -287t256 -110t293 108t153 281l170 977q4 16 19 16h80q20 0 16 -18l-174 -987q-37 -213 -194 -347t-376 -134t-333 146t-76 368
l168 956q4 16 18 16z" />
    <glyph glyph-name="umacron" unicode="&#x16b;" horiz-adv-x="1083" 
d="M446 1362h480q20 0 14 -19l-10 -57q-2 -14 -19 -14h-479q-18 0 -14 16l10 58q4 16 18 16zM942 1055h76q18 0 14 -19l-174 -964q-2 -12 -14 -19q-188 -76 -383 -76t-289 116t-55 321l112 624q0 16 19 17h74q20 0 14 -19l-113 -630q-59 -332 252 -332q133 0 285 53l164 911
q4 17 18 17z" />
    <glyph glyph-name="Uring" unicode="&#x16e;" horiz-adv-x="1335" 
d="M857 1622q58 0 100 36t53 93q10 57 -18 92t-87 35t-103 -36t-54 -94t20 -92t89 -34zM756 1896q66 54 156 54t138 -58t33 -148q-16 -89 -79 -140q-62 -52 -152 -52t-140 58t-36 145q14 88 80 141zM356 1464h82q16 0 15 -18l-172 -967q-31 -177 55 -287t256 -110t293 108
t153 281l170 977q4 16 19 16h80q20 0 16 -18l-174 -987q-37 -213 -194 -347t-376 -134t-333 146t-76 368l168 956q4 16 18 16z" />
    <glyph glyph-name="uring" unicode="&#x16f;" horiz-adv-x="1083" 
d="M706 1528q-58 0 -102 -37t-54 -94t22 -93t88 -36t99 36q42 36 52 93t-18 94q-29 37 -87 37zM651 1198q-86 0 -137 58t-36 146t80 141q65 52 153 52t137 -59t35 -146q-14 -88 -80 -140t-152 -52zM942 1055h76q18 0 14 -19l-174 -964q-2 -12 -14 -19q-188 -76 -383 -76
t-289 116t-55 321l112 624q0 16 19 17h74q20 0 14 -19l-113 -630q-59 -332 252 -332q133 0 285 53l164 911q4 17 18 17z" />
    <glyph glyph-name="Uhungarumlaut" unicode="&#x170;" horiz-adv-x="1335" 
d="M995 1612h-63q-10 0 -14 6t4 14l270 277q8 8 22 8h91q10 0 13 -6t-5 -15l-295 -276q-9 -8 -23 -8zM678 1612h-68q-10 0 -13 6t5 14l258 277q8 8 21 8h88q10 0 14 -6t-4 -15l-281 -274q-6 -10 -20 -10zM356 1464h82q16 0 15 -18l-172 -967q-31 -177 55 -287t256 -110
t293 108t153 281l170 977q4 16 19 16h80q20 0 16 -18l-174 -987q-37 -213 -194 -347t-376 -134t-333 146t-76 368l168 956q4 16 18 16z" />
    <glyph glyph-name="uhungarumlaut" unicode="&#x171;" horiz-adv-x="1083" 
d="M774 1225h-47q-23 0 -10 20l213 275q8 10 20 10h68q25 0 8 -21l-231 -274q-7 -10 -21 -10zM512 1225h-47q-10 0 -13 6t3 14l198 275q8 10 21 10h67q9 0 13 -6t-2 -15l-220 -274q-6 -10 -20 -10zM942 1055h76q18 0 14 -19l-174 -964q-2 -12 -14 -19q-188 -76 -383 -76
t-289 116t-55 321l112 624q0 16 19 17h74q20 0 14 -19l-113 -630q-59 -332 252 -332q133 0 285 53l164 911q4 17 18 17z" />
    <glyph glyph-name="Uogonek" unicode="&#x172;" horiz-adv-x="1335" 
d="M655 -408q-77 0 -115 48t-24 127q25 127 170 229q-63 -18 -115 -19q-219 1 -331 145t-72 367l168 959q0 16 18 16h82q18 0 15 -18l-170 -969q-31 -177 54 -285t254 -108t293 108t152 277l172 979q0 16 19 16h82q16 0 14 -18l-174 -989q-49 -285 -305 -418
q-98 -57 -158 -126t-70 -122q-23 -100 70 -100q53 0 107 24q18 10 22 -10l8 -55q4 -17 -12 -21q-78 -37 -154 -37z" />
    <glyph glyph-name="uogonek" unicode="&#x173;" horiz-adv-x="1071" 
d="M561 -408q-80 0 -123 50t-28 127q23 135 217 233l32 16q-113 -41 -198 -41q-190 0 -286 111q-95 111 -58 315l110 635q4 16 21 17h71q20 0 15 -19l-113 -641q-59 -319 246 -319q131 0 285 57l161 905q4 16 21 17h72q20 0 14 -19l-172 -962q-4 -16 -14 -19
q-90 -39 -150 -71t-114 -84q-52 -51 -62 -107q-18 -102 76 -102q55 0 121 28q18 10 18 -12l6 -53q0 -15 -14 -21q-74 -41 -154 -41z" />
    <glyph glyph-name="Wcircumflex" unicode="&#x174;" horiz-adv-x="1822" 
d="M883 1612h-80q-10 0 -13 6t5 14l290 277q6 8 21 8h70q14 0 20 -10l199 -275q12 -20 -11 -20h-75q-14 0 -21 10l-155 217l-228 -219q-8 -8 -22 -8zM438 0h-96q-16 0 -18 16l-136 1430q-4 18 15 18h84q16 0 16 -16l78 -883q6 -81 16 -233t15 -195h4q10 23 80 188t110 253
l395 854q8 12 21 12h96q18 0 19 -17l98 -858q8 -71 21 -221t20 -211h4q115 299 182 453l375 862q6 12 18 12h89q18 0 12 -20l-635 -1432q-8 -12 -21 -12h-96q-16 0 -18 16l-94 813q-43 406 -48 447h-4q-88 -211 -196 -445l-385 -819q-9 -12 -21 -12z" />
    <glyph glyph-name="wcircumflex" unicode="&#x175;" horiz-adv-x="1462" 
d="M1124 1223h-67q-14 0 -21 12l-139 221l-223 -223q-10 -10 -23 -10h-73q-10 0 -14 6q-3 6 5 14l281 277q6 8 20 8h68q12 0 20 -10l177 -275q10 -20 -11 -20zM274 -2q-18 0 -18 16l-127 1022q0 16 16 17h74q18 0 19 -17l71 -598q23 -229 29 -311h2q37 96 127 295l291 598
q6 12 18 12h84q18 0 19 -14l75 -606q20 -164 27 -285h2q92 219 139 322l281 591q6 12 20 13h78q23 0 12 -19l-487 -1022q-6 -14 -20 -14h-88q-16 0 -19 18l-76 629q-12 113 -22 258h-2q-63 -156 -111 -258l-305 -633q-6 -14 -21 -14h-88z" />
    <glyph glyph-name="Ycircumflex" unicode="&#x176;" horiz-adv-x="1064" 
d="M506 1612h-80q-10 0 -13 6t5 14l291 277q6 8 20 8h70q14 0 20 -10l199 -275q12 -20 -10 -20h-76q-14 0 -21 10l-155 217l-228 -219q-8 -8 -22 -8zM481 0h-80q-20 0 -14 18l96 549l-311 877q-6 20 12 20h86q14 0 17 -14l268 -778h2l530 782q6 10 19 10h94q25 0 12 -20
l-612 -877l-100 -551q-1 -16 -19 -16z" />
    <glyph glyph-name="ycircumflex" unicode="&#x177;" horiz-adv-x="1087" 
d="M940 1225h-68q-14 0 -20 12l-139 221l-224 -223q-10 -10 -22 -10h-74q-10 0 -13 6t5 14l281 277q6 8 20 8h68q12 0 20 -10l176 -275q10 -20 -10 -20zM1016 1055q20 0 16 -19l-186 -1044q-35 -188 -152 -294q-116 -106 -326 -106t-345 146q-10 14 0 24l43 52q12 12 24 0
q121 -125 284 -125t252 85t113 228l19 100q-150 -61 -291 -61q-188 0 -284 109q-95 109 -58 307l104 581q4 16 21 17h72q18 0 16 -19l-107 -590q-57 -309 252 -309q158 0 291 74l148 827q4 16 20 17h74z" />
    <glyph glyph-name="Ydieresis" unicode="&#x178;" horiz-adv-x="1064" 
d="M954 1800q32 0 50 -22q16 -23 10 -54q-10 -70 -78 -69q-35 1 -50 23t-12 53q4 31 26 50t54 19zM629 1724q-10 -70 -78 -69q-35 1 -51 23t-13 53q14 70 80 69q35 0 51 -22t11 -54zM481 0h-80q-20 0 -14 18l96 549l-311 877q-6 20 12 20h86q14 0 17 -14l268 -778h2l530 782
q6 10 19 10h94q25 0 12 -20l-612 -877l-100 -551q-1 -16 -19 -16z" />
    <glyph glyph-name="Zacute" unicode="&#x179;" horiz-adv-x="1107" 
d="M709 1612h-66q-10 0 -13 6t5 14l262 277q8 8 23 8h92q10 0 14 -6t-4 -15l-291 -276q-8 -8 -22 -8zM932 0h-938q-18 0 -17 18l11 52q0 8 8 20l1026 1272h-762q-18 0 -14 16l12 72q4 14 21 14h892q20 0 17 -18l-8 -49q0 -4 -9 -21l-1024 -1272h801q18 0 17 -18l-15 -72
q-4 -14 -18 -14z" />
    <glyph glyph-name="zacute" unicode="&#x17a;" horiz-adv-x="892" 
d="M537 1225h-58q-10 0 -13 6t3 14l213 275q6 10 20 10h82q25 0 9 -21l-236 -274q-6 -10 -20 -10zM723 0h-733q-18 0 -17 18l7 41q2 8 10 21l758 878h-560q-18 0 -14 19l10 61q4 16 19 17h690q16 0 16 -19l-6 -35q-2 -8 -10 -20l-758 -885h602q20 0 17 -16l-13 -66
q-4 -14 -18 -14z" />
    <glyph glyph-name="Zdotaccent" unicode="&#x17b;" horiz-adv-x="1107" 
d="M815 1720q-10 -76 -88 -75q-39 -1 -56 25t-13 60t29 56t61 20q36 0 55 -25q18 -26 12 -61zM932 0h-938q-18 0 -17 18l11 52q0 8 8 20l1026 1272h-762q-18 0 -14 16l12 72q4 14 21 14h892q20 0 17 -18l-8 -49q0 -4 -9 -21l-1024 -1272h801q18 0 17 -18l-15 -72
q-4 -14 -18 -14z" />
    <glyph glyph-name="zdotaccent" unicode="&#x17c;" horiz-adv-x="892" 
d="M580 1272q-32 0 -51 23q-19 24 -14 57t28 51t55 18q32 1 52 -23t15 -57t-29 -51t-56 -18zM723 0h-733q-18 0 -17 18l7 41q2 8 10 21l758 878h-560q-18 0 -14 19l10 61q4 16 19 17h690q16 0 16 -19l-6 -35q-2 -8 -10 -20l-758 -885h602q20 0 17 -16l-13 -66
q-4 -14 -18 -14z" />
    <glyph glyph-name="Zcaron" unicode="&#x17d;" horiz-adv-x="1107" 
d="M991 1917h80q10 0 13 -6t-5 -15l-291 -276q-6 -8 -20 -8h-70q-14 0 -20 10l-199 274q-12 20 10 21h76q14 0 21 -10l155 -217l228 219q8 8 22 8zM932 0h-938q-18 0 -17 18l11 52q0 8 8 20l1026 1272h-762q-18 0 -14 16l12 72q4 14 21 14h892q20 0 17 -18l-8 -49
q0 -4 -9 -21l-1024 -1272h801q18 0 17 -18l-15 -72q-4 -14 -18 -14z" />
    <glyph glyph-name="zcaron" unicode="&#x17e;" horiz-adv-x="892" 
d="M422 1532q14 0 20 -12l140 -222l223 224q10 10 22 10h74q10 0 13 -6t-5 -15l-280 -276q-6 -8 -21 -8h-67q-13 0 -21 10l-176 274q-10 20 10 21h68zM723 0h-733q-18 0 -17 18l7 41q2 8 10 21l758 878h-560q-18 0 -14 19l10 61q4 16 19 17h690q16 0 16 -19l-6 -35
q-2 -8 -10 -20l-758 -885h602q20 0 17 -16l-13 -66q-4 -14 -18 -14z" />
    <glyph glyph-name="florin" unicode="&#x192;" horiz-adv-x="835" 
d="M-41 -262q-63 0 -121 24q-14 8 -8 23l20 55q6 16 31 7t81 -9t96 48t77 159l221 641h-182q-18 0 -14 19l18 63q2 14 19 14h192l139 422q47 137 113 210t182 73q66 0 133 -27q14 -2 11 -20l-19 -56q-2 -18 -22 -10q-44 18 -108 18t-110 -54t-85 -171l-127 -385h209
q20 0 14 -18l-19 -64q-6 -14 -20 -14h-215l-229 -676q-88 -272 -277 -272z" />
    <glyph glyph-name="uni0218" unicode="&#x218;" horiz-adv-x="1153" 
d="M375 -481h-56q-18 0 -10 18l135 297q6 12 21 12h76q20 0 12 -18l-160 -297q-6 -12 -18 -12zM512 84q164 0 279 78t139 215t-88 212q-91 61 -216 98q-124 38 -190 72t-126 86q-129 112 -91 308q31 168 168 251t336 83q131 0 230 -40t202 -126q16 -10 4 -23l-49 -55
q-10 -12 -25 -2q-168 139 -376 139q-147 0 -251 -61t-128 -186q-24 -146 66 -216q89 -70 211 -108q122 -37 193 -70q72 -33 138 -84q138 -106 102 -297q-35 -190 -181 -285t-357 -96q-142 1 -246 47t-211 148q-12 12 0 25l45 53q14 10 25 0q178 -166 397 -166z" />
    <glyph glyph-name="uni0219" unicode="&#x219;" horiz-adv-x="942" 
d="M283 -461h-47q-20 0 -13 19l121 276q4 14 18 14h68q18 0 12 -20l-139 -277q-4 -12 -20 -12zM387 -23q-221 0 -375 136q-12 12 -2 24l35 49q12 14 25 4q135 -117 325 -116q131 0 217 51t104 145t-45 138q-62 44 -206 79q-365 98 -324 332q23 125 141 192t292 67t329 -101
q14 -10 2 -23l-39 -55q-12 -8 -24 -4q-119 86 -291 86q-121 0 -205 -47t-99 -139t74 -143q72 -43 213 -78q140 -35 227 -110t62 -208t-143 -206t-293 -73z" />
    <glyph glyph-name="uni021A" unicode="&#x21a;" horiz-adv-x="1058" 
d="M295 -481h-55q-18 0 -11 18l136 297q6 12 20 12h76q20 0 12 -18l-160 -297q-6 -12 -18 -12zM201 1464h985q14 0 14 -18l-12 -68q0 -16 -19 -16h-440l-237 -1346q0 -16 -19 -16h-80q-18 0 -12 18l235 1344h-432q-14 0 -14 16l12 70q1 16 19 16z" />
    <glyph glyph-name="uni021B" unicode="&#x21b;" horiz-adv-x="579" 
d="M160 -461h-47q-20 0 -13 19l121 276q4 14 19 14h67q18 0 12 -20l-139 -277q-4 -12 -20 -12zM590 952h-266l-113 -635q-41 -244 166 -243q25 0 82 4q20 0 16 -17l-10 -61q-3 -16 -29 -19t-69 -4q-145 -1 -219 91t-44 260l172 975q4 14 19 14h61q16 0 15 -17l-33 -251h268
q18 0 15 -17l-11 -63q-4 -17 -20 -17z" />
    <glyph glyph-name="uni0237" unicode="&#x237;" horiz-adv-x="415" 
d="M-152 -307q166 0 213 264l191 1081q4 16 20 17h74q18 0 14 -19l-192 -1087q-66 -356 -328 -357q-96 0 -96 27l12 66q4 16 19 14q39 -6 73 -6z" />
    <glyph glyph-name="circumflex" unicode="&#x2c6;" horiz-adv-x="577" 
d="M688 1225h-67q-14 0 -21 12l-139 221l-223 -223q-10 -10 -23 -10h-74q-10 0 -13 6t5 14l281 277q6 8 20 8h68q12 0 20 -10l176 -275q10 -20 -10 -20z" />
    <glyph glyph-name="caron" unicode="&#x2c7;" horiz-adv-x="575" 
d="M256 1532q14 0 20 -12l140 -222l223 224q10 10 23 10h73q9 0 13 -6t-5 -15l-280 -276q-6 -8 -21 -8h-67q-13 0 -21 10l-176 274q-10 20 10 21h68z" />
    <glyph glyph-name="breve" unicode="&#x2d8;" horiz-adv-x="593" 
d="M434 1298q178 0 242 203q8 16 20 12l56 -10q18 -4 14 -20q-88 -274 -348 -275q-121 0 -186 81t-58 198q0 18 16 18l54 8q16 0 16 -16q-4 -199 174 -199z" />
    <glyph glyph-name="dotaccent" unicode="&#x2d9;" horiz-adv-x="151" 
d="M212 1272q-32 0 -51 24t-15 56q4 33 28 51t56 18t52 -23q19 -24 14 -57t-29 -51q-23 -18 -55 -18z" />
    <glyph glyph-name="ring" unicode="&#x2da;" horiz-adv-x="417" 
d="M341 1268q56 0 98 36q43 36 53 93t-19 94t-87 37t-102 -37t-54 -94q-9 -57 23 -93t88 -36zM332 1198q-86 0 -137 58t-36 146t80 141q65 52 153 52t136 -59q49 -59 35 -146q-14 -88 -80 -140q-65 -52 -151 -52z" />
    <glyph glyph-name="ogonek" unicode="&#x2db;" horiz-adv-x="516" 
d="M91 -408q-85 0 -120 48t-21 120q14 70 72 132q56 62 142 104q12 4 20 4h49q11 0 13 -6t-10 -12q-160 -96 -185 -205q-18 -86 76 -86q57 0 113 24q18 8 18 -12l6 -55q0 -15 -12 -21q-76 -35 -161 -35z" />
    <glyph glyph-name="tilde" unicode="&#x2dc;" horiz-adv-x="598" 
d="M567 1231q-53 0 -132 42t-118 42q-61 0 -98 -66q-8 -14 -22 -4l-39 25q-16 6 -6 22q68 113 170 113q55 0 134 -43q78 -43 122 -43t88 65q10 14 24 7l37 -25q14 -10 8 -20q-68 -115 -168 -115z" />
    <glyph glyph-name="hungarumlaut" unicode="&#x2dd;" horiz-adv-x="532" 
d="M451 1225h-48q-23 0 -10 20l213 275q8 10 21 10h67q25 0 8 -21l-231 -274q-6 -10 -20 -10zM188 1225h-47q-10 0 -13 6t3 14l199 275q8 10 20 10h68q10 0 13 -6t-3 -15l-219 -274q-7 -10 -21 -10z" />
    <glyph glyph-name="gravecomb" unicode="&#x300;" horiz-adv-x="296" 
d="M395 1225h-55q-12 0 -21 12l-126 272q-10 20 12 21h76q14 0 20 -12l107 -273q8 -20 -13 -20z" />
    <glyph glyph-name="acutecomb" unicode="&#x301;" horiz-adv-x="305" 
d="M215 1225h-57q-10 0 -14 6q-3 6 3 14l213 275q4 10 21 10h82q25 0 8 -21l-235 -274q-7 -10 -21 -10z" />
    <glyph glyph-name="uni0302" unicode="&#x302;" horiz-adv-x="600" 
d="M711 1225h-68q-14 0 -20 12l-140 221l-223 -223q-10 -10 -22 -10h-74q-10 0 -13 6t5 14l280 277q6 8 21 8h67q13 0 21 -10l176 -275q10 -20 -10 -20z" />
    <glyph glyph-name="tildecomb" unicode="&#x303;" horiz-adv-x="598" 
d="M567 1231q-53 0 -132 42t-118 42q-61 0 -98 -66q-8 -14 -22 -4l-39 25q-16 6 -6 22q68 113 170 113q55 0 134 -43q78 -43 122 -43t88 65q10 14 24 7l37 -25q14 -10 8 -20q-68 -115 -168 -115z" />
    <glyph glyph-name="uni0304" unicode="&#x304;" horiz-adv-x="514" 
d="M172 1362h479q20 0 15 -19l-11 -57q-2 -14 -18 -14h-479q-19 0 -15 16l11 58q4 16 18 16z" />
    <glyph glyph-name="uni0306" unicode="&#x306;" horiz-adv-x="595" 
d="M434 1298q178 0 242 203q8 16 20 12l56 -10q18 -4 14 -20q-88 -274 -348 -275q-121 0 -186 81t-58 198q0 18 16 18l54 8q16 0 16 -16q-4 -199 174 -199z" />
    <glyph glyph-name="uni0307" unicode="&#x307;" horiz-adv-x="241" 
d="M254 1272q-32 0 -50 24t-14 56q4 33 27 51t55 18t53 -23q19 -24 14 -57t-29 -51t-56 -18z" />
    <glyph glyph-name="uni0308" unicode="&#x308;" horiz-adv-x="512" 
d="M573 1276q-72 0 -59 76q4 31 26 48t54 17q32 1 47 -21q16 -22 10 -57q-14 -63 -78 -63zM208 1276q-32 0 -48 20t-10 54q12 68 77 67q35 0 52 -21q16 -22 10 -54t-28 -49q-21 -17 -53 -17z" />
    <glyph glyph-name="uni030A" unicode="&#x30a;" horiz-adv-x="407" 
d="M339 1268q56 0 98 36t52 93t-18 94q-29 37 -87 37t-102 -37t-54 -94q-9 -57 23 -93t88 -36zM330 1198q-86 0 -137 58t-36 146t80 141q65 52 153 52t136 -59q49 -59 35 -146q-14 -88 -80 -140q-65 -52 -151 -52z" />
    <glyph glyph-name="uni030B" unicode="&#x30b;" horiz-adv-x="534" 
d="M457 1225h-47q-23 0 -11 20l213 275q8 10 21 10h67q25 0 9 -21l-232 -274q-6 -10 -20 -10zM195 1225h-48q-10 0 -13 6t3 14l199 275q8 10 20 10h68q10 0 13 -6t-3 -15l-219 -274q-6 -10 -20 -10z" />
    <glyph glyph-name="uni030C" unicode="&#x30c;" horiz-adv-x="600" 
d="M264 1532q14 0 21 -12l139 -222l223 224q10 10 23 10h73q9 0 13 -6t-4 -15l-281 -276q-6 -8 -20 -8h-68q-13 0 -21 10l-176 274q-10 20 11 21h67z" />
    <glyph glyph-name="uni0312" unicode="&#x312;" horiz-adv-x="215" 
d="M231 1225h-67q-23 0 -10 20l139 277q6 12 20 12h47q20 0 13 -18l-123 -277q-9 -14 -19 -14z" />
    <glyph glyph-name="uni0326" unicode="&#x326;" horiz-adv-x="184" 
d="M-109 -461h-47q-20 0 -12 19l121 276q4 14 18 14h68q18 0 12 -20l-139 -277q-3 -12 -21 -12z" />
    <glyph glyph-name="uni0327" unicode="&#x327;" horiz-adv-x="325" 
d="M-25 -418q-61 0 -118 21q-12 4 -13 18l4 37q0 16 19 12q47 -16 103 -16t100 27q43 27 50 73t-23 64q-29 20 -75 21t-52 9t3 21l68 125q4 12 20 12h39q23 0 13 -20l-60 -99q80 -1 123 -41t31 -108q-29 -156 -232 -156z" />
    <glyph glyph-name="uni0328" unicode="&#x328;" horiz-adv-x="516" 
d="M91 -408q-85 0 -120 48t-21 120q14 70 72 132q56 62 142 104q12 4 20 4h49q11 0 13 -6t-10 -12q-160 -96 -185 -205q-18 -86 76 -86q57 0 113 24q18 8 18 -12l6 -55q0 -15 -12 -21q-76 -35 -161 -35z" />
    <glyph glyph-name="uni0335" unicode="&#x335;" horiz-adv-x="655" 
d="M762 1217h-623q-16 0 -14 18l8 49q0 16 19 16h622q18 0 14 -16l-8 -51q0 -16 -18 -16z" />
    <glyph glyph-name="uni0336" unicode="&#x336;" horiz-adv-x="1036" 
d="M1028 580q16 0 14 -19l-10 -49q-2 -14 -16 -14h-1004q-16 0 -12 16l8 51q0 14 19 15h1001z" />
    <glyph glyph-name="uni0337" unicode="&#x337;" horiz-adv-x="540" 
d="M31 645l596 471q8 8 15 4t3 -14l-12 -74q0 -12 -12 -18l-596 -471q-8 -8 -16 -3q-7 5 -5 15l14 72q1 10 13 18z" />
    <glyph glyph-name="uni0338" unicode="&#x338;" horiz-adv-x="1042" 
d="M35 -80h-70q-20 0 -10 21l1106 1581q6 10 20 10h68q10 0 13 -6t-3 -15l-1104 -1581q-6 -10 -20 -10z" />
    <glyph glyph-name="tonos" unicode="&#x384;" horiz-adv-x="296" 
d="M227 1225h-57q-10 0 -13 6t3 14l213 275q4 10 20 10h82q25 0 8 -21l-235 -274q-7 -10 -21 -10z" />
    <glyph glyph-name="dieresistonos" unicode="&#x385;" horiz-adv-x="577" 
d="M725 1343q-10 -66 -76 -65q-66 0 -57 68q12 68 80 67q29 -1 44 -19t9 -51zM283 1343q-12 -66 -78 -65q-29 0 -45 18t-10 50q10 68 77 67q29 -1 45 -19t11 -51zM385 1225h-47q-23 0 -10 20l178 275q6 10 20 10h68q23 0 12 -21l-200 -274q-11 -10 -21 -10z" />
    <glyph glyph-name="Alphatonos" unicode="&#x386;" horiz-adv-x="1212" 
d="M776 1335h-4l-410 -805h545zM1090 0h-80q-16 0 -21 16l-65 412h-611l-215 -416q-4 -12 -20 -12h-88q-23 0 -13 20l744 1432q6 12 20 12h101q18 0 18 -16l246 -1430q4 -18 -16 -18zM287 1159h-58q-10 0 -13 6t3 15l213 274q6 10 21 10h82q25 0 8 -20l-236 -275
q-6 -10 -20 -10z" />
    <glyph glyph-name="Epsilontonos" unicode="&#x388;" horiz-adv-x="1345" 
d="M1356 1362h-676l-98 -563h637q18 0 14 -17l-12 -69q0 -16 -19 -17h-637l-104 -592h694q14 0 14 -18l-10 -70q-4 -16 -20 -16h-793q-18 0 -14 18l252 1430q0 16 18 16h770q14 0 14 -18l-12 -68q0 -16 -18 -16zM209 1159h-57q-10 0 -14 6q-3 6 3 15l213 274q6 10 21 10h82
q25 0 8 -20l-236 -275q-6 -10 -20 -10z" />
    <glyph glyph-name="Etatonos" unicode="&#x389;" horiz-adv-x="1581" 
d="M1464 1464h80q16 0 15 -18l-252 -1430q-4 -16 -21 -16h-78q-16 0 -14 18l121 676h-731l-121 -678q0 -16 -19 -16h-79q-16 0 -15 18l252 1430q4 16 21 16h77q16 0 15 -18l-115 -649h731l115 651q0 16 18 16zM207 1159h-57q-10 0 -14 6q-3 6 3 15l213 274q4 10 21 10h82
q25 0 8 -20l-236 -275q-6 -10 -20 -10z" />
    <glyph glyph-name="Iotatonos" unicode="&#x38a;" horiz-adv-x="698" 
d="M406 0h-80q-18 0 -15 18l252 1430q4 16 21 16h78q18 0 14 -18l-252 -1430q0 -16 -18 -16zM209 1159h-57q-10 0 -14 6q-3 6 3 15l213 274q6 10 21 10h82q25 0 8 -20l-236 -275q-6 -10 -20 -10z" />
    <glyph glyph-name="Omicrontonos" unicode="&#x38c;" horiz-adv-x="1509" 
d="M771 82q185 0 319 112q133 112 163 287l86 492q31 180 -60 295q-91 114 -281 114t-320 -112t-160 -295l-86 -486q-30 -175 62 -291t277 -116zM1014 1487q242 -1 360 -149t78 -375l-86 -490q-37 -221 -203 -358q-167 -137 -407 -137t-357 146q-117 148 -77 378l81 483
q41 227 205 365t406 137zM213 1159h-57q-10 0 -14 6q-3 6 3 15l213 274q6 10 21 10h82q25 0 8 -20l-236 -275q-6 -10 -20 -10z" />
    <glyph glyph-name="Upsilontonos" unicode="&#x38e;" horiz-adv-x="1495" 
d="M911 0h-80q-20 0 -14 18l96 549l-311 877q-6 20 12 20h86q14 0 17 -14l268 -778h2l531 782q6 10 18 10h94q25 0 12 -20l-612 -877l-100 -551q-1 -16 -19 -16zM229 1159h-57q-10 0 -13 6t3 15l213 274q6 10 20 10h82q25 0 8 -20l-235 -275q-7 -10 -21 -10z" />
    <glyph glyph-name="Omegatonos" unicode="&#x38f;" horiz-adv-x="1488" 
d="M217 1159h-57q-10 0 -14 6q-3 6 4 15l212 274q6 10 21 10h82q25 0 8 -20l-235 -275q-7 -10 -21 -10zM618 0h-372q-20 0 -15 18l13 70q2 14 18 14h223q-92 86 -134 214t-17 276l63 356q47 262 208 400t391 139q230 -1 345 -147t68 -416l-61 -353q-25 -135 -111 -258
t-207 -211h215q18 0 15 -18l-13 -68q0 -16 -18 -16h-373q-20 0 -16 18l6 45q2 12 16 19q152 78 249 210t126 298l59 350q80 438 -313 442q-186 0 -311 -112t-164 -338l-62 -344q-57 -338 187 -508q10 -2 10 -21l-6 -43q-3 -16 -19 -16z" />
    <glyph glyph-name="iotadieresistonos" unicode="&#x390;" horiz-adv-x="608" 
d="M578 1413q63 0 53 -68t-76 -67q-66 0 -57 68q12 68 80 67zM297 1225h-43q-23 0 -10 20l182 275q4 10 20 10h64q25 0 10 -21l-203 -274q-6 -10 -20 -10zM154 1278q-28 0 -45 18q-16 18 -13 50q12 68 78 67q31 -1 46 -19t10 -50q-4 -32 -26 -49t-50 -17zM145 0h-71
q-20 0 -17 18l183 1020q0 16 18 17h74q20 0 14 -19l-180 -1020q-5 -16 -21 -16z" />
    <glyph glyph-name="Alpha" unicode="&#x391;" horiz-adv-x="1167" 
d="M731 1335h-4l-410 -805h545zM1044 0h-79q-16 0 -21 16l-65 412h-611l-215 -416q-4 -12 -20 -12h-88q-23 0 -13 20l744 1432q6 12 20 12h101q18 0 18 -16l246 -1430q3 -18 -17 -18z" />
    <glyph glyph-name="Beta" unicode="&#x392;" horiz-adv-x="1232" 
d="M723 825q133 0 224 73t112 198q47 266 -264 266h-346l-95 -537h369zM559 102q186 0 298 83q113 83 139 233t-45 227q-71 78 -238 78h-377l-109 -621h332zM543 0h-430q-18 0 -15 18l254 1430q0 16 19 16h446q213 0 298 -108t56 -275q-43 -233 -264 -303q123 -35 174 -129
t27 -237q-67 -412 -565 -412z" />
    <glyph glyph-name="Gamma" unicode="&#x393;" horiz-adv-x="987" 
d="M190 0h-77q-18 0 -15 18l250 1430q4 16 21 16h739q18 0 16 -18l-14 -70q-4 -16 -18 -16h-646l-235 -1344q-5 -16 -21 -16z" />
    <glyph glyph-name="uni0394" unicode="&#x394;" horiz-adv-x="1191" 
d="M741 1333l-647 -1231h864l-213 1231h-4zM707 1464h110q16 0 19 -14l249 -1432q4 -18 -14 -18h-1130q-27 0 -13 20l760 1432q7 12 19 12z" />
    <glyph glyph-name="Epsilon" unicode="&#x395;" horiz-adv-x="1112" 
d="M1122 1362h-676l-98 -563h637q18 0 14 -17l-12 -69q0 -16 -18 -17h-637l-105 -592h695q14 0 14 -18l-10 -70q-4 -16 -21 -16h-792q-18 0 -15 18l252 1430q0 16 19 16h770q14 0 14 -18l-12 -68q0 -16 -19 -16z" />
    <glyph glyph-name="Zeta" unicode="&#x396;" horiz-adv-x="1107" 
d="M932 0h-938q-18 0 -17 18l11 52q0 8 8 20l1026 1272h-762q-18 0 -14 16l12 72q4 14 21 14h892q20 0 17 -18l-8 -49q0 -4 -9 -21l-1024 -1272h801q18 0 17 -18l-15 -72q-4 -14 -18 -14z" />
    <glyph glyph-name="Eta" unicode="&#x397;" horiz-adv-x="1329" 
d="M1212 1464h80q18 0 15 -18l-252 -1430q-4 -16 -21 -16h-78q-18 0 -14 18l121 676h-731l-121 -678q0 -16 -18 -16h-80q-18 0 -15 18l252 1430q4 16 21 16h78q18 0 14 -18l-115 -649h731l115 651q0 16 18 16z" />
    <glyph glyph-name="Theta" unicode="&#x398;" horiz-adv-x="1320" 
d="M582 82q186 0 319 112t164 287l86 492q31 180 -60 295q-91 114 -281 114t-320 -112t-160 -295l-86 -486q-31 -175 61 -291q91 -116 277 -116zM826 1487q242 -1 359 -149q118 -148 79 -375l-86 -490q-37 -221 -203 -358t-407 -137q-242 0 -358 146q-116 148 -77 378
l82 483q41 227 205 365t406 137zM1012 795q18 0 14 -17l-12 -65q-4 -16 -19 -17h-602q-20 1 -16 19l12 65q2 14 19 15h604z" />
    <glyph glyph-name="Iota" unicode="&#x399;" horiz-adv-x="485" 
d="M193 0h-80q-18 0 -15 18l252 1430q4 16 21 16h78q18 0 14 -18l-252 -1430q0 -16 -18 -16z" />
    <glyph glyph-name="Kappa" unicode="&#x39a;" horiz-adv-x="1185" 
d="M1178 1464h108q10 0 13 -6t-5 -14l-704 -643l489 -781q12 -20 -10 -20h-94q-12 0 -19 10l-450 717l-201 -176l-94 -535q-4 -16 -18 -16h-80q-18 0 -15 18l250 1430q4 16 19 16h79q16 0 15 -18l-129 -739l823 749q13 8 23 8z" />
    <glyph glyph-name="Lambda" unicode="&#x39b;" horiz-adv-x="1193" 
d="M33 0h-90q-23 0 -13 20l762 1432q4 12 19 12h108q18 0 21 -14l250 -1432q4 -18 -17 -18h-80q-18 0 -18 14l-225 1319h-5l-692 -1321q-6 -12 -20 -12z" />
    <glyph glyph-name="Mu" unicode="&#x39c;" horiz-adv-x="1624" 
d="M193 0h-80q-18 0 -15 18l252 1430q0 16 19 16h96q12 0 18 -14l234 -688l84 -277h2q31 43 99 149t89 134l475 686q8 10 21 10h98q20 0 17 -18l-252 -1430q-4 -16 -19 -16h-80q-18 0 -14 18l123 707q63 365 100 549h-4q-106 -170 -207 -313l-413 -603q-8 -12 -21 -12h-63
q-12 0 -17 14l-209 621q-18 55 -50 155t-44 138h-2q-39 -238 -100 -576l-119 -682q0 -16 -18 -16z" />
    <glyph glyph-name="Nu" unicode="&#x39d;" horiz-adv-x="1380" 
d="M193 0h-80q-18 0 -15 18l252 1430q0 16 19 16h92q14 0 20 -12l541 -1282h4q74 467 92 565l125 713q4 16 21 16h77q18 0 15 -18l-250 -1430q-4 -16 -21 -16h-92q-12 0 -18 12l-395 906q-68 156 -148 364h-4q-33 -225 -88 -526l-129 -740q0 -16 -18 -16z" />
    <glyph glyph-name="Xi" unicode="&#x39e;" horiz-adv-x="1052" 
d="M848 0h-828q-20 0 -16 18l14 70q6 14 21 14h827q20 0 15 -16l-15 -72q-4 -14 -18 -14zM905 696h-694q-14 0 -14 19l12 69q0 16 18 17h693q18 0 16 -19l-12 -69q-5 -17 -19 -17zM1071 1362h-795q-18 0 -14 16l12 70q4 16 21 16h792q16 0 17 -18l-14 -68q-5 -16 -19 -16z
" />
    <glyph glyph-name="Omicron" unicode="&#x39f;" horiz-adv-x="1320" 
d="M582 82q186 0 319 112t164 287l86 492q31 180 -60 295q-91 114 -281 114t-320 -112t-160 -295l-86 -486q-31 -175 61 -291q91 -116 277 -116zM826 1487q242 -1 359 -149q118 -148 79 -375l-86 -490q-37 -221 -203 -358t-407 -137q-242 0 -358 146q-116 148 -77 378
l82 483q41 227 205 365t406 137z" />
    <glyph glyph-name="Pi" unicode="&#x3a0;" horiz-adv-x="1327" 
d="M190 0h-79q-16 0 -15 18l256 1430q4 16 21 16h919q20 0 15 -18l-256 -1430q-4 -16 -21 -16h-78q-20 0 -14 18l242 1340h-729l-242 -1342q-1 -16 -19 -16z" />
    <glyph glyph-name="Rho" unicode="&#x3a1;" horiz-adv-x="1210" 
d="M641 649q399 0 461 344q31 181 -52 275t-270 94h-329l-127 -713h317zM371 1464h426q229 0 343 -132t74 -349q-78 -434 -583 -434h-324l-94 -533q-4 -16 -18 -16h-82q-18 0 -15 18l254 1430q1 16 19 16z" />
    <glyph glyph-name="Sigma" unicode="&#x3a3;" horiz-adv-x="1034" 
d="M846 0h-846q-16 0 -14 18l8 50q0 10 10 20l586 666l-352 626q-4 14 -2 23l6 45q0 16 18 16h846q20 0 14 -18l-12 -70q-2 -14 -18 -14h-713q8 -12 26 -46q19 -34 105 -184t209 -364q8 -18 -2 -29l-457 -524q-61 -70 -104 -113h710q18 0 15 -16l-13 -70q-4 -16 -20 -16z
" />
    <glyph glyph-name="Tau" unicode="&#x3a4;" horiz-adv-x="1058" 
d="M201 1464h985q14 0 14 -18l-12 -68q0 -16 -19 -16h-440l-237 -1346q0 -16 -19 -16h-80q-18 0 -12 18l235 1344h-432q-14 0 -14 16l12 70q1 16 19 16z" />
    <glyph glyph-name="Upsilon" unicode="&#x3a5;" horiz-adv-x="1064" 
d="M481 0h-80q-20 0 -14 18l96 549l-311 877q-6 20 12 20h86q14 0 17 -14l268 -778h2l530 782q6 10 19 10h94q25 0 12 -20l-612 -877l-100 -551q-1 -16 -19 -16z" />
    <glyph glyph-name="Phi" unicode="&#x3a6;" horiz-adv-x="1658" 
d="M958 160q162 0 298 114t174 332l43 242q39 227 -55 338t-255 110h-143l-199 -1136h137zM772 1296q-160 0 -296 -110t-173 -316l-47 -260q-41 -219 57 -335t256 -115h140l200 1136h-137zM1188 1401q186 0 311 -133q61 -66 86 -178t0 -250l-43 -242q-47 -264 -215 -402
t-369 -139h-155l-31 -172q0 -16 -18 -16h-78q-20 0 -17 18l31 170h-147q-185 0 -312 137q-61 68 -87 178t-1 246l47 261q45 254 214 388t368 134h156l26 160q4 16 21 16h78q16 0 14 -18l-29 -158h150z" />
    <glyph glyph-name="Chi" unicode="&#x3a7;" horiz-adv-x="1144" 
d="M1141 1464h96q25 0 10 -20l-569 -709l334 -715q6 -20 -15 -20h-88q-12 0 -18 12l-291 635l-510 -637q-6 -10 -20 -10h-101q-25 0 -10 20l584 719l-324 705q-6 20 14 20h86q14 0 21 -12l278 -625l502 627q7 10 21 10z" />
    <glyph glyph-name="Psi" unicode="&#x3a8;" horiz-adv-x="1593" 
d="M1536 1464h78q16 0 14 -18l-112 -641q-39 -217 -196 -345t-359 -128h-144l-55 -316q0 -16 -19 -16h-79q-16 0 -15 18l56 314h-132q-201 0 -315 134t-76 347l111 635q4 16 18 16h80q18 0 15 -18l-113 -639q-31 -177 52 -275t251 -98h127l178 1014q4 16 21 16h77
q16 0 15 -18l-178 -1012h127q163 0 287 102t155 277l111 635q4 16 20 16z" />
    <glyph glyph-name="uni03A9" unicode="&#x3a9;" horiz-adv-x="1312" 
d="M442 0h-372q-20 0 -15 18l13 70q2 14 18 14h223q-92 86 -134 214t-17 276l63 356q47 262 208 400t391 139q230 -1 345 -147t68 -416l-62 -353q-25 -135 -111 -258t-206 -211h215q18 0 14 -18l-12 -68q0 -16 -18 -16h-373q-20 0 -16 18l6 45q2 12 16 19q152 78 249 210
t126 298l59 350q80 438 -313 442q-186 0 -311 -112t-164 -338l-62 -344q-57 -338 187 -508q10 -2 10 -21l-6 -43q-3 -16 -19 -16z" />
    <glyph glyph-name="Iotadieresis" unicode="&#x3aa;" horiz-adv-x="483" 
d="M618 1675q-35 0 -51 23q-16 24 -11 54t27 49q21 19 53 19t48 -20q16 -22 12 -55q-10 -70 -78 -70zM287 1675q-35 0 -51 23q-16 24 -12 54t25 49t55 19t50 -20q16 -22 11 -55q-10 -70 -78 -70zM190 0h-77q-18 0 -15 18l252 1430q0 16 19 16h77q21 0 17 -18l-254 -1430
q0 -16 -19 -16z" />
    <glyph glyph-name="Upsilondieresis" unicode="&#x3ab;" horiz-adv-x="1064" 
d="M481 0h-80q-20 0 -14 18l96 549l-311 877q-6 20 12 20h86q14 0 17 -14l268 -778h2l530 782q6 10 19 10h94q25 0 12 -20l-612 -877l-100 -551q-1 -16 -19 -16zM954 1800q32 0 50 -22q16 -23 10 -54q-10 -70 -78 -69q-35 1 -50 23t-12 53q4 31 26 50t54 19zM629 1724
q-10 -70 -78 -69q-35 1 -51 23t-13 53q14 70 80 69q35 0 51 -22t11 -54z" />
    <glyph glyph-name="alphatonos" unicode="&#x3ac;" 
d="M629 1225h-58q-10 0 -13 6t3 14l213 275q4 10 21 10h82q25 0 8 -21l-236 -274q-6 -10 -20 -10zM437 74q151 0 313 162l120 684q-129 59 -262 59t-235 -83t-127 -218l-56 -297q-28 -147 34 -227t213 -80zM616 1077q170 0 359 -82q12 -4 12 -20l-170 -959q0 -16 -18 -16
h-62q-14 0 -14 16l12 105q-164 -143 -338 -143t-262 113q-88 114 -51 300l53 297q35 178 172 284t307 105z" />
    <glyph glyph-name="epsilontonos" unicode="&#x3ad;" horiz-adv-x="948" 
d="M598 1225h-57q-10 0 -14 6q-3 6 3 14l213 275q6 10 21 10h82q25 0 8 -21l-236 -274q-6 -10 -20 -10zM573 981q-111 0 -193 -52q-82 -53 -96 -141t34 -141t153 -53h215q18 0 14 -16l-10 -56q0 -16 -18 -16h-219q-117 0 -197 -56t-96 -156t52 -160q69 -60 196 -60
q174 0 356 155q14 10 24 -2l37 -51q10 -14 -2 -22q-190 -176 -428 -177q-170 1 -267 95t-73 237q35 197 244 252q-69 29 -101 97t-18 153q20 119 133 193t271 73q213 0 344 -139q10 -12 0 -23l-47 -47q-12 -16 -23 -2q-106 115 -285 115z" />
    <glyph glyph-name="etatonos" unicode="&#x3ae;" horiz-adv-x="1093" 
d="M141 0h-73q-18 0 -15 18l174 965q0 12 15 18q190 76 388 76q198 1 293 -113t56 -323l-113 -625q0 -16 -18 -16h-72q-18 0 -16 18l112 631q61 332 -260 332q-141 0 -286 -53l-166 -912q-1 -16 -19 -16zM633 1225h-58q-10 0 -13 6t3 14l213 275q4 10 21 10h82q25 0 8 -21
l-236 -274q-6 -10 -20 -10z" />
    <glyph glyph-name="iotatonos" unicode="&#x3af;" horiz-adv-x="401" 
d="M145 0h-73q-18 0 -15 18l183 1020q0 16 18 17h74q16 0 14 -19l-182 -1020q-1 -16 -19 -16zM330 1225h-58q-10 0 -13 6t3 14l213 275q4 10 21 10h82q25 0 8 -21l-236 -274q-6 -10 -20 -10z" />
    <glyph glyph-name="upsilondieresistonos" unicode="&#x3b0;" horiz-adv-x="1062" 
d="M979 1343q-10 -66 -76 -65q-66 0 -57 68q12 68 80 67q29 -1 44 -19t9 -51zM537 1343q-12 -66 -78 -65q-29 0 -45 18t-11 50q10 68 78 67q29 -1 45 -19t11 -51zM639 1225h-47q-23 0 -10 20l178 275q6 10 20 10h68q23 0 12 -21l-201 -274q-10 -10 -20 -10zM324 1055
q20 0 14 -19l-125 -692q-20 -120 43 -194q64 -74 194 -75t221 79t113 198l125 686q4 16 21 17h71q18 0 17 -19l-125 -690q-31 -158 -155 -264t-299 -104t-267 114q-92 113 -66 264l125 682q4 16 19 17h74z" />
    <glyph glyph-name="alpha" unicode="&#x3b1;" 
d="M437 74q151 0 313 162l120 684q-129 59 -262 59t-235 -83t-127 -218l-56 -297q-28 -147 34 -227t213 -80zM616 1077q170 0 359 -82q12 -4 12 -20l-170 -959q0 -16 -18 -16h-62q-14 0 -14 16l12 105q-164 -143 -338 -143t-262 113q-88 114 -51 300l53 297q35 178 172 284
t307 105z" />
    <glyph glyph-name="beta" unicode="&#x3b2;" horiz-adv-x="1046" 
d="M455 76q317 0 368 330q25 141 -37 222t-204 81h-172q-18 0 -15 16l11 61q0 16 18 17h170q117 0 200 89q84 89 106 221t-38 205t-188 73q-129 0 -213 -82t-109 -228l-159 -911q104 -94 262 -94zM76 -389h-72q-18 0 -14 16l258 1465q34 194 150 294t288 100t259 -107
q87 -108 56 -285q-18 -115 -86 -205t-170 -127q107 -37 157 -134t28 -233q-35 -205 -157 -310t-316 -108q-164 0 -283 97l-80 -449q0 -14 -18 -14z" />
    <glyph glyph-name="gamma" unicode="&#x3b3;" horiz-adv-x="948" 
d="M350 -389h-74q-18 0 -14 18l68 381l-205 1026q-6 18 14 19h78q16 0 19 -15l108 -583q4 -17 26 -149t29 -187h2q158 315 172 342l314 581q6 10 20 11h84q23 0 13 -21l-568 -1028l-67 -379q-1 -16 -19 -16z" />
    <glyph glyph-name="delta" unicode="&#x3b4;" horiz-adv-x="1001" 
d="M419 76q126 0 224 80t123 219l31 178q25 143 -44 218t-200 116q-137 -29 -225 -111t-109 -211l-35 -198q-25 -133 42 -212t193 -79zM679 1487q175 0 302 -94q16 -10 4 -23l-39 -59q-12 -12 -22 -4q-117 84 -249 84t-212 -46q-80 -45 -92 -117t29 -126q42 -53 94 -81
t133 -58q157 -63 231 -157t45 -257l-31 -182q-31 -180 -162 -285q-132 -104 -301 -104t-267 109q-97 110 -66 286l37 205q25 139 111 234q87 95 220 138q-209 115 -178 279q20 117 129 187t284 71z" />
    <glyph glyph-name="epsilon" unicode="&#x3b5;" horiz-adv-x="948" 
d="M573 981q-111 0 -193 -52q-82 -53 -96 -141t34 -141t153 -53h215q18 0 14 -16l-10 -56q0 -16 -18 -16h-219q-117 0 -197 -56t-96 -156t52 -160q69 -60 196 -60q174 0 356 155q14 10 24 -2l37 -51q10 -14 -2 -22q-190 -176 -428 -177q-170 1 -267 95t-73 237
q35 197 244 252q-69 29 -101 97t-18 153q20 119 133 193t271 73q213 0 344 -139q10 -12 0 -23l-47 -47q-12 -16 -23 -2q-106 115 -285 115z" />
    <glyph glyph-name="zeta" unicode="&#x3b6;" horiz-adv-x="882" 
d="M305 1368q-20 0 -14 16l10 64q4 16 18 16h701q14 0 14 -18l-8 -45q0 -10 -12 -19q-360 -219 -573 -455q-252 -282 -260 -537q-3 -95 48 -152q17 -20 31 -36t40 -30q26 -16 42 -26t56 -28q40 -17 91 -37t78 -31q92 -37 113 -83q12 -27 6 -63q-14 -108 -166 -264
q-12 -12 -24 -2l-47 43q-14 14 0 24q113 115 129 193q10 47 -78 86q-20 8 -111 40t-117 48t-56 34t-46 36t-41 49q-25 30 -45 102q-19 71 -2 170q41 231 236 466q196 234 526 437l-2 2h-537z" />
    <glyph glyph-name="eta" unicode="&#x3b7;" horiz-adv-x="1093" 
d="M141 0h-73q-18 0 -15 18l174 965q0 12 15 18q190 76 388 76q198 1 293 -113t56 -323l-113 -625q0 -16 -18 -16h-72q-18 0 -16 18l112 631q61 332 -260 332q-141 0 -286 -53l-166 -912q-1 -16 -19 -16z" />
    <glyph glyph-name="theta" unicode="&#x3b8;" horiz-adv-x="1122" 
d="M338 1059l-45 -260h631l47 266q29 154 -39 241t-218 86t-250 -91q-99 -90 -126 -242zM221 393q-27 -149 39 -233t218 -85t251 87q98 88 125 237l53 303h-633zM963 399q-37 -201 -163 -311t-327 -110q-201 1 -296 119t-62 311l118 657q35 199 162 309t327 112
q200 1 295 -118t60 -313z" />
    <glyph glyph-name="iota" unicode="&#x3b9;" horiz-adv-x="401" 
d="M145 0h-73q-18 0 -15 18l183 1020q0 16 18 17h74q16 0 14 -19l-182 -1020q-1 -16 -19 -16z" />
    <glyph glyph-name="kappa" unicode="&#x3ba;" horiz-adv-x="952" 
d="M897 1055h96q11 0 15 -6t-4 -15l-527 -450l367 -564q6 -8 3 -14t-13 -6h-86q-14 0 -21 10l-328 502l-172 -147l-61 -349q0 -16 -19 -16h-73q-20 0 -17 18l183 1020q0 16 18 17h74q16 0 14 -19l-92 -524l623 535q8 8 20 8z" />
    <glyph glyph-name="lambda" unicode="&#x3bb;" horiz-adv-x="1093" 
d="M723 1487q176 1 267 -105t59 -286l-191 -1080q0 -16 -18 -16h-74q-20 0 -16 18l147 838q-115 72 -264 72q-317 0 -371 -314l-104 -598q0 -16 -19 -16h-73q-20 0 -17 18l107 607q37 207 163 305q127 98 318 98q141 0 278 -72l29 158q22 129 -38 201t-195 71
q-178 0 -338 -108q-16 -12 -23 6l-31 62q-3 16 7 20q76 51 184 86t213 35z" />
    <glyph glyph-name="uni03BC" unicode="&#x3bc;" horiz-adv-x="1107" 
d="M78 -389h-74q-16 0 -14 18l250 1409q0 16 18 17h74q16 0 14 -19l-117 -663q-25 -127 37 -212t204 -85q140 0 238 89q97 89 117 208l117 665q4 16 21 17h73q16 0 15 -19l-181 -1020q-4 -16 -18 -16h-57q-18 0 -19 18l23 144q-45 -82 -136 -133t-200 -51t-181 50
q-72 52 -94 132l-16 -111l-74 -422q-4 -16 -20 -16z" />
    <glyph glyph-name="nu" unicode="&#x3bd;" horiz-adv-x="964" 
d="M436 0h-90q-14 0 -18 14l-203 1022q-2 18 16 19h76q16 0 19 -15l124 -669q16 -84 46 -252h4l129 252l364 671q6 12 21 13h84q23 0 12 -21l-563 -1024q-7 -10 -21 -10z" />
    <glyph glyph-name="xi" unicode="&#x3be;" horiz-adv-x="886" 
d="M668 1391q-126 0 -222 -79t-118 -201t46 -203q67 -81 191 -81h164q16 0 12 -18l-10 -64q0 -16 -18 -16h-168q-129 0 -238 -85t-129 -206q-28 -159 80 -236q55 -40 97 -60q43 -20 113 -47q70 -26 100 -39q97 -42 118 -91q43 -103 -158 -325q-14 -16 -24 -2l-47 43
q-12 8 -2 24q117 127 131 193q8 38 -32 62t-122 52t-120 44q-38 14 -99 52t-91 78t-48 107q-18 68 -4 149q23 129 112 220q90 90 224 120q-104 39 -153 134q-49 94 -25 230t150 238t310 102t326 -134q12 -8 2 -25l-41 -49q-10 -10 -25 0q-117 113 -282 113z" />
    <glyph glyph-name="omicron" unicode="&#x3bf;" 
d="M442 76q148 0 243 83t120 216l55 307q24 129 -40 214t-210 85t-243 -83q-96 -83 -121 -212l-53 -305q-25 -137 38 -221t211 -84zM434 -23q-192 0 -287 119q-94 119 -63 293l55 307q31 168 160 274t321 107q192 0 286 -118q93 -118 63 -287l-56 -305q-33 -174 -161 -282
q-126 -108 -318 -108z" />
    <glyph glyph-name="pi" unicode="&#x3c0;" horiz-adv-x="1067" 
d="M260 1055h739q20 0 15 -19l-185 -1020q-4 -16 -18 -16h-76q-18 0 -14 18l170 940h-555l-172 -942q0 -16 -19 -16h-73q-20 0 -15 18l185 1020q0 17 18 17z" />
    <glyph glyph-name="rho" unicode="&#x3c1;" horiz-adv-x="1064" 
d="M450 78q148 0 247 79t126 232l49 273q26 154 -38 234t-209 81q-145 0 -235 -84t-120 -240l-84 -471q116 -104 264 -104zM70 -389h-74q-20 0 -14 16l182 1037q33 198 157 306t311 108t283 -114t64 -309l-49 -278q-35 -197 -161 -298t-323 -102q-152 0 -276 103l-82 -455
q0 -14 -18 -14z" />
    <glyph glyph-name="sigma1" unicode="&#x3c2;" horiz-adv-x="866" 
d="M587 1077q177 0 310 -104q12 -8 2 -25l-41 -49q-8 -12 -22 -4q-114 86 -256 86t-226 -78t-104 -192l-53 -297q-24 -148 73 -220q51 -38 92 -56q40 -18 108 -44q68 -25 98 -38q99 -43 118 -91q12 -31 6 -69q-16 -88 -166 -256q-12 -16 -22 -2l-49 43q-12 12 -2 24
q125 139 133 197q6 36 -29 58t-81 38t-121 42t-174 97q-130 94 -91 293l53 291q29 158 148 257t296 99z" />
    <glyph glyph-name="sigma" unicode="&#x3c3;" horiz-adv-x="1089" 
d="M811 373l53 293q26 131 -38 212q-64 82 -215 80t-247 -85t-122 -216l-54 -295q-25 -128 41 -206t214 -80t245 82q96 84 123 215zM623 1055h491q20 0 14 -19l-12 -67q-2 -14 -18 -15h-236q72 -43 100 -124t9 -173l-56 -295q-31 -172 -159 -278t-321 -106q-194 0 -289 113
q-95 112 -64 284l53 293q31 172 162 280t326 107z" />
    <glyph glyph-name="tau" unicode="&#x3c4;" horiz-adv-x="864" 
d="M137 1055h772q20 0 17 -19l-13 -61q0 -16 -18 -17h-334l-168 -942q-4 -16 -20 -16h-74q-16 0 -14 18l168 940h-330q-18 0 -14 17l10 63q0 17 18 17z" />
    <glyph glyph-name="upsilon" unicode="&#x3c5;" horiz-adv-x="1062" 
d="M324 1055q20 0 14 -19l-125 -692q-20 -120 43 -194q64 -74 194 -75t221 79t113 198l125 686q4 16 21 17h71q18 0 17 -19l-125 -690q-31 -158 -155 -264t-299 -104t-267 114q-92 113 -66 264l125 682q4 16 19 17h74z" />
    <glyph glyph-name="phi" unicode="&#x3c6;" horiz-adv-x="1404" 
d="M831 98q133 0 221 78q87 78 113 215l47 254q29 154 -26 235t-187 81h-170l-151 -863h153zM410 98h159l154 863h-156q-125 0 -213 -81t-114 -221l-47 -253q-27 -150 29 -229t188 -79zM575 -389h-73q-18 0 -15 18l66 371h-160q-166 0 -255 113t-52 299l49 260
q33 176 154 279t289 104h161l72 393q0 16 18 16h72q16 0 14 -18l-69 -391h170q170 0 253 -114t50 -302l-49 -260q-33 -179 -155 -279t-298 -100h-158l-65 -373q-5 -16 -19 -16z" />
    <glyph glyph-name="chi" unicode="&#x3c7;" horiz-adv-x="940" 
d="M868 1055h90q25 0 11 -21l-430 -497l272 -517q10 -20 -12 -20h-84q-14 0 -19 12l-233 449l-391 -451q-8 -10 -21 -10h-94q-25 0 -8 20l457 521l-256 493q-10 20 14 21h80q14 0 20 -13l217 -426l367 428q10 11 20 11z" />
    <glyph glyph-name="psi" unicode="&#x3c8;" horiz-adv-x="1466" 
d="M604 -389h-72q-20 0 -14 18l66 371h-127q-182 0 -280 111q-97 111 -60 307l112 620q0 16 19 17h74q20 0 14 -19l-115 -630q-55 -309 262 -310h119l170 942q0 16 19 17h73q20 0 15 -19l-168 -940h112q150 0 251 83t128 235l113 624q0 16 18 17h74q18 0 14 -19l-112 -628
q-35 -196 -170 -302t-314 -106h-133l-67 -373q-5 -16 -21 -16z" />
    <glyph glyph-name="omega" unicode="&#x3c9;" horiz-adv-x="1484" 
d="M376 76q112 0 186 79t95 203l54 308q4 16 20 16h72q20 0 14 -18l-55 -314q-20 -124 24 -198t155 -76q112 -2 191 76t101 196l61 336q27 129 -28 209t-181 88q-18 4 -12 20l23 60q6 14 20 14q160 -14 237 -124t48 -273l-62 -336q-31 -168 -141 -266t-260 -99
q-225 0 -254 216q-106 -215 -322 -216q-152 0 -234 108t-50 269l61 346q29 158 140 254t276 121q18 0 18 -14l13 -64q0 -14 -17 -20q-129 -16 -217 -92t-108 -199l-62 -338q-22 -116 30 -194t164 -78z" />
    <glyph glyph-name="iotadieresis" unicode="&#x3ca;" horiz-adv-x="401" 
d="M496 1276q-72 0 -60 76q4 31 26 48t54 17q32 1 47 -21q16 -22 10 -57q-14 -63 -77 -63zM206 1417q30 1 46 -21t11 -54t-27 -49t-53 -17q-32 0 -48 20t-10 56q13 65 81 65zM145 0h-73q-18 0 -15 18l183 1020q0 16 18 17h74q16 0 14 -19l-182 -1020q-1 -16 -19 -16z" />
    <glyph glyph-name="upsilondieresis" unicode="&#x3cb;" horiz-adv-x="1062" 
d="M850 1276q-72 0 -59 76q9 65 79 65q32 0 48 -21q16 -22 10 -57q-14 -63 -78 -63zM508 1417q32 1 47 -21q16 -22 10 -54q-5 -32 -27 -49t-54 -17t-48 20t-10 56q13 65 82 65zM324 1055q20 0 14 -19l-125 -692q-20 -120 43 -194q64 -74 194 -75t221 79t113 198l125 686
q4 16 21 17h71q18 0 17 -19l-125 -690q-31 -158 -155 -264t-299 -104t-267 114q-92 113 -66 264l125 682q4 16 19 17h74z" />
    <glyph glyph-name="omicrontonos" unicode="&#x3cc;" 
d="M442 76q148 0 243 83t120 216l55 307q24 129 -40 214t-210 85t-243 -83q-96 -83 -121 -212l-53 -305q-25 -137 38 -221t211 -84zM434 -23q-192 0 -287 119q-94 119 -63 293l55 307q31 168 160 274t321 107q192 0 286 -118q93 -118 63 -287l-56 -305q-33 -174 -161 -282
q-126 -108 -318 -108zM625 1225h-58q-10 0 -13 6t3 14l213 275q4 10 21 10h81q25 0 9 -21l-236 -274q-6 -10 -20 -10z" />
    <glyph glyph-name="upsilontonos" unicode="&#x3cd;" horiz-adv-x="1062" 
d="M637 1225h-57q-10 0 -14 6q-3 6 3 14l213 275q4 10 21 10h82q25 0 8 -21l-236 -274q-6 -10 -20 -10zM324 1055q20 0 14 -19l-125 -692q-20 -120 43 -194q64 -74 194 -75t221 79t113 198l125 686q4 16 21 17h71q18 0 17 -19l-125 -690q-31 -158 -155 -264t-299 -104
t-267 114q-92 113 -66 264l125 682q4 16 19 17h74z" />
    <glyph glyph-name="omegatonos" unicode="&#x3ce;" horiz-adv-x="1484" 
d="M829 1225h-57q-10 0 -13 6t3 14l213 275q4 10 20 10h82q25 0 8 -21l-235 -274q-7 -10 -21 -10zM376 76q112 0 186 79t95 203l54 308q4 16 20 16h72q20 0 14 -18l-55 -314q-20 -124 24 -198t155 -76q112 -2 191 76t101 196l61 336q27 129 -28 209t-181 88q-18 4 -12 20
l23 60q6 14 20 14q160 -14 237 -124t48 -273l-62 -336q-31 -168 -141 -266t-260 -99q-225 0 -254 216q-106 -215 -322 -216q-152 0 -234 108t-50 269l61 346q29 158 140 254t276 121q18 0 18 -14l13 -64q0 -14 -17 -20q-129 -16 -217 -92t-108 -199l-62 -338
q-22 -116 30 -194t164 -78z" />
    <glyph glyph-name="uni0401" unicode="&#x401;" horiz-adv-x="1110" 
d="M1120 1362h-676l-98 -563h637q18 0 14 -17l-12 -69q0 -16 -18 -17h-637l-105 -592h695q14 0 14 -18l-10 -70q-4 -16 -21 -16h-792q-16 0 -15 18l252 1430q0 16 19 16h770q14 0 14 -18l-12 -68q0 -16 -19 -16zM975 1686q-72 0 -60 75q4 31 26 48q21 17 53 17t48 -20
q16 -22 11 -57q-14 -63 -78 -63zM609 1686q-32 0 -48 20t-10 55q11 63 81 65q32 0 48 -20q16 -22 10 -54t-28 -49t-53 -17z" />
    <glyph glyph-name="uni0402" unicode="&#x402;" horiz-adv-x="1374" 
d="M901 80q170 0 219 264l51 313q57 307 -280 308q-129 0 -252 -52l-162 -899q0 -16 -18 -16h-80q-18 0 -12 18l239 1344h-422q-14 0 -14 18l12 70q4 16 19 16h956q20 0 14 -18l-12 -70q-4 -16 -18 -16h-424l-58 -336q127 41 246 43q211 2 313 -112t66 -304l-53 -311
q-66 -362 -324 -363q-37 0 -90 9q-14 2 -14 18l12 68q2 14 24 11t62 -3z" />
    <glyph glyph-name="uni0403" unicode="&#x403;" horiz-adv-x="987" 
d="M721 1612h-66q-10 0 -13 6t5 14l262 277q8 8 23 8h92q10 0 14 -6t-4 -15l-291 -276q-8 -8 -22 -8zM190 0h-77q-18 0 -15 18l250 1430q4 16 21 16h739q18 0 16 -18l-14 -70q-4 -16 -18 -16h-646l-235 -1344q-5 -16 -21 -16z" />
    <glyph glyph-name="uni0404" unicode="&#x404;" horiz-adv-x="1146" 
d="M526 -23q-216 -1 -326 139t-71 371l92 521q39 225 191 352t379 127t387 -150q12 -8 2 -22l-52 -58q-10 -14 -22 -4q-140 129 -326 129t-301 -105t-145 -284l-37 -200h610q18 0 17 -19l-15 -72q-4 -14 -20 -14h-610l-35 -209q-31 -179 47 -287q79 -108 277 -108t388 149
q14 14 23 -4l35 -63q6 -17 -4 -25q-219 -164 -484 -164z" />
    <glyph glyph-name="uni0405" unicode="&#x405;" horiz-adv-x="1167" 
d="M518 84q164 0 279 78t139 215t-88 212q-91 61 -216 98q-124 38 -190 72t-126 86q-129 112 -91 308q31 168 168 251t336 83q131 0 230 -40t202 -126q16 -10 4 -23l-49 -55q-10 -12 -24 -2q-168 139 -377 139q-147 0 -251 -61t-128 -186q-24 -147 66 -217t212 -107
q121 -37 192 -70q187 -87 231 -210q28 -75 10 -171q-35 -190 -181 -285t-358 -96q-142 1 -246 47t-211 148q-12 12 0 25l45 53q14 10 25 0q178 -166 397 -166z" />
    <glyph glyph-name="uni0406" unicode="&#x406;" horiz-adv-x="485" 
d="M190 0h-79q-16 0 -15 18l252 1430q4 16 21 16h77q17 0 15 -18l-252 -1430q0 -16 -19 -16z" />
    <glyph glyph-name="uni0407" unicode="&#x407;" horiz-adv-x="483" 
d="M616 1675q-35 0 -51 23q-16 24 -11 54t27 49q21 19 53 19t48 -20q16 -22 12 -55q-10 -70 -78 -70zM285 1675q-35 0 -52 23q-16 24 -12 54t26 49q21 19 55 19t49 -20q15 -22 11 -55q-10 -70 -77 -70zM188 0h-77q-16 0 -15 18l252 1430q0 16 19 16h77q19 0 17 -18
l-254 -1430q0 -16 -19 -16z" />
    <glyph glyph-name="uni0408" unicode="&#x408;" horiz-adv-x="976" 
d="M338 80q270 0 328 332l186 1036q0 16 18 16h78q18 0 15 -18l-183 -1043q-74 -426 -468 -426q-198 0 -341 166q-12 12 0 25l43 53q12 12 25 0q129 -141 299 -141z" />
    <glyph glyph-name="uni0409" unicode="&#x409;" horiz-adv-x="1968" 
d="M1337 102q180 0 289 92t137 267q61 346 -299 346h-327l-125 -705h325zM1479 909q219 0 327 -127t72 -336q-80 -446 -553 -446h-428q-16 0 -14 18l237 1344h-540q-170 -854 -270 -1075q-101 -221 -218 -268q-59 -24 -141 -25q-14 0 -14 18l8 74q2 16 16 16q57 2 99 24
q161 84 298 722q66 303 127 600q6 16 21 16h731q16 0 14 -18l-96 -537h324z" />
    <glyph glyph-name="uni040A" unicode="&#x40a;" horiz-adv-x="1892" 
d="M1253 109q176 0 291 85q115 86 143 244q27 158 -53 236t-270 78h-268l-115 -643h272zM1378 854q236 0 346 -112t76 -316t-184 -316q-150 -110 -379 -110h-373q-16 0 -14 18l131 734h-641l-131 -736q-4 -16 -19 -16h-81q-18 0 -15 18l256 1430q4 16 21 16h80q16 0 14 -18
l-105 -592h641l107 594q0 16 18 16h82q16 0 15 -18l-107 -592h262z" />
    <glyph glyph-name="uni040B" unicode="&#x40b;" horiz-adv-x="1384" 
d="M1157 0h-80q-16 0 -14 18l117 639q58 318 -293 310q-133 -2 -248 -56l-162 -895q-4 -16 -18 -16h-80q-18 0 -12 18l239 1344h-422q-14 0 -14 16l12 70q4 16 19 16h956q18 0 14 -18l-12 -68q0 -16 -18 -16h-422l-60 -340q129 45 250 45q215 2 317 -105q101 -108 62 -319
l-112 -627q-4 -16 -19 -16z" />
    <glyph glyph-name="uni040C" unicode="&#x40c;" horiz-adv-x="1185" 
d="M1178 1464h108q10 0 13 -6t-5 -14l-704 -643l489 -781q12 -20 -10 -20h-94q-12 0 -19 10l-450 717l-201 -176l-94 -535q-4 -16 -18 -16h-80q-18 0 -15 18l250 1430q4 16 19 16h79q16 0 15 -18l-129 -739l823 749q13 8 23 8zM782 1612h-65q-10 0 -14 6q-3 6 6 14l262 277
q8 8 22 8h92q11 0 15 -6t-4 -15l-291 -276q-9 -8 -23 -8z" />
    <glyph glyph-name="uni040E" unicode="&#x40e;" horiz-adv-x="1030" 
d="M683 1610q-132 0 -196 81q-63 81 -63 216q0 14 16 18l60 14q18 2 18 -16q0 -217 178 -217q184 0 260 223q6 16 21 10l55 -16q18 -4 12 -18q-41 -133 -135 -214t-226 -81zM291 0h-92q-20 0 -11 20l279 455l-293 969q-4 20 14 20h82q14 0 19 -14l250 -856h2l512 860
q6 10 20 10h90q23 0 13 -20l-865 -1434q-6 -10 -20 -10z" />
    <glyph glyph-name="uni040F" unicode="&#x40f;" horiz-adv-x="1333" 
d="M1214 1464h80q20 0 17 -18l-254 -1430q0 -16 -19 -16h-403l-45 -252q-4 -16 -21 -16h-75q-18 0 -15 18l45 250h-413q-20 0 -15 18l252 1430q4 16 19 16h79q16 0 15 -18l-236 -1344h733l238 1346q4 16 18 16z" />
    <glyph glyph-name="uni0410" unicode="&#x410;" horiz-adv-x="1167" 
d="M731 1335h-4l-410 -805h545zM1044 0h-79q-16 0 -21 16l-65 412h-611l-215 -416q-4 -12 -20 -12h-88q-23 0 -13 20l744 1432q6 12 20 12h101q18 0 18 -16l246 -1430q3 -18 -17 -18z" />
    <glyph glyph-name="uni0411" unicode="&#x411;" horiz-adv-x="1224" 
d="M711 776h-367l-121 -672h369q170 0 275 88t134 257t-39 248q-69 79 -251 79zM1178 1360h-729l-87 -481h361q238 0 333 -110t57 -330q-38 -219 -174 -329t-357 -110h-471q-16 0 -15 18l254 1430q0 16 19 16h825q14 0 14 -18l-12 -70q0 -16 -18 -16z" />
    <glyph glyph-name="uni0412" unicode="&#x412;" horiz-adv-x="1230" 
d="M721 825q133 0 224 73t112 198q47 266 -264 266h-347l-94 -537h369zM557 102q186 0 298 83q113 83 139 233t-45 227q-71 78 -238 78h-377l-109 -621h332zM541 0h-430q-16 0 -15 18l254 1430q0 16 19 16h446q213 0 298 -108t56 -275q-43 -233 -264 -303q123 -35 174 -129
t27 -237q-67 -412 -565 -412z" />
    <glyph glyph-name="uni0413" unicode="&#x413;" horiz-adv-x="987" 
d="M190 0h-77q-18 0 -15 18l250 1430q4 16 21 16h739q18 0 16 -18l-14 -70q-4 -16 -18 -16h-646l-235 -1344q-5 -16 -21 -16z" />
    <glyph glyph-name="uni0414" unicode="&#x414;" horiz-adv-x="1310" 
d="M594 1362q-123 -610 -211 -890t-199 -370h715l221 1260h-526zM-23 -281h-77q-20 0 -15 17l62 354q4 16 20 16h62q84 37 147 154q129 239 328 1188q4 16 18 16h713q18 0 14 -18l-237 -1344h125q20 0 14 -16l-61 -350q-4 -16 -19 -17h-78q-20 0 -16 17l49 264h-983
l-47 -264q-1 -17 -19 -17z" />
    <glyph glyph-name="uni0415" unicode="&#x415;" horiz-adv-x="1110" 
d="M1120 1362h-676l-98 -563h637q18 0 14 -17l-12 -69q0 -16 -18 -17h-637l-105 -592h695q14 0 14 -18l-10 -70q-4 -16 -21 -16h-792q-16 0 -15 18l252 1430q0 16 19 16h770q14 0 14 -18l-12 -68q0 -16 -19 -16z" />
    <glyph glyph-name="uni0416" unicode="&#x416;" horiz-adv-x="1736" 
d="M1735 1464h106q10 0 12 -6t-6 -14l-663 -649l424 -775q10 -20 -13 -20h-96q-14 0 -20 12l-375 705l-174 -168l-92 -533q-4 -16 -21 -16h-80q-20 0 -16 18l94 533l-115 166l-620 -707q-6 -10 -21 -10h-108q-25 0 -8 20l698 787l-424 637q-12 20 10 20h103q14 0 18 -10
l494 -749l129 743q4 16 18 16h82q18 0 14 -18l-129 -746l756 756q9 8 23 8z" />
    <glyph glyph-name="uni0417" unicode="&#x417;" horiz-adv-x="1132" 
d="M698 1487q194 0 302 -117t79 -283q-18 -106 -93 -195t-193 -122q121 -37 173 -138t31 -226q-35 -201 -187 -315t-364 -114q-279 0 -438 183q-10 10 0 22l47 58q12 12 25 0q143 -158 379 -158q167 0 283 94t140 234t-49 223q-73 82 -253 82h-207q-16 0 -17 18l13 68
q4 16 18 16h215q152 0 249 82t117 201q20 118 -57 200q-76 82 -229 82q-223 0 -403 -153q-14 -10 -23 4l-33 63q-6 14 4 23q199 168 471 168z" />
    <glyph glyph-name="uni0418" unicode="&#x418;" horiz-adv-x="1372" 
d="M201 0h-88q-18 0 -15 18l250 1432q4 14 21 14h80q18 0 14 -16l-127 -717q-47 -281 -109 -555h2q53 68 150 196q96 128 127 169l719 913q8 10 22 10h86q18 0 15 -16l-250 -1432q-4 -16 -21 -16h-80q-18 0 -14 18l129 719q41 231 105 541h-3q-246 -332 -284 -381l-709 -887
q-4 -10 -20 -10z" />
    <glyph glyph-name="uni0419" unicode="&#x419;" horiz-adv-x="1372" 
d="M872 1610q-132 0 -196 81q-63 81 -64 216q0 14 17 18l59 14q18 2 19 -16q0 -217 178 -217q184 0 260 223q6 16 20 10l56 -16q18 -4 12 -18q-41 -133 -135 -214t-226 -81zM201 0h-88q-18 0 -15 18l250 1432q4 14 21 14h80q18 0 14 -16l-127 -717q-47 -281 -109 -555h2
q53 68 150 196q96 128 127 169l719 913q8 10 22 10h86q18 0 15 -16l-250 -1432q-4 -16 -21 -16h-80q-18 0 -14 18l129 719q41 231 105 541h-3q-246 -332 -284 -381l-709 -887q-4 -10 -20 -10z" />
    <glyph glyph-name="uni041A" unicode="&#x41a;" horiz-adv-x="1185" 
d="M1178 1464h108q10 0 13 -6t-5 -14l-704 -643l489 -781q12 -20 -10 -20h-94q-12 0 -19 10l-450 717l-201 -176l-94 -535q-4 -16 -18 -16h-80q-18 0 -15 18l250 1430q4 16 19 16h79q16 0 15 -18l-129 -739l823 749q13 8 23 8z" />
    <glyph glyph-name="uni041B" unicode="&#x41b;" horiz-adv-x="1280" 
d="M506 1464h735q16 0 14 -18l-251 -1430q-4 -16 -21 -16h-80q-18 0 -14 18l237 1344h-546q-158 -780 -243 -1001q-85 -220 -171 -292t-215 -75q-14 0 -14 18l8 74q2 16 16 16q57 2 99 24q161 84 298 722q66 303 127 600q6 16 21 16z" />
    <glyph glyph-name="uni041C" unicode="&#x41c;" horiz-adv-x="1624" 
d="M190 0h-79q-16 0 -15 18l252 1430q0 16 19 16h96q12 0 18 -14l234 -688l84 -277h2q31 43 99 149t89 134l475 686q8 10 21 10h98q18 0 16 -18l-251 -1430q-4 -16 -19 -16h-80q-16 0 -14 18l123 707q63 365 100 549h-4q-106 -170 -207 -313l-413 -603q-10 -12 -21 -12h-63
q-12 0 -17 14l-209 621q-18 55 -50 155t-44 138h-2q-39 -238 -100 -576l-119 -682q-1 -16 -19 -16z" />
    <glyph glyph-name="uni041D" unicode="&#x41d;" horiz-adv-x="1329" 
d="M1210 1464h80q16 0 15 -18l-252 -1430q-4 -16 -21 -16h-78q-16 0 -14 18l121 676h-731l-121 -678q0 -16 -19 -16h-79q-16 0 -15 18l252 1430q4 16 21 16h77q16 0 15 -18l-115 -649h731l115 651q0 16 18 16z" />
    <glyph glyph-name="uni041E" unicode="&#x41e;" horiz-adv-x="1320" 
d="M582 82q186 0 319 112t164 287l86 492q31 180 -60 295q-91 114 -281 114t-320 -112t-160 -295l-86 -486q-31 -175 61 -291q91 -116 277 -116zM826 1487q242 -1 359 -149q118 -148 79 -375l-86 -490q-37 -221 -203 -358t-407 -137q-242 0 -358 146q-116 148 -77 378
l82 483q41 227 205 365t406 137z" />
    <glyph glyph-name="uni041F" unicode="&#x41f;" horiz-adv-x="1327" 
d="M188 0h-79q-18 0 -15 18l256 1430q4 16 21 16h919q20 0 15 -18l-256 -1430q-4 -16 -21 -16h-78q-20 0 -14 18l242 1340h-729l-242 -1342q-1 -16 -19 -16z" />
    <glyph glyph-name="uni0420" unicode="&#x420;" horiz-adv-x="1208" 
d="M639 649q399 0 461 344q31 181 -52 275t-270 94h-329l-127 -713h317zM369 1464h426q229 0 343 -132t74 -349q-78 -434 -583 -434h-324l-94 -533q-4 -16 -18 -16h-82q-16 0 -15 18l254 1430q1 16 19 16z" />
    <glyph glyph-name="uni0421" unicode="&#x421;" horiz-adv-x="1136" 
d="M526 -23q-216 -1 -326 141t-69 369l92 521q39 225 191 352t378 127t388 -150q12 -8 2 -22l-52 -60q-12 -12 -24 -2q-140 129 -326 129t-301 -105t-145 -284l-90 -514q-31 -179 48 -287t259 -108q219 0 405 149q14 14 25 -4l33 -63q10 -17 -4 -23q-219 -166 -484 -166z
" />
    <glyph glyph-name="uni0422" unicode="&#x422;" horiz-adv-x="1058" 
d="M201 1464h985q14 0 14 -18l-12 -68q0 -16 -19 -16h-440l-237 -1346q0 -16 -19 -16h-80q-18 0 -12 18l235 1344h-432q-14 0 -14 16l12 70q1 16 19 16z" />
    <glyph glyph-name="uni0423" unicode="&#x423;" horiz-adv-x="1030" 
d="M291 0h-92q-20 0 -11 20l279 455l-293 969q-4 20 14 20h82q14 0 19 -14l250 -856h2l512 860q6 10 20 10h90q23 0 13 -20l-865 -1434q-6 -10 -20 -10z" />
    <glyph glyph-name="uni0424" unicode="&#x424;" horiz-adv-x="1658" 
d="M958 160q162 0 298 114t174 332l43 242q39 227 -55 338t-255 110h-143l-199 -1136h137zM772 1296q-160 0 -296 -110t-173 -316l-47 -260q-41 -219 57 -335t256 -115h140l200 1136h-137zM1188 1401q186 0 311 -133q61 -66 86 -178t0 -250l-43 -242q-47 -264 -215 -402
t-369 -139h-155l-31 -172q0 -16 -18 -16h-78q-20 0 -17 18l31 170h-147q-185 0 -312 137q-61 68 -87 178t-1 246l47 261q45 254 214 388t368 134h156l26 160q4 16 21 16h78q16 0 14 -18l-29 -158h150z" />
    <glyph glyph-name="uni0425" unicode="&#x425;" horiz-adv-x="1144" 
d="M1141 1464h96q25 0 10 -20l-569 -709l334 -715q6 -20 -15 -20h-88q-12 0 -18 12l-291 635l-510 -637q-6 -10 -20 -10h-101q-25 0 -10 20l584 719l-324 705q-6 20 14 20h86q14 0 21 -12l278 -625l502 627q7 10 21 10z" />
    <glyph glyph-name="uni0426" unicode="&#x426;" horiz-adv-x="1343" 
d="M1190 1464h78q18 0 14 -18l-238 -1342h121q18 0 17 -18l-62 -338q-4 -16 -18 -16h-76q-20 0 -14 18l45 250h-946q-16 0 -15 18l254 1430q0 16 19 16h77q20 0 17 -18l-238 -1342h707l239 1344q1 16 19 16z" />
    <glyph glyph-name="uni0427" unicode="&#x427;" horiz-adv-x="1210" 
d="M1169 1464q18 0 15 -18l-252 -1430q-4 -16 -19 -16h-79q-18 0 -15 18l103 578q-172 -78 -332 -78q-209 0 -322 133t-78 336l82 461q0 16 19 16h80q18 0 14 -18l-82 -463q-29 -168 51 -264t246 -96t342 88l129 737q4 16 19 16h79z" />
    <glyph glyph-name="uni0428" unicode="&#x428;" horiz-adv-x="1896" 
d="M1776 1464h82q18 0 14 -18l-252 -1430q0 -16 -18 -16h-1489q-18 0 -17 18l252 1430q0 16 19 16h82q18 0 14 -18l-236 -1342h590l236 1344q4 16 20 16h80q18 0 14 -18l-235 -1342h590l235 1344q4 16 19 16z" />
    <glyph glyph-name="uni0429" unicode="&#x429;" horiz-adv-x="1904" 
d="M1749 1464h82q18 0 12 -18l-235 -1342h121q20 0 16 -18l-62 -340q-4 -14 -20 -14h-76q-18 0 -14 18l45 250h-1507q-16 0 -15 18l252 1430q4 16 21 16h80q18 0 14 -18l-238 -1342h578l237 1344q0 16 19 16h80q16 0 14 -18l-235 -1342h575l238 1344q0 16 18 16z" />
    <glyph glyph-name="uni042A" unicode="&#x42a;" horiz-adv-x="1331" 
d="M700 104q358 0 422 352t-297 351h-333l-127 -703h335zM842 911q225 0 330 -124q106 -124 68 -341q-38 -218 -179 -332t-375 -114h-438q-20 0 -15 18l244 1344h-287q-20 0 -14 18l12 68q2 16 19 16h385q16 0 14 -18l-96 -535h332z" />
    <glyph glyph-name="uni042B" unicode="&#x42b;" horiz-adv-x="1671" 
d="M1376 0h-80q-18 0 -14 18l252 1430q4 16 20 16h78q19 0 15 -18l-252 -1430q0 -16 -19 -16zM559 104q360 0 426 357q61 352 -299 352h-334l-129 -709h336zM700 915q219 0 328 -128t71 -343q-38 -216 -177 -330t-375 -114h-441q-18 0 -12 18l258 1430q0 16 19 16h80
q20 0 14 -18l-94 -531h329z" />
    <glyph glyph-name="uni042C" unicode="&#x42c;" horiz-adv-x="1189" 
d="M559 104q360 0 426 357q61 352 -299 352h-334l-129 -709h336zM700 915q219 0 328 -128t71 -343q-38 -216 -177 -330t-375 -114h-441q-18 0 -12 18l258 1430q0 16 19 16h80q20 0 14 -18l-94 -531h329z" />
    <glyph glyph-name="uni042D" unicode="&#x42d;" horiz-adv-x="1146" 
d="M675 1487q234 0 344 -140t71 -370l-93 -520q-39 -225 -191 -353q-152 -127 -388 -127t-402 160q-8 10 0 25l47 59q10 10 25 0q150 -137 343 -137t308 104t146 283l41 231h-617q-18 0 -16 19l14 72q4 14 19 14h618l31 178q31 178 -47 289q-78 110 -270 110t-371 -139
q-12 -12 -25 4l-31 58q-5 16 7 22q203 158 437 158z" />
    <glyph glyph-name="uni042E" unicode="&#x42e;" horiz-adv-x="1748" 
d="M1033 88q169 0 296 108t160 279l92 516q31 181 -55 283t-257 102t-298 -106t-160 -287l-90 -516q-31 -171 56 -275t256 -104zM190 0h-81q-18 0 -13 18l254 1430q0 16 19 16h80q18 0 14 -18l-115 -647h316l32 192q41 229 204 363t379 133q216 0 336 -139t79 -365l-90 -516
q-39 -223 -203 -356t-379 -133t-336 138t-80 359l39 215h-317l-119 -674q-4 -16 -19 -16z" />
    <glyph glyph-name="uni042F" unicode="&#x42f;" horiz-adv-x="1239" 
d="M612 672h355l123 690h-349q-172 0 -281 -88t-140 -252t44 -257t248 -93zM104 0h-104q-10 0 -13 6t5 14l514 560q-168 20 -250 144t-47 318t179 309q144 114 368 113h448q16 0 15 -18l-258 -1430q0 -16 -19 -16h-80q-18 0 -12 18l98 551h-311l-510 -559q-9 -10 -23 -10z
" />
    <glyph glyph-name="uni0430" unicode="&#x430;" horiz-adv-x="1009" 
d="M482 539q-138 -1 -228 -55t-112 -164q-20 -110 52 -177t219 -67q148 0 285 51l68 377q-146 35 -284 35zM400 -23q-185 -1 -289 99q-105 100 -75 254t151 230q122 75 289 75t306 -35l19 111q51 270 -240 270q-168 0 -317 -88q-16 -12 -21 6l-24 55q-6 12 4 23
q165 100 365 100t286 -103t55 -272l-110 -630q-3 -11 -15 -19q-199 -76 -384 -76z" />
    <glyph glyph-name="uni0431" unicode="&#x431;" horiz-adv-x="1064" 
d="M604 901q-174 0 -309 -104l-74 -424q-25 -141 44 -219t202 -78t233 83t125 224l33 182q57 336 -254 336zM640 1001q180 1 271 -117q92 -118 56 -325l-33 -184q-33 -185 -166 -291t-310 -106t-278 113q-100 114 -65 300l112 643q29 168 153 274t290 132q244 41 336 84
q14 8 20 -6l27 -62q6 -16 -9 -22q-98 -49 -348 -91q-145 -27 -241 -109t-119 -212l-21 -113q145 92 325 92z" />
    <glyph glyph-name="uni0432" unicode="&#x432;" horiz-adv-x="1021" 
d="M563 592q104 0 178 52t88 137t-31 133q-46 48 -163 49h-301l-66 -371h295zM475 90q133 0 211 58t95 156t-42 148t-184 50h-305l-72 -412h297zM469 0h-397q-18 0 -15 18l181 1020q0 16 18 17h393q158 0 233 -81t54 -198q-31 -172 -215 -223q94 -27 139 -95t29 -167
q-23 -137 -131 -214t-289 -77z" />
    <glyph glyph-name="uni0433" unicode="&#x433;" horiz-adv-x="761" 
d="M147 0h-73q-20 0 -17 18l181 1020q4 16 20 17h549q16 0 14 -19l-10 -61q-4 -16 -18 -17h-459l-168 -942q-1 -16 -19 -16z" />
    <glyph glyph-name="uni0434" unicode="&#x434;" horiz-adv-x="1101" 
d="M442 958q-80 -395 -148 -599t-144 -263h587l150 862h-445zM-25 -281h-71q-18 0 -15 17l60 344q4 16 20 16h47q84 39 167 252t173 690q4 16 19 17h620q20 0 17 -19l-166 -940h98q20 0 17 -16l-62 -344q0 -16 -18 -17h-72q-18 0 -14 17l45 264h-799l-47 -264
q-1 -17 -19 -17z" />
    <glyph glyph-name="uni0435" unicode="&#x435;" horiz-adv-x="1028" 
d="M604 981q-137 0 -232 -77t-120 -212l-25 -125h604l25 127q27 137 -44 212t-208 75zM616 1077q180 0 280 -104t65 -287l-37 -197q-4 -16 -19 -16h-694l-23 -119q-28 -131 48 -206t208 -74q180 0 349 137q14 8 24 -4l33 -51q10 -16 -2 -23q-184 -156 -416 -156
q-172 -1 -278 103t-72 278l61 342q33 178 163 278t310 99z" />
    <glyph glyph-name="uni0436" unicode="&#x436;" horiz-adv-x="1406" 
d="M1327 1055h98q9 0 13 -6t-4 -15l-459 -446l309 -568q10 -20 -12 -20h-82q-14 0 -21 12l-272 506l-168 -158l-61 -344q0 -16 -19 -16h-71q-20 0 -17 18l62 349l-107 151l-450 -508q-8 -10 -23 -10h-92q-25 0 -8 20l516 578l-301 436q-10 21 12 21h88q12 0 18 -11l371 -544
l94 538q4 16 19 17h74q20 0 14 -19l-94 -532l553 543q6 8 20 8z" />
    <glyph glyph-name="uni0437" unicode="&#x437;" horiz-adv-x="929" 
d="M537 1077q157 0 245 -85t66 -216q-31 -168 -201 -221q84 -25 127 -99t25 -167q-25 -137 -148 -224t-295 -88q-219 0 -362 152q-8 12 2 23l47 49q12 12 23 0q123 -127 296 -127q129 0 222 63q92 63 108 161t-39 152q-55 56 -172 56h-217q-18 0 -16 18l10 56q0 14 18 14
h213q98 0 168 55t86 143t-45 138t-172 51q-180 0 -321 -113q-16 -10 -23 4l-35 54q-6 14 5 22q168 129 385 129z" />
    <glyph glyph-name="uni0438" unicode="&#x438;" horiz-adv-x="1097" 
d="M164 0h-92q-18 0 -15 18l181 1020q0 16 18 17h74q18 0 12 -19l-115 -657q-18 -106 -43 -217h2q4 6 65 85q60 79 95 122l569 675q6 10 21 11h92q16 0 14 -19l-180 -1020q0 -16 -18 -16h-74q-20 0 -16 18l116 654l43 213l-2 2q-150 -193 -155 -201l-572 -676
q-10 -10 -20 -10z" />
    <glyph glyph-name="uni0439" unicode="&#x439;" horiz-adv-x="1097" 
d="M676 1298q178 0 242 203q8 16 20 12l55 -10q19 -4 15 -20q-88 -274 -349 -275q-121 0 -185 81t-58 198q0 18 16 18l53 8q16 0 17 -16q-4 -199 174 -199zM164 0h-92q-18 0 -15 18l181 1020q0 16 18 17h74q18 0 12 -19l-115 -657q-18 -106 -43 -217h2q4 6 65 85
q60 79 95 122l569 675q6 10 21 11h92q16 0 14 -19l-180 -1020q0 -16 -18 -16h-74q-20 0 -16 18l116 654l43 213l-2 2q-150 -193 -155 -201l-572 -676q-10 -10 -20 -10z" />
    <glyph glyph-name="uni043A" unicode="&#x43a;" horiz-adv-x="952" 
d="M897 1055h96q11 0 15 -6t-4 -15l-527 -450l367 -564q6 -8 3 -14t-13 -6h-86q-14 0 -21 10l-328 502l-172 -147l-61 -349q0 -16 -19 -16h-73q-20 0 -17 18l183 1020q0 16 18 17h74q16 0 14 -19l-92 -524l623 535q8 8 20 8z" />
    <glyph glyph-name="uni043B" unicode="&#x43b;" horiz-adv-x="1077" 
d="M1010 1055q18 0 14 -19l-184 -1020q0 -16 -19 -16h-76q-18 0 -12 18l168 940h-450q-103 -465 -164 -628q-60 -164 -107 -221t-99 -83t-128 -28q-16 0 -16 18l12 70q0 16 16 16q82 4 136 76q53 72 113 266t146 594q4 16 21 17h629z" />
    <glyph glyph-name="uni043C" unicode="&#x43c;" horiz-adv-x="1288" 
d="M145 0h-73q-18 0 -15 18l181 1020q4 16 18 17h88q14 0 16 -15l177 -491q25 -70 69 -217h2q72 111 152 221l348 491q6 10 20 11h89q16 0 14 -19l-178 -1020q-4 -16 -21 -16h-74q-16 0 -14 18l109 617l45 237h-2q-86 -135 -152 -225l-309 -436q-4 -10 -21 -10h-51
q-14 0 -16 12l-160 449l-72 212l-149 -858q-5 -16 -21 -16z" />
    <glyph glyph-name="uni043D" unicode="&#x43d;" horiz-adv-x="1062" 
d="M995 1055q20 0 17 -19l-187 -1020q0 -16 -18 -16h-74q-16 0 -14 18l86 480h-555l-88 -482q0 -16 -19 -16h-73q-16 0 -15 18l185 1020q0 16 18 17h74q16 0 14 -19l-80 -440h557l80 442q4 16 21 17h71z" />
    <glyph glyph-name="uni043E" unicode="&#x43e;" 
d="M442 76q148 0 243 83t120 216l55 307q24 129 -40 214t-210 85t-243 -83q-96 -83 -121 -212l-53 -305q-25 -137 38 -221t211 -84zM434 -23q-192 0 -287 119q-94 119 -63 293l55 307q31 168 160 274t321 107q192 0 286 -118q93 -118 63 -287l-56 -305q-33 -174 -161 -282
q-126 -108 -318 -108z" />
    <glyph glyph-name="uni043F" unicode="&#x43f;" horiz-adv-x="1064" 
d="M258 1055h739q20 0 15 -19l-185 -1020q-4 -16 -18 -16h-76q-16 0 -14 18l170 940h-555l-172 -942q0 -16 -19 -16h-73q-20 0 -15 18l185 1020q0 17 18 17z" />
    <glyph glyph-name="uni0440" unicode="&#x440;" horiz-adv-x="1054" 
d="M608 981q-151 0 -284 -59l-136 -762q116 -86 264 -86t242 82t123 245l43 250q29 172 -36 251t-216 79zM612 1077q208 -1 298 -117q91 -116 57 -317l-43 -250q-35 -199 -160 -307t-300 -109q-175 0 -292 84l-78 -434q-4 -16 -20 -16h-74q-16 0 -14 18l239 1348q3 10 15 16
q164 84 372 84z" />
    <glyph glyph-name="uni0441" unicode="&#x441;" horiz-adv-x="917" 
d="M433 -23q-193 0 -287 113q-93 113 -62 291l61 336q29 162 151 261t297 99t316 -108q12 -8 2 -23l-39 -51q-10 -12 -24 -4q-113 90 -253 90t-230 -75t-113 -195l-59 -338q-25 -135 41 -217t212 -82q148 0 295 108q12 10 23 -4l31 -57q5 -15 -7 -23q-162 -121 -355 -121z
" />
    <glyph glyph-name="uni0442" unicode="&#x442;" horiz-adv-x="864" 
d="M137 1055h772q20 0 17 -19l-13 -61q0 -16 -18 -17h-334l-168 -942q-4 -16 -20 -16h-74q-16 0 -14 18l168 940h-330q-18 0 -14 17l10 63q0 17 18 17z" />
    <glyph glyph-name="uni0443" unicode="&#x443;" horiz-adv-x="1087" 
d="M1016 1055q20 0 16 -19l-186 -1044q-35 -188 -152 -294q-116 -106 -326 -106t-345 146q-10 14 0 24l43 52q12 12 24 0q121 -125 284 -125t252 85t113 228l19 100q-150 -61 -291 -61q-188 0 -284 109q-95 109 -58 307l104 581q4 16 21 17h72q18 0 16 -19l-107 -590
q-57 -309 252 -309q158 0 291 74l148 827q4 16 20 17h74z" />
    <glyph glyph-name="uni0444" unicode="&#x444;" horiz-adv-x="1404" 
d="M831 98q133 0 221 78q87 78 113 215l47 254q29 154 -26 235t-187 81h-170l-151 -863h153zM410 98h159l154 863h-156q-125 0 -213 -81t-114 -221l-47 -253q-27 -150 29 -229t188 -79zM575 -389h-73q-18 0 -15 18l66 371h-160q-166 0 -255 113t-52 299l49 260
q33 176 154 279t289 104h161l72 393q0 16 18 16h72q16 0 14 -18l-69 -391h170q170 0 253 -114t50 -302l-49 -260q-33 -179 -155 -279t-298 -100h-158l-65 -373q-5 -16 -19 -16z" />
    <glyph glyph-name="uni0445" unicode="&#x445;" horiz-adv-x="940" 
d="M868 1055h90q25 0 11 -21l-430 -497l272 -517q10 -20 -12 -20h-84q-14 0 -19 12l-233 449l-391 -451q-8 -10 -21 -10h-94q-25 0 -8 20l457 521l-256 493q-10 20 14 21h80q14 0 20 -13l217 -426l367 428q10 11 20 11z" />
    <glyph glyph-name="uni0446" unicode="&#x446;" horiz-adv-x="1071" 
d="M850 -268h-70q-18 0 -12 18l45 250h-741q-18 0 -15 18l183 1020q4 16 18 17h76q18 0 12 -19l-168 -940h531l168 942q0 16 18 17h74q20 0 14 -19l-168 -940h100q18 0 13 -16l-60 -332q-4 -16 -18 -16z" />
    <glyph glyph-name="uni0447" unicode="&#x447;" horiz-adv-x="995" 
d="M928 1055q20 0 14 -19l-184 -1020q-4 -16 -19 -16h-73q-18 0 -17 18l72 398q-156 -55 -283 -56q-174 0 -259 109t-46 311l49 258q4 16 21 17h71q20 0 17 -19l-51 -262q-60 -317 216 -317q134 0 283 59l97 522q0 16 18 17h74z" />
    <glyph glyph-name="uni0448" unicode="&#x448;" horiz-adv-x="1523" 
d="M1454 1055q20 0 16 -19l-182 -1020q0 -16 -18 -16h-1198q-18 0 -15 18l181 1020q0 16 18 17h74q18 0 14 -19l-168 -940h459l164 942q4 16 20 17h72q18 0 16 -19l-166 -940h455l166 942q4 16 20 17h72z" />
    <glyph glyph-name="uni0449" unicode="&#x449;" horiz-adv-x="1560" 
d="M1341 -268h-69q-18 0 -15 18l46 250h-1231q-18 0 -15 18l183 1020q4 16 18 17h74q16 0 14 -19l-168 -940h457l168 942q4 16 20 17h72q20 0 14 -19l-168 -940h457l170 942q0 16 18 17h74q18 0 13 -19l-168 -940h100q20 0 14 -16l-59 -332q-1 -16 -19 -16z" />
    <glyph glyph-name="uni044A" unicode="&#x44a;" horiz-adv-x="1105" 
d="M573 96q279 0 326 244q47 256 -231 256h-269l-90 -500h264zM692 692q176 0 259 -98t55 -264q-59 -330 -428 -330h-375q-18 0 -15 18l166 940h-231q-16 0 -14 19l10 61q4 16 20 17h322q18 0 16 -19l-61 -344h276z" />
    <glyph glyph-name="uni044B" unicode="&#x44b;" horiz-adv-x="1357" 
d="M1104 0h-74q-18 0 -14 18l182 1020q0 16 19 17h73q16 0 15 -19l-183 -1020q0 -16 -18 -16zM442 96q276 0 326 244q47 256 -231 256h-269l-90 -500h264zM561 692q176 0 259 -98t54 -264q-59 -330 -428 -330h-374q-18 0 -15 18l181 1020q0 16 18 17h74q18 0 16 -19
l-61 -344h276z" />
    <glyph glyph-name="uni044C" unicode="&#x44c;" horiz-adv-x="974" 
d="M442 96q276 0 326 244q47 256 -231 256h-269l-90 -500h264zM561 692q176 0 259 -98t54 -264q-59 -330 -428 -330h-374q-18 0 -15 18l181 1020q0 16 18 17h74q18 0 16 -19l-61 -344h276z" />
    <glyph glyph-name="uni044D" unicode="&#x44d;" horiz-adv-x="890" 
d="M482 1077q178 0 268 -113q90 -114 59 -290l-57 -328q-29 -158 -151 -263t-294 -105t-313 128q-12 8 -2 25l43 51q10 12 22 2q115 -108 251 -108t226 80q89 80 109 196l29 150h-426q-18 0 -15 18l11 58q0 16 18 16h428l14 88q23 133 -40 216q-62 83 -200 83t-263 -94
q-14 -10 -25 6l-29 55q-5 15 7 23q152 106 330 106z" />
    <glyph glyph-name="uni044E" unicode="&#x44e;" horiz-adv-x="1406" 
d="M972 981q-142 0 -236 -83t-118 -212l-53 -305q-25 -137 35 -221t206 -84q144 0 237 83t118 216l56 307q23 129 -39 214q-64 85 -206 85zM795 -23q-188 0 -280 118q-91 118 -58 294l20 119h-227l-84 -492q-4 -16 -21 -16h-73q-18 0 -15 18l181 1020q0 16 18 17h74
q18 0 14 -19l-76 -430h226l16 90q33 166 159 274q125 108 315 108t281 -119q91 -118 60 -287l-57 -305q-33 -174 -159 -282t-314 -108z" />
    <glyph glyph-name="uni044F" unicode="&#x44f;" horiz-adv-x="997" 
d="M240 750q-23 -119 35 -186t190 -66h274l82 460h-266q-276 1 -315 -208zM84 0h-90q-10 0 -14 6t4 14l381 396q-135 27 -197 115q-60 89 -34 231t139 218q114 75 290 75h365q18 0 16 -19l-184 -1020q0 -16 -19 -16h-73q-16 0 -15 18l70 385h-242l-375 -393q-8 -10 -22 -10z
" />
    <glyph glyph-name="uni0451" unicode="&#x451;" horiz-adv-x="1028" 
d="M604 981q-137 0 -232 -77t-120 -212l-25 -125h604l25 127q27 137 -44 212t-208 75zM616 1077q180 0 280 -104t65 -287l-37 -197q-4 -16 -19 -16h-694l-23 -119q-28 -131 48 -206t208 -74q180 0 349 137q14 8 24 -4l33 -51q10 -16 -2 -23q-184 -156 -416 -156
q-172 -1 -278 103t-72 278l61 342q33 178 163 278t310 99zM846 1276q-72 0 -60 76q4 31 26 48t54 17q32 1 48 -21t10 -57q-14 -63 -78 -63zM504 1417q32 1 47 -21q16 -22 10 -54q-5 -32 -27 -49t-54 -17t-48 20t-10 56q13 65 82 65z" />
    <glyph glyph-name="uni0452" unicode="&#x452;" horiz-adv-x="1089" 
d="M637 1063q189 0 281 -114t51 -337l-119 -659q-66 -360 -328 -361q-49 0 -82 9q-18 2 -14 18l12 66q2 14 19 14q39 -6 73 -6q170 0 215 268l117 666q63 340 -246 340q-150 0 -299 -90l-151 -861q0 -16 -19 -16h-73q-16 0 -15 18l211 1205h-151q-16 0 -15 18l9 45
q0 14 18 14h154l26 148q4 16 19 16h73q18 0 13 -18l-25 -146h322q18 0 14 -16l-8 -45q0 -16 -19 -16h-323l-41 -240q150 80 301 80z" />
    <glyph glyph-name="uni0453" unicode="&#x453;" horiz-adv-x="761" 
d="M553 1225h-57q-10 0 -14 6q-3 6 3 14l213 275q6 10 21 10h82q25 0 8 -21l-236 -274q-6 -10 -20 -10zM147 0h-73q-20 0 -17 18l181 1020q4 16 20 17h549q16 0 14 -19l-10 -61q-4 -16 -18 -17h-459l-168 -942q-1 -16 -19 -16z" />
    <glyph glyph-name="uni0454" unicode="&#x454;" horiz-adv-x="899" 
d="M422 -23q-184 0 -276 116q-91 116 -62 290l59 328q27 158 150 262t293 104t303 -108q18 -10 2 -23l-39 -51q-8 -12 -25 -2q-109 88 -243 88t-224 -80t-108 -196l-21 -111h424q14 0 15 -19l-13 -57q0 -16 -18 -16h-424l-22 -127q-23 -133 40 -216t206 -83t280 108
q12 12 24 -4l31 -57q6 -15 -6 -23q-162 -123 -346 -123z" />
    <glyph glyph-name="uni0455" unicode="&#x455;" horiz-adv-x="942" 
d="M387 -23q-221 0 -375 136q-12 12 -2 24l35 49q12 14 25 4q135 -117 325 -116q131 0 217 51t104 145t-45 138q-62 44 -206 79q-365 98 -324 332q23 125 141 192t292 67t329 -101q14 -10 2 -23l-39 -55q-12 -8 -24 -4q-119 86 -291 86q-121 0 -205 -47t-99 -139t74 -143
q72 -43 213 -78q140 -35 227 -110t62 -208t-143 -206t-293 -73z" />
    <glyph glyph-name="uni0456" unicode="&#x456;" horiz-adv-x="401" 
d="M334 1272q-32 0 -50 24q-19 24 -14 56q12 66 78 65q36 1 54 -23t13 -55t-27 -49t-54 -18zM145 0h-73q-20 0 -15 18l183 1020q0 16 18 17h74q20 0 14 -19l-182 -1020q-1 -16 -19 -16z" />
    <glyph glyph-name="uni0457" unicode="&#x457;" horiz-adv-x="401" 
d="M496 1276q-72 0 -60 76q4 31 26 48t54 17q32 1 47 -21q16 -22 10 -57q-14 -63 -77 -63zM206 1417q30 1 46 -21t11 -54t-27 -49t-53 -17q-32 0 -48 20t-10 56q13 65 81 65zM145 0h-73q-18 0 -15 18l183 1020q0 16 18 17h74q16 0 14 -19l-182 -1020q-1 -16 -19 -16z" />
    <glyph glyph-name="uni0458" unicode="&#x458;" horiz-adv-x="415" 
d="M432 1337q-14 -66 -78 -65q-33 0 -52 24t-13 56q10 66 78 65q35 1 53 -23t12 -57zM-152 -307q166 0 213 264l191 1081q4 16 20 17h74q18 0 14 -19l-192 -1087q-66 -356 -328 -357q-96 0 -96 27l12 66q4 16 19 14q39 -6 73 -6z" />
    <glyph glyph-name="uni0459" unicode="&#x459;" horiz-adv-x="1617" 
d="M1085 94q276 0 326 246q47 248 -231 248h-252l-90 -494h247zM1204 682q174 0 258 -95t56 -257q-59 -330 -428 -330h-361q-18 0 -12 18l168 940h-436q-66 -307 -115 -483q-100 -361 -228 -437q-61 -38 -153 -40q-16 0 -16 18l12 68q0 14 16 18q82 4 136 74
q107 138 259 862q4 16 21 17h612q18 0 15 -19l-64 -354h260z" />
    <glyph glyph-name="uni045A" unicode="&#x45a;" horiz-adv-x="1607" 
d="M1073 94q279 0 326 223q47 231 -232 232h-262l-84 -455h252zM143 0h-73q-16 0 -15 18l185 1020q0 16 18 17h74q16 0 14 -19l-72 -397h539l74 399q0 16 18 17h72q18 0 16 -19l-71 -395h270q176 0 259 -91t54 -245q-55 -305 -428 -305h-360q-20 0 -17 18l97 525h-541
l-94 -527q-1 -16 -19 -16z" />
    <glyph glyph-name="uni045B" unicode="&#x45b;" horiz-adv-x="1089" 
d="M654 1063q172 0 264 -114t51 -337l-107 -596q0 -16 -18 -16h-74q-16 0 -14 18l106 609q61 340 -246 340q-150 0 -299 -90l-151 -861q0 -16 -19 -16h-73q-16 0 -15 18l211 1205h-153q-18 0 -15 18l9 45q2 14 18 14h156l24 148q4 16 19 16h75q18 0 13 -18l-25 -146h322
q18 0 14 -16l-8 -45q0 -16 -19 -16h-323l-41 -242q147 82 318 82z" />
    <glyph glyph-name="uni045C" unicode="&#x45c;" horiz-adv-x="952" 
d="M604 1225h-57q-10 0 -13 6t3 14l213 275q4 10 20 10h82q25 0 8 -21l-235 -274q-7 -10 -21 -10zM897 1055h96q11 0 15 -6t-4 -15l-527 -450l367 -564q6 -8 3 -14t-13 -6h-86q-14 0 -21 10l-328 502l-172 -147l-61 -349q0 -16 -19 -16h-73q-20 0 -17 18l183 1020
q0 16 18 17h74q16 0 14 -19l-92 -524l623 535q8 8 20 8z" />
    <glyph glyph-name="uni045D" unicode="&#x45d;" horiz-adv-x="1097" 
d="M711 1225h-56q-12 0 -20 12l-127 272q-10 20 12 21h76q14 0 20 -12l107 -273q8 -20 -12 -20zM164 0h-92q-18 0 -15 18l181 1020q0 16 18 17h74q18 0 12 -19l-115 -657q-18 -106 -43 -217h2q4 6 65 85q60 79 95 122l569 675q6 10 21 11h92q16 0 14 -19l-180 -1020
q0 -16 -18 -16h-74q-20 0 -16 18l116 654l43 213l-2 2q-150 -193 -155 -201l-572 -676q-10 -10 -20 -10z" />
    <glyph glyph-name="uni045E" unicode="&#x45e;" horiz-adv-x="1087" 
d="M1016 1055q20 0 16 -19l-186 -1044q-35 -188 -152 -294q-116 -106 -326 -106t-345 146q-10 14 0 24l43 52q12 12 24 0q121 -125 284 -125t252 85t113 228l19 100q-150 -61 -291 -61q-188 0 -284 109q-95 109 -58 307l104 581q4 16 21 17h72q18 0 16 -19l-107 -590
q-57 -309 252 -309q158 0 291 74l148 827q4 16 20 17h74zM664 1298q178 0 241 203q8 16 21 12l55 -10q18 -4 14 -20q-88 -274 -348 -275q-121 0 -185 81t-59 198q0 18 17 18l53 8q16 0 16 -16q-3 -199 175 -199z" />
    <glyph glyph-name="uni045F" unicode="&#x45f;" horiz-adv-x="1069" 
d="M426 -268h-70q-20 0 -14 18l47 250h-319q-18 0 -13 18l183 1020q4 16 20 17h74q18 0 14 -19l-170 -940h561l170 942q4 16 19 17h76q18 0 12 -19l-182 -1020q-4 -16 -21 -16h-317l-52 -254q0 -14 -18 -14z" />
    <glyph glyph-name="uni0490" unicode="&#x490;" horiz-adv-x="958" 
d="M190 0h-77q-18 0 -15 18l250 1430q4 16 19 16h622l47 271q4 16 19 16h75q16 0 15 -18l-64 -357q0 -16 -18 -16h-617l-237 -1344q-1 -16 -19 -16z" />
    <glyph glyph-name="uni0491" unicode="&#x491;" horiz-adv-x="757" 
d="M143 0h-71q-18 0 -15 18l183 1020q0 16 18 17h465l39 225q4 16 18 16h66q18 0 14 -18l-53 -305q-4 -16 -21 -17h-458l-166 -940q-1 -16 -19 -16z" />
    <glyph glyph-name="Wgrave" unicode="&#x1e80;" horiz-adv-x="1822" 
d="M1163 1612h-59q-14 0 -21 10l-170 274q-10 20 11 21h84q14 0 20 -12l148 -273q10 -20 -13 -20zM438 0h-96q-16 0 -18 16l-136 1430q-4 18 15 18h84q16 0 16 -16l78 -883q6 -81 16 -233t15 -195h4q10 23 80 188t110 253l395 854q8 12 21 12h96q18 0 19 -17l98 -858
q8 -71 21 -221t20 -211h4q115 299 182 453l375 862q6 12 18 12h89q18 0 12 -20l-635 -1432q-8 -12 -21 -12h-96q-16 0 -18 16l-94 813q-43 406 -48 447h-4q-88 -211 -196 -445l-385 -819q-9 -12 -21 -12z" />
    <glyph glyph-name="wgrave" unicode="&#x1e81;" horiz-adv-x="1462" 
d="M883 1223h-56q-12 0 -20 12l-127 272q-10 20 12 21h76q14 0 20 -12l107 -273q8 -20 -12 -20zM274 -2q-18 0 -18 16l-127 1022q0 16 16 17h74q18 0 19 -17l71 -598q23 -229 29 -311h2q37 96 127 295l291 598q6 12 18 12h84q18 0 19 -14l75 -606q20 -164 27 -285h2
q92 219 139 322l281 591q6 12 20 13h78q23 0 12 -19l-487 -1022q-6 -14 -20 -14h-88q-16 0 -19 18l-76 629q-12 113 -22 258h-2q-63 -156 -111 -258l-305 -633q-6 -14 -21 -14h-88z" />
    <glyph glyph-name="Wacute" unicode="&#x1e82;" horiz-adv-x="1822" 
d="M1100 1612h-66q-10 0 -13 6t5 14l262 277q8 8 23 8h92q10 0 14 -6t-4 -15l-291 -276q-8 -8 -22 -8zM438 0h-96q-16 0 -18 16l-136 1430q-4 18 15 18h84q16 0 16 -16l78 -883q6 -81 16 -233t15 -195h4q10 23 80 188t110 253l395 854q8 12 21 12h96q18 0 19 -17l98 -858
q8 -71 21 -221t20 -211h4q115 299 182 453l375 862q6 12 18 12h89q18 0 12 -20l-635 -1432q-8 -12 -21 -12h-96q-16 0 -18 16l-94 813q-43 406 -48 447h-4q-88 -211 -196 -445l-385 -819q-9 -12 -21 -12z" />
    <glyph glyph-name="wacute" unicode="&#x1e83;" horiz-adv-x="1462" 
d="M827 1223h-57q-10 0 -13 6t3 14l213 275q6 10 20 10h82q25 0 8 -21l-235 -274q-7 -10 -21 -10zM274 -2q-18 0 -18 16l-127 1022q0 16 16 17h74q18 0 19 -17l71 -598q23 -229 29 -311h2q37 96 127 295l291 598q6 12 18 12h84q18 0 19 -14l75 -606q20 -164 27 -285h2
q92 219 139 322l281 591q6 12 20 13h78q23 0 12 -19l-487 -1022q-6 -14 -20 -14h-88q-16 0 -19 18l-76 629q-12 113 -22 258h-2q-63 -156 -111 -258l-305 -633q-6 -14 -21 -14h-88z" />
    <glyph glyph-name="Wdieresis" unicode="&#x1e84;" horiz-adv-x="1822" 
d="M438 0h-96q-16 0 -18 16l-136 1430q-4 18 15 18h84q16 0 16 -16l78 -883q6 -81 16 -233t15 -195h4q10 23 80 188t110 253l395 854q8 12 21 12h96q18 0 19 -17l98 -858q8 -71 21 -221t20 -211h4q115 299 182 453l375 862q6 12 18 12h89q18 0 12 -20l-635 -1432
q-8 -12 -21 -12h-96q-16 0 -18 16l-94 813q-43 406 -48 447h-4q-88 -211 -196 -445l-385 -819q-9 -12 -21 -12zM1411 1765q-10 -70 -80 -69q-35 0 -50 22t-11 54q10 72 80 71q33 -1 49 -23t12 -55zM987 1765q-10 -70 -78 -69q-35 0 -51 22t-12 54q10 72 80 71q35 -1 51 -23
t10 -55z" />
    <glyph glyph-name="wdieresis" unicode="&#x1e85;" horiz-adv-x="1462" 
d="M274 -2q-18 0 -18 16l-127 1022q0 16 16 17h74q18 0 19 -17l71 -598q23 -229 29 -311h2q37 96 127 295l291 598q6 12 18 12h84q18 0 19 -14l75 -606q20 -164 27 -285h2q92 219 139 322l281 591q6 12 20 13h78q23 0 12 -19l-487 -1022q-6 -14 -20 -14h-88q-16 0 -19 18
l-76 629q-12 113 -22 258h-2q-63 -156 -111 -258l-305 -633q-6 -14 -21 -14h-88zM1075 1415q33 -1 51 -21t11 -55q-13 -65 -81 -65q-30 0 -46 22t-11 56q10 63 76 63zM668 1274q-32 0 -47 22q-16 22 -11 56q12 63 78 63q34 -1 50 -21t11 -53t-27 -50t-54 -17z" />
    <glyph glyph-name="Ygrave" unicode="&#x1ef2;" horiz-adv-x="1064" 
d="M786 1612h-59q-14 0 -20 10l-170 274q-10 20 10 21h84q14 0 20 -12l148 -273q10 -20 -13 -20zM481 0h-80q-20 0 -14 18l96 549l-311 877q-6 20 12 20h86q14 0 17 -14l268 -778h2l530 782q6 10 19 10h94q25 0 12 -20l-612 -877l-100 -551q-1 -16 -19 -16z" />
    <glyph glyph-name="ygrave" unicode="&#x1ef3;" horiz-adv-x="1087" 
d="M719 1225h-55q-12 0 -21 12l-127 272q-10 20 12 21h76q15 0 21 -12l106 -273q8 -20 -12 -20zM1016 1055q20 0 16 -19l-186 -1044q-35 -188 -152 -294q-116 -106 -326 -106t-345 146q-10 14 0 24l43 52q12 12 24 0q121 -125 284 -125t252 85t113 228l19 100
q-150 -61 -291 -61q-188 0 -284 109q-95 109 -58 307l104 581q4 16 21 17h72q18 0 16 -19l-107 -590q-57 -309 252 -309q158 0 291 74l148 827q4 16 20 17h74z" />
    <glyph glyph-name="endash" unicode="&#x2013;" horiz-adv-x="1161" 
d="M166 571q-16 0 -12 17l10 71q4 16 20 17h844q18 -1 14 -19l-12 -71q0 -14 -18 -15h-846z" />
    <glyph glyph-name="emdash" unicode="&#x2014;" horiz-adv-x="1859" 
d="M166 571q-18 0 -14 17l12 71q0 16 18 17h1547q20 -1 16 -19l-14 -71q-2 -14 -19 -15h-1546z" />
    <glyph glyph-name="quoteleft" unicode="&#x2018;" horiz-adv-x="395" 
d="M395 1464h62q18 0 12 -20l-160 -373q-6 -12 -20 -12h-84q-20 0 -12 18l182 375q4 12 20 12z" />
    <glyph glyph-name="quoteright" unicode="&#x2019;" horiz-adv-x="391" 
d="M272 1059h-61q-23 0 -12 18l159 375q6 12 21 12h82q20 0 14 -20l-182 -373q-8 -12 -21 -12z" />
    <glyph glyph-name="quotesinglbase" unicode="&#x201a;" horiz-adv-x="378" 
d="M0 -227h-61q-18 0 -13 20l160 373q6 12 20 12h82q21 0 13 -18l-181 -375q-8 -12 -20 -12z" />
    <glyph glyph-name="quotedblleft" unicode="&#x201c;" horiz-adv-x="645" 
d="M543 1059h-82q-23 0 -12 18l180 375q6 12 20 12h60q18 0 12 -20l-160 -373q-8 -12 -18 -12zM291 1059h-82q-23 0 -12 18l180 375q6 12 20 12h62q20 0 10 -20l-160 -373q-4 -12 -18 -12z" />
    <glyph glyph-name="quotedblright" unicode="&#x201d;" horiz-adv-x="641" 
d="M520 1059h-59q-20 0 -12 18l159 375q8 12 21 12h82q18 0 12 -20l-182 -373q-5 -12 -21 -12zM270 1059h-59q-23 0 -14 18l159 375q8 12 21 12h82q18 0 12 -20l-180 -373q-7 -12 -21 -12z" />
    <glyph glyph-name="quotedblbase" unicode="&#x201e;" horiz-adv-x="628" 
d="M248 -227h-60q-20 0 -12 18l160 375q8 12 18 12h82q23 0 13 -20l-181 -373q-6 -12 -20 -12zM-4 -227h-59q-20 0 -13 18l160 375q8 12 20 12h82q18 0 13 -20l-183 -373q-4 -12 -20 -12z" />
    <glyph glyph-name="dagger" unicode="&#x2020;" horiz-adv-x="1085" 
d="M440 -285h-75q-16 0 -15 19l213 1212h-373q-16 0 -12 19l10 67q4 16 21 17h373l82 460q0 16 18 17h76q16 0 14 -19l-80 -458h369q20 0 16 -19l-14 -69q-2 -14 -19 -15h-372l-213 -1214q-5 -17 -19 -17z" />
    <glyph glyph-name="daggerdbl" unicode="&#x2021;" horiz-adv-x="1085" 
d="M440 -285h-75q-16 0 -15 19l84 475h-375q-18 0 -14 16l12 70q4 16 19 16h375l112 635h-373q-16 0 -12 19l10 67q4 16 21 17h373l82 460q0 16 18 17h76q16 0 14 -19l-80 -458h369q20 0 16 -19l-14 -69q-2 -14 -19 -15h-372l-113 -635h369q18 0 16 -18l-12 -70
q-2 -14 -21 -14h-368l-84 -477q-5 -17 -19 -17z" />
    <glyph glyph-name="bullet" unicode="&#x2022;" horiz-adv-x="630" 
d="M315 508q-59 0 -93 43t-24 103t53 100q44 40 103 39q59 0 93 -43q34 -42 24 -104q-9 -62 -53 -100t-103 -38z" />
    <glyph glyph-name="ellipsis" unicode="&#x2026;" horiz-adv-x="1165" 
d="M899 -6q-37 0 -56 26t-14 64q14 74 86 74q37 0 57 -24t13 -64q-12 -76 -86 -76zM518 158q38 0 58 -24t14 -62t-30 -58t-60 -20t-55 25q-19 26 -13 65q14 74 86 74zM103 -6q-36 0 -54 26t-13 61q5 36 29 56q23 21 59 21t56 -24t13 -62q-6 -38 -30 -58t-60 -20z" />
    <glyph glyph-name="perthousand" unicode="&#x2030;" horiz-adv-x="2160" 
d="M1103 59q71 1 125 49t68 123l47 258q14 78 -22 125q-37 48 -110 48t-127 -50t-68 -131l-45 -258q-15 -76 23 -120t109 -44zM1376 225q-18 -111 -99 -177t-184 -66t-162 71q-58 72 -40 180l47 256q18 115 100 182t184 67t161 -74q58 -72 38 -183zM392 797q70 0 125 47
q54 47 69 125l47 258q14 78 -23 124q-38 46 -110 46t-126 -49t-69 -129l-45 -261q-14 -74 24 -118t108 -43zM188 0h-59q-25 0 -10 20l1245 1430q6 8 20 8h58q27 0 10 -20l-1243 -1428q-5 -10 -21 -10zM512 1473q104 0 162 -72t37 -184l-45 -256q-18 -109 -100 -176t-184 -67
q-103 0 -162 73q-58 72 -40 178l45 258q19 113 101 179t186 67zM1750 59q71 1 125 49t69 123l47 258q14 80 -23 126q-38 47 -110 47t-126 -50t-69 -131l-47 -258q-14 -76 24 -120t110 -44zM2023 225q-18 -111 -99 -177t-184 -66t-163 71q-59 72 -39 180l45 256
q20 115 101 182q82 67 184 67t161 -73q58 -73 39 -184z" />
    <glyph glyph-name="guilsinglleft" unicode="&#x2039;" horiz-adv-x="571" 
d="M401 145h-82q-12 0 -20 13l-201 428q-8 12 2 22l353 428q6 10 20 11h84q10 -1 13 -7t-3 -14l-358 -432l205 -428q5 -21 -13 -21z" />
    <glyph glyph-name="guilsinglright" unicode="&#x203a;" horiz-adv-x="561" 
d="M193 1047h81q12 0 21 -13l201 -428q8 -12 -2 -22l-353 -428q-6 -10 -20 -11h-84q-10 1 -13 7t3 14l358 432l-205 428q-5 21 13 21z" />
    <glyph glyph-name="fraction" unicode="&#x2044;" horiz-adv-x="360" 
d="M-379 0h-49q-10 0 -13 6t3 14l1233 1434q4 10 20 10h47q10 0 14 -6q2 -6 -4 -14l-1230 -1434q-8 -10 -21 -10z" />
    <glyph glyph-name="zero.sups" unicode="&#x2070;" horiz-adv-x="688" 
d="M409 903q79 0 139 47t75 123l57 324q14 82 -25 128t-122 46t-141 -48t-73 -128l-57 -324q-16 -78 26 -123t121 -45zM541 1645q111 0 173 -74t42 -182l-58 -322q-20 -111 -102 -174t-194 -63t-175 71q-63 72 -43 182l58 320q20 113 104 177t195 65z" />
    <glyph glyph-name="four.sups" unicode="&#x2074;" horiz-adv-x="614" 
d="M653 1102q18 0 15 -19l-9 -39q-2 -16 -18 -16h-59l-33 -172q0 -16 -19 -16h-43q-16 0 -14 18l31 170h-350q-16 0 -17 19l6 30q0 4 9 21l368 526q4 10 23 10h49q10 0 13 -6t-3 -14l-356 -512h272l31 178q4 16 18 16h43q16 0 15 -18l-29 -176h57z" />
    <glyph glyph-name="five.sups" unicode="&#x2075;" horiz-adv-x="653" 
d="M379 829q-154 0 -229 113q-6 10 4 21l30 30q10 6 23 -6q59 -82 180 -82q86 0 148 54q61 55 78 149q34 187 -148 186q-88 0 -180 -84q-12 -10 -25 -4l-37 15q-14 6 -10 22l84 377q2 14 20 14h416q16 0 15 -18l-9 -41q-4 -14 -18 -14h-365l-57 -269q83 74 189 74t164 -72
t36 -196q-24 -125 -106 -197t-203 -72z" />
    <glyph glyph-name="six.sups" unicode="&#x2076;" horiz-adv-x="663" 
d="M477 1276q-83 0 -141 -47t-72 -135t24 -138t121 -49q83 0 140 52t74 145q31 172 -146 172zM402 829q-116 0 -175 79t-39 198l54 299q20 113 102 177t184 63q131 0 213 -93q8 -10 -2 -20l-28 -31q-12 -12 -23 0q-62 68 -154 68t-146 -47t-71 -129l-26 -140q61 97 187 97
t184 -68q59 -68 36 -189q-24 -122 -102 -193t-194 -71z" />
    <glyph glyph-name="seven.sups" unicode="&#x2077;" horiz-adv-x="579" 
d="M238 840h-54q-25 0 -10 20l449 701h-383q-18 0 -15 18l8 41q4 14 19 14h463q18 0 14 -18l-4 -31q0 -4 -8 -20l-459 -715q-6 -10 -20 -10z" />
    <glyph glyph-name="eight.sups" unicode="&#x2078;" horiz-adv-x="671" 
d="M461 1219q-83 0 -143 -42t-72 -112t28 -116t126 -46q85 0 146 49q60 49 70 118t-30 109q-41 40 -125 40zM472 1290q81 0 132 42q50 42 62 106t-28 98q-40 35 -112 35t-127 -37t-66 -99t23 -104q35 -41 116 -41zM692 1061q-20 -107 -102 -169t-196 -62t-180 70
q-66 71 -44 173q29 143 176 189q-113 47 -88 182q16 90 92 145t184 55t165 -60q58 -62 42 -150q-25 -133 -155 -177q63 -23 91 -75q27 -53 15 -121z" />
    <glyph glyph-name="nine.sups" unicode="&#x2079;" horiz-adv-x="663" 
d="M509 1569q-81 0 -137 -45t-72 -136t19 -140q37 -48 121 -48t140 48q55 48 70 135t-22 137q-38 49 -119 49zM518 1645q116 0 172 -76q57 -76 37 -199l-53 -301q-20 -111 -100 -175t-179 -65q-131 0 -229 105q-8 8 2 22l29 31q10 14 22 0q70 -82 163 -82t146 48t70 128
l27 140q-68 -95 -187 -95t-178 73q-60 73 -38 194t101 187t195 65z" />
    <glyph glyph-name="zero.sinf" unicode="&#x2080;" horiz-adv-x="688" 
d="M225 -141q80 0 140 47q59 47 73 123l58 323q14 82 -25 128t-122 46t-141 -47t-73 -129l-57 -323q-16 -78 26 -123t121 -45zM218 -215q-112 0 -175 72t-43 182l59 319q21 113 105 178q84 64 194 64t173 -74q62 -74 40 -182l-57 -321q-20 -111 -102 -175t-194 -63z" />
    <glyph glyph-name="one.sinf" unicode="&#x2081;" horiz-adv-x="393" 
d="M135 -205h-41q-20 0 -16 19l121 682l-136 -86q-14 -12 -22 4l-16 32q-10 16 6 25l180 113q8 6 20 6h43q20 0 17 -19l-135 -759q-5 -17 -21 -17z" />
    <glyph glyph-name="two.sinf" unicode="&#x2082;" horiz-adv-x="620" 
d="M416 -207h-469q-16 0 -15 19l7 38q2 12 12 19l217 197q143 129 204 198q60 70 70 132t-23 97q-34 33 -118 33t-190 -94q-14 -12 -25 4l-18 35q-6 12 4 23q123 106 242 106q118 0 168 -63t37 -145t-82 -166q-69 -83 -220 -218l-156 -141h367q20 0 14 -19l-6 -38
q-4 -17 -20 -17z" />
    <glyph glyph-name="three.sinf" unicode="&#x2083;" horiz-adv-x="630" 
d="M184 -215q-164 0 -237 115q-4 12 4 24l26 27q12 10 25 -2q63 -90 191 -90q80 0 137 54t71 131t-23 123q-38 46 -118 46q-34 0 -64 -4t-32 12l-4 25q0 10 8 18l182 174q55 49 92 78h-346q-18 0 -12 19l6 38q4 16 21 17h436q18 0 14 -17l-4 -24q-6 -14 -12 -21l-287 -260
q31 0 49 -2q90 -4 139 -68t31 -168t-99 -174t-194 -71z" />
    <glyph glyph-name="four.sinf" unicode="&#x2084;" horiz-adv-x="614" 
d="M469 57q23 0 14 -18l-8 -39q-2 -16 -18 -16h-60l-30 -172q-4 -16 -21 -17h-41q-18 0 -16 19l30 170h-350q-16 0 -16 18l6 31q0 4 8 20l369 527q8 10 22 10h52q23 0 10 -21l-359 -512h273l31 179q4 16 20 16h41q20 0 16 -19l-30 -176h57z" />
    <glyph glyph-name="five.sinf" unicode="&#x2085;" horiz-adv-x="653" 
d="M195 -215q-164 0 -230 113q-6 10 4 20l31 31q10 6 23 -6q59 -82 180 -82q86 0 147 54q60 55 78 149q35 186 -153 186q-94 0 -175 -84q-12 -10 -24 -4l-37 14q-14 6 -10 23l84 376q2 14 20 15h416q16 0 14 -19l-8 -41q-4 -14 -18 -14h-365l-57 -268q82 74 188 74t165 -72
t36 -197t-106 -197t-203 -71z" />
    <glyph glyph-name="six.sinf" unicode="&#x2086;" horiz-adv-x="663" 
d="M293 231q-83 0 -141 -47t-72 -135t24 -137t120 -49q83 0 141 52q57 52 73 144q31 172 -145 172zM299 305q119 1 179 -67t36 -190t-102 -192t-194 -71q-116 0 -175 79t-39 197l53 299q21 113 103 178t184 62q131 0 213 -92q8 -10 -2 -21l-29 -30q-12 -12 -22 0
q-62 67 -154 67t-146 -47t-71 -129l-27 -139q74 96 193 96z" />
    <glyph glyph-name="seven.sinf" unicode="&#x2087;" horiz-adv-x="579" 
d="M53 -205h-53q-25 0 -10 21l448 700h-383q-20 0 -14 19l8 40q4 14 19 15h462q18 0 15 -19l-4 -30q-2 -8 -9 -21l-458 -715q-11 -10 -21 -10z" />
    <glyph glyph-name="eight.sinf" unicode="&#x2088;" horiz-adv-x="671" 
d="M286 246q81 0 134 43t63 105t-29 98q-40 34 -113 34t-127 -37t-67 -99q-12 -62 23 -103t116 -41zM215 -141q84 0 144 49q59 49 71 118q12 68 -29 108t-126 40t-143 -42t-72 -111q-13 -70 29 -116t126 -46zM208 -215q-112 0 -178 71t-44 173q25 143 176 188
q-115 47 -88 182q16 89 92 145t182 56t166 -61t43 -150q-27 -133 -156 -176q61 -23 89 -76t18 -121q-20 -106 -104 -168t-196 -63z" />
    <glyph glyph-name="nine.sinf" unicode="&#x2089;" horiz-adv-x="663" 
d="M326 524q-80 0 -138 -46t-72 -136t22 -138t120 -48t140 48t70 135q15 87 -23 136q-39 49 -119 49zM215 -139q78 0 130 48t69 128l26 139q-66 -94 -184 -94t-178 72t-38 194q22 121 100 187q79 65 195 65t173 -76t35 -198l-54 -301q-18 -111 -98 -176t-180 -64
q-133 0 -227 104q-10 10 0 23l28 31q12 12 25 0q66 -82 178 -82z" />
    <glyph glyph-name="Euro" unicode="&#x20ac;" horiz-adv-x="1241" 
d="M606 -23q-214 1 -322 137t-73 361l8 70h-110q-18 0 -17 18l10 55q2 14 19 15h119l32 188h-116q-18 0 -15 17l9 55q4 16 18 16h121l16 99q39 225 190 352t377 127t388 -150q10 -8 0 -22l-50 -58q-12 -10 -22 -2q-140 129 -328 129t-302 -105t-144 -286l-15 -84h543
q20 0 16 -18l-10 -55q-2 -14 -18 -15h-547l-31 -188h543q18 0 14 -17l-8 -55q-4 -16 -20 -16h-541l-16 -72q-31 -176 49 -285t258 -108q215 0 405 149q14 14 25 -4l33 -59q8 -15 -4 -25q-215 -164 -484 -164z" />
    <glyph glyph-name="uni20BD" unicode="&#x20bd;" horiz-adv-x="1265" 
d="M715 639q184 0 297 92t143 266q59 362 -317 363h-349l-124 -721h350zM410 1464h448q227 0 338 -130t74 -349q-82 -446 -570 -446h-354l-29 -174h369q16 0 16 -19l-10 -59q-2 -14 -20 -15h-371l-45 -256q-4 -16 -18 -16h-82q-16 0 -15 18l43 254h-135q-20 0 -16 17l12 61
q2 14 18 15h140l188 1083q5 16 19 16z" />
    <glyph glyph-name="uni2113" unicode="&#x2113;" horiz-adv-x="749" 
d="M369 1104l-82 -455q178 109 274 221t123 258q45 268 -104 269q-160 0 -211 -293zM347 -23q-126 -1 -181 97t-29 262l27 149q-81 -45 -88 -40q-6 5 -4 16l8 67q0 12 12 19q23 10 88 47l94 518q63 375 316 375q117 0 168 -97t20 -270q-57 -336 -508 -579l-37 -207
q-20 -127 15 -194q34 -66 116 -66t191 104q14 14 23 -4l26 -53q6 -15 -6 -25q-125 -119 -251 -119z" />
    <glyph glyph-name="uni2116" unicode="&#x2116;" horiz-adv-x="2160" 
d="M1982 406h-581q-16 0 -15 18l11 65q2 14 18 15h582q18 0 16 -17l-12 -65q-5 -16 -19 -16zM1737 709q115 -1 191 65t93 168l39 219q18 104 -30 168q-49 63 -165 63t-191 -66q-75 -67 -93 -173l-39 -219q-18 -100 31 -162t164 -63zM190 0h-79q-16 0 -15 18l252 1430
q0 16 19 16h88q16 0 18 -12l553 -1276l6 6q33 213 92 555l123 711q0 16 19 16h80q18 0 14 -18l-250 -1430q-4 -16 -20 -16h-86q-14 0 -19 12l-405 908q-68 150 -152 360l-4 -4q-76 -469 -213 -1260q-5 -16 -21 -16zM1730 614q-157 0 -234 94t-52 234l39 219q25 143 130 235
t261 91q156 0 230 -97t50 -237l-36 -219q-25 -140 -128 -230t-260 -90z" />
    <glyph glyph-name="trademark" unicode="&#x2122;" horiz-adv-x="1243" 
d="M346 850h-33q-14 0 -12 14l96 545h-168q-16 0 -12 12l4 33q4 10 15 10h401q14 0 12 -12l-4 -33q-2 -10 -16 -10h-170l-97 -545q-4 -14 -16 -14zM670 850h-31q-14 0 -12 14l104 588q2 12 12 12h43q8 0 13 -8l94 -326l25 -81l260 407q6 8 16 8h43q14 0 12 -14l-104 -586
q-4 -14 -17 -14h-30q-14 0 -13 14l60 338l31 152l-7 -6l-67 -115l-164 -246q-2 -8 -14 -8h-31q-8 0 -12 10l-111 369h-2l-23 -156l-59 -338q-4 -14 -16 -14z" />
    <glyph glyph-name="estimated" unicode="&#x212e;" horiz-adv-x="1755" 
d="M1343 780v412q-185 158 -425 158t-418 -174v-396h843zM922 117q379 0 487 219q4 6 12 6h181q14 0 6 -12q-119 -176 -304 -264t-384 -89q-322 0 -550 214t-228 527q0 312 228 540t551 228t551 -228t228 -549v-64q0 -10 -10 -10h-1190v-346q72 -78 188 -125t234 -47z" />
    <glyph glyph-name="onethird" unicode="&#x2153;" horiz-adv-x="1685" 
d="M1321 418q-35 0 -65 -4t-31 12l-2 25q-2 8 6 18l184 174q49 45 90 78h-344q-20 0 -14 18l8 39q4 16 18 17h437q20 0 14 -17l-4 -24q-2 -10 -12 -21l-285 -260q31 0 47 -2q90 -5 140 -69t31 -168t-99 -174q-80 -71 -193 -70q-164 0 -239 114q-4 12 4 25l26 27q12 10 25 -2
q63 -90 190 -91q81 -1 139 55t71 132t-23 122q-37 46 -119 46zM152 0h-50q-10 0 -13 6t3 14l1233 1434q6 10 21 10h47q10 0 13 -6t-3 -14l-1231 -1434q-8 -10 -20 -10zM313 670h-41q-18 0 -14 18l119 682l-135 -86q-12 -10 -23 4l-16 33q-10 16 6 25l180 112q8 6 21 6h45
q16 0 14 -18l-135 -760q-5 -16 -21 -16z" />
    <glyph glyph-name="twothirds" unicode="&#x2154;" horiz-adv-x="1849" 
d="M1487 418q-35 0 -65 -4t-31 12l-2 25q-4 8 6 18l184 174q49 45 90 78h-344q-20 0 -14 18l8 39q4 16 18 17h437q20 0 14 -17l-4 -24q-2 -10 -12 -21l-285 -260q31 0 47 -2q90 -5 140 -69t31 -168t-99 -174q-80 -71 -193 -70q-164 0 -239 114q-4 12 4 25l26 27q12 10 25 -2
q63 -90 190 -91q81 -1 139 55t71 132t-23 122q-37 46 -119 46zM324 0h-50q-10 0 -13 6t3 14l1233 1434q6 10 21 10h47q10 0 13 -6t-3 -14l-1231 -1434q-8 -10 -20 -10zM598 670h-469q-18 0 -14 18l6 37q2 10 12 20l217 195q143 131 204 201q60 70 71 131q10 61 -24 96
q-33 35 -119 35t-189 -94q-14 -14 -25 4l-18 35q-6 14 4 22q123 106 242 106t169 -64q51 -66 37 -146t-82 -163t-221 -218l-155 -142h364q23 0 17 -18l-9 -41q-4 -14 -18 -14z" />
    <glyph glyph-name="oneeighth" unicode="&#x215b;" horiz-adv-x="1669" 
d="M1300 379q-84 0 -144 -42t-71 -112q-12 -69 29 -115t125 -46t144 48q59 50 71 118t-29 109q-41 40 -125 40zM1311 451q80 0 133 43t63 105t-29 97q-40 35 -113 35t-129 -37t-66 -99q-11 -62 25 -103t116 -41zM1234 -10q-114 0 -178 70t-46 173q29 145 176 189
q-113 47 -88 182q16 90 92 146t182 55q106 1 166 -61t43 -150q-27 -133 -156 -176q63 -23 91 -76t16 -121q-20 -107 -102 -169t-196 -62zM154 0h-50q-10 0 -13 6t3 14l1233 1434q4 10 21 10h47q10 0 13 -6t-3 -14l-1231 -1434q-8 -10 -20 -10zM313 670h-41q-18 0 -14 18
l119 682l-135 -86q-12 -10 -23 4l-16 33q-10 16 6 25l180 112q8 6 21 6h45q16 0 14 -18l-135 -760q-5 -16 -21 -16z" />
    <glyph glyph-name="threeeighths" unicode="&#x215c;" horiz-adv-x="1906" 
d="M1540 379q-84 0 -144 -42t-71 -112q-12 -69 29 -115t125 -46t144 48q59 50 71 118t-29 109q-41 40 -125 40zM1550 451q80 0 133 43t63 105t-29 97q-41 35 -113 35t-128 -37t-66 -99q-11 -62 25 -103q35 -41 115 -41zM1474 -10q-114 0 -179 70t-46 173q29 145 176 189
q-113 47 -88 182q17 90 93 146t182 55q106 1 166 -61t43 -150q-27 -133 -156 -176q63 -23 91 -76t16 -121q-20 -107 -102 -169t-196 -62zM383 0h-49q-10 0 -13 6t3 14l1232 1434q4 10 21 10h47q10 0 13 -6t-3 -14l-1231 -1434q-8 -10 -20 -10zM358 659q-162 0 -239 117
q-6 12 4 23l27 26q12 12 24 -2q66 -88 191 -88q80 1 138 55t71 130q12 76 -24 122t-100 48q-64 0 -88 -6t-26 12l-2 24q-2 12 6 19l184 174q37 35 90 80h-344q-20 0 -14 16l8 41q2 14 19 14h436q20 0 14 -16l-4 -25q-4 -12 -12 -18l-285 -262q23 4 47 0q90 -6 140 -71
q50 -66 31 -168t-99 -174t-193 -71z" />
    <glyph glyph-name="fiveeighths" unicode="&#x215d;" horiz-adv-x="1863" 
d="M1497 379q-83 0 -143 -42t-72 -112q-12 -69 29 -115t125 -46t144 48q60 50 72 118t-30 109q-41 40 -125 40zM1508 451q80 0 132 43q54 43 64 105t-30 97t-112 35t-128 -37t-67 -99t25 -103t116 -41zM1430 -10q-114 0 -178 70q-65 70 -46 173q29 145 176 189
q-113 47 -88 182q16 90 92 146t182 55q106 1 166 -61t44 -150q-27 -133 -156 -176q63 -23 91 -76t16 -121q-21 -107 -103 -169t-196 -62zM350 0h-49q-10 0 -13 6t3 14l1233 1434q4 10 20 10h47q9 0 13 -6t-2 -14l-1231 -1434q-8 -10 -21 -10zM367 659q-154 0 -230 113
q-6 10 4 21l31 30q10 6 23 -6q59 -82 180 -82q86 1 147 55q60 54 78 148q35 186 -147 186q-88 0 -181 -84q-12 -10 -24 -4l-37 15q-14 6 -10 22l84 377q2 14 20 14h416q16 0 14 -18l-8 -41q-4 -14 -18 -14h-365l-57 -269q84 74 189 74t164 -72t36 -196q-23 -125 -106 -197
t-203 -72z" />
    <glyph glyph-name="seveneighths" unicode="&#x215e;" horiz-adv-x="1746" 
d="M1380 379q-84 0 -144 -42t-71 -112q-12 -69 29 -115t125 -46t144 48q59 50 71 118t-29 109q-41 40 -125 40zM1391 451q80 0 133 43t63 105t-29 97q-40 35 -113 35t-129 -37t-66 -99q-11 -62 25 -103t116 -41zM1314 -10q-114 0 -178 70t-46 173q29 145 176 189
q-113 47 -88 182q16 90 92 146t182 55q106 1 166 -61t43 -150q-27 -133 -156 -176q63 -23 91 -76t16 -121q-20 -107 -102 -169t-196 -62zM203 0h-49q-10 0 -14 6q-3 6 3 14l1233 1434q4 10 21 10h47q10 0 13 -6t-3 -14l-1231 -1434q-8 -10 -20 -10zM225 670h-53
q-25 0 -10 20l448 701h-381q-20 0 -16 18l8 41q4 14 21 14h460q16 0 17 -18l-6 -31q0 -4 -8 -20l-459 -715q-7 -10 -21 -10z" />
    <glyph glyph-name="arrowleft" unicode="&#x2190;" horiz-adv-x="1263" 
d="M1182 760q16 0 12 -19l-10 -63q0 -16 -19 -16h-909l205 -252q10 -12 -2 -25l-45 -41q-14 -14 -25 0l-258 324q-6 12 -6 22l6 41q4 14 10 21l377 335q12 12 23 -2l32 -38q10 -12 -2 -25l-299 -262h910z" />
    <glyph glyph-name="arrowup" unicode="&#x2191;" horiz-adv-x="833" 
d="M381 164h-59q-18 0 -17 18l168 955l-289 -256q-10 -14 -24 0l-29 39q-14 10 2 22l373 334q8 6 22 6h35q15 0 21 -10l258 -330q12 -16 0 -24l-45 -41q-14 -14 -25 0l-205 264l-168 -961q-4 -16 -18 -16z" />
    <glyph glyph-name="arrowright" unicode="&#x2192;" horiz-adv-x="1263" 
d="M150 670q-18 0 -15 18l10 66q4 14 19 14h911l-207 252q-8 10 2 24l48 43q12 12 22 -2l260 -323q6 -12 4 -23l-6 -41q0 -12 -10 -20l-377 -336q-12 -12 -23 2l-32 39q-8 12 4 25l297 262h-907z" />
    <glyph glyph-name="arrowdown" unicode="&#x2193;" horiz-adv-x="835" 
d="M373 154h-37q-16 0 -21 10l-256 325q-10 14 0 25l45 41q10 14 25 0l203 -260l168 960q0 16 18 17h60q20 0 16 -19l-168 -954l293 260q12 14 22 0l31 -39q10 -14 -2 -22l-375 -338q-12 -6 -22 -6z" />
    <glyph glyph-name="arrowboth" unicode="&#x2194;" horiz-adv-x="1497" 
d="M1110 1053l47 43q12 12 25 -2l258 -324q6 -10 6 -20l-6 -41q-4 -14 -10 -21l-377 -336q-12 -16 -23 2l-33 39q-12 12 2 23l297 264h-1044l209 -260q10 -12 -2 -25l-47 -43q-14 -12 -25 2l-256 332q-6 8 -6 23l6 41q0 12 10 18l375 328q12 12 23 -2l34 -39q8 -10 -4 -23
l-295 -254h1041l-205 252q-12 11 0 23z" />
    <glyph glyph-name="arrowupdn" unicode="&#x2195;" horiz-adv-x="921" 
d="M395 43h-37q-14 0 -20 10l-256 326q-10 16 2 24l45 41q10 14 23 0l200 -258l199 1108l-291 -260q-12 -10 -24 2l-31 39q-8 12 2 23l373 334q10 8 22 8h37q14 0 20 -10l259 -332q8 -14 -3 -25l-43 -41q-12 -12 -24 2l-203 260l-199 -1108l295 263q10 14 25 0l29 -39
q12 -12 -2 -23l-375 -338q-8 -6 -23 -6z" />
    <glyph glyph-name="uni2196" unicode="&#x2196;" horiz-adv-x="991" 
d="M137 571q-18 0 -14 17l82 475q0 6 12 18l33 31q12 8 22 8h443q18 0 16 -18l-10 -58q-2 -14 -21 -14h-348l522 -676q10 -14 0 -24l-51 -47q-12 -12 -22 2l-527 676l-65 -375q-4 -14 -19 -15h-53z" />
    <glyph glyph-name="uni2197" unicode="&#x2197;" horiz-adv-x="1001" 
d="M489 1120h443q14 0 20 -10l21 -27q4 -8 4 -22l-80 -475q-4 -14 -18 -15h-54q-18 0 -14 19l63 368l-759 -675q-12 -12 -23 2l-35 43q-10 12 2 22l760 680h-344q-18 0 -14 17l10 59q4 14 18 14z" />
    <glyph glyph-name="uni2198" unicode="&#x2198;" horiz-adv-x="987" 
d="M854 825h53q18 0 15 -18l-80 -467q0 -8 -13 -18l-32 -31q-8 -8 -23 -8h-448q-14 0 -15 18l11 57q0 16 18 17h354l-524 674q-8 14 2 22l51 49q10 10 25 -2l522 -676l66 369q0 14 18 14z" />
    <glyph glyph-name="uni2199" unicode="&#x2199;" horiz-adv-x="989" 
d="M592 375q16 0 16 -19l-10 -57q0 -16 -18 -16h-449q-14 0 -20 10l-21 26q-6 10 -4 23l80 469q0 14 18 14h54q18 0 14 -16l-62 -363l758 674q13 16 23 -2l37 -43q8 -12 -2 -24l-762 -676h348z" />
    <glyph glyph-name="partialdiff" unicode="&#x2202;" horiz-adv-x="976" 
d="M540 905q-120 1 -215 -109t-128 -302t18 -304q51 -110 182 -110t224 111q92 111 126 307q33 196 -27 302t-180 105zM387 -20q-182 0 -258 150t-35 378q41 227 165 361t286 135q89 0 155 -52t95 -145q47 573 -369 586q-16 0 -16 16l10 61q0 16 18 17q292 -5 398 -239
t28 -673l-14 -83q-45 -246 -163 -379t-300 -133z" />
    <glyph glyph-name="emptyset" unicode="&#x2205;" horiz-adv-x="1255" 
d="M584 227q169 0 320 129t179 314q33 184 -63 317l-703 -649q98 -111 267 -111zM716 1133q-162 0 -310 -129q-148 -130 -178 -306t53 -311l700 647q-103 99 -265 99zM1143 1174h47q10 0 13 -6t-5 -15l-127 -117q119 -158 81 -372t-204 -358q-166 -142 -366 -142t-316 127
l-112 -105q-12 -8 -21 -8h-47q-10 0 -12 6t6 15l147 139q-104 154 -68 365t203 353q168 142 360 142t310 -117l88 84q17 9 23 9z" />
    <glyph glyph-name="product" unicode="&#x220f;" horiz-adv-x="1236" 
d="M1210 1524q18 0 15 -17l-314 -1775q-4 -16 -20 -17h-80q-16 0 -14 19l297 1681h-635l-299 -1683q0 -16 -19 -17h-80q-20 1 -16 19l315 1775q0 14 19 15h831z" />
    <glyph glyph-name="summation" unicode="&#x2211;" horiz-adv-x="1007" 
d="M772 -283h-825q-18 0 -15 17l9 55q2 4 10 18l645 855l-354 768q-4 8 -4 22l10 57q0 14 18 15h824q18 0 14 -17l-12 -71q-2 -14 -21 -15h-704l325 -719q8 -20 6 -30l-8 -51q-2 -6 -16 -27l-582 -774h696q20 0 17 -17l-14 -71q-3 -15 -19 -15z" />
    <glyph glyph-name="minus" unicode="&#x2212;" horiz-adv-x="1150" 
d="M1001 633h-815q-18 0 -14 16l12 68q0 16 19 16h813q18 0 14 -18l-10 -68q-5 -14 -19 -14z" />
    <glyph glyph-name="radical" unicode="&#x221a;" horiz-adv-x="1101" 
d="M430 -285h-86q-16 0 -16 17l-80 979h-160q-16 0 -14 16l10 68q4 14 18 14h224q18 0 18 -16l51 -703q8 -94 17 -233h2q27 78 41 108l665 1548q6 12 21 13h73q18 0 13 -21l-776 -1777q-9 -13 -21 -13z" />
    <glyph glyph-name="infinity" unicode="&#x221e;" horiz-adv-x="1384" 
d="M971 469q79 0 145 54t85 164t-26 160q-46 50 -123 50t-143 -57q-65 -58 -145 -164q72 -159 136 -192q32 -15 71 -15zM464 897q-78 0 -144 -54t-83 -164t27 -160t120 -50t142 56t150 163q-45 102 -90 156t-122 53zM373 377q-113 0 -184 84t-45 226t122 221t198 79t162 -60
q58 -60 105 -163q170 223 334 223q115 0 185 -84t44 -226q-27 -142 -123 -221t-210 -79q-156 0 -252 221q-178 -221 -336 -221z" />
    <glyph glyph-name="integral" unicode="&#x222b;" horiz-adv-x="806" 
d="M819 1536q39 0 117 -8q14 -2 14 -19l-10 -67q0 -16 -18 -17q-57 8 -93 9q-101 0 -167 -65t-87 -183l-200 -1139q-29 -164 -123 -251t-227 -87q-41 0 -119 8q-14 2 -15 19l11 69q2 14 18 15q61 -8 94 -8q209 0 254 247l201 1139q29 164 125 251t225 87z" />
    <glyph glyph-name="approxequal" unicode="&#x2248;" horiz-adv-x="1150" 
d="M762 449q-74 0 -197 43t-193 43t-141 -62q-14 -12 -24 2l-31 43q-8 14 2 25q96 86 194 86t216 -44t189 -44t149 61q14 10 22 -2l33 -43q10 -14 -2 -22q-96 -86 -217 -86zM815 764q-76 0 -199 43t-174 43q-86 0 -159 -62q-12 -12 -23 3l-31 43q-10 14 2 24q97 86 195 86
t216 -44t171 -44q90 0 164 62q16 10 24 -3l33 -43q10 -14 -2 -22q-100 -86 -217 -86z" />
    <glyph glyph-name="notequal" unicode="&#x2260;" horiz-adv-x="1150" 
d="M985 555q18 0 14 -18l-12 -68q-4 -14 -18 -14h-502l-145 -179q-8 -10 -21 -10h-76q-25 0 -10 21l137 168h-196q-20 0 -17 18l15 68q2 14 18 14h260l219 264h-430q-20 0 -16 19l14 67q2 14 19 15h491l139 170q4 10 21 10h72q27 0 10 -21l-129 -159h209q20 -1 14 -17
l-12 -69q-4 -14 -19 -15h-270l-219 -264h440z" />
    <glyph glyph-name="lessequal" unicode="&#x2264;" horiz-adv-x="1150" 
d="M899 100h-815q-18 0 -14 19l12 65q0 16 18 17h813q18 0 15 -17l-10 -67q-5 -17 -19 -17zM952 299q-4 -20 -20 -10l-742 411q-10 4 -10 21l10 63q0 14 15 19l889 411q8 4 14 -1t4 -13l-14 -82q0 -12 -15 -20l-770 -353l643 -352q10 -8 11 -20z" />
    <glyph glyph-name="greaterequal" unicode="&#x2265;" horiz-adv-x="1150" 
d="M922 100h-813q-20 0 -15 19l12 67q2 14 19 15h813q20 0 14 -17l-12 -69q-4 -15 -18 -15zM1038 698l-888 -409q-10 -4 -17 0q-6 4 -4 14l16 82q0 14 13 18l772 353l-643 354q-10 8 -11 20l13 74q6 20 22 10l740 -411q12 -6 10 -21l-8 -63q-1 -11 -15 -21z" />
    <glyph glyph-name="lozenge" unicode="&#x25ca;" horiz-adv-x="1007" 
d="M201 729l229 -614l449 620l-228 615zM637 1464h57q14 0 21 -12l272 -713q4 -14 -4 -22l-516 -707q-10 -10 -21 -10h-59q-14 0 -20 12l-273 711q-4 12 4 22l518 709q7 10 21 10z" />
    </font>
</defs>
</svg>
